<?xml version="1.0" encoding="UTF-8"?>
<svg enable-background="new 0 0 416 208.2" version="1.1" viewBox="0 0 416 208.2" xml:space="preserve" xmlns="http://www.w3.org/2000/svg">
<style type="text/css">
	.st0{display:none;}
	.st1{display:inline;}
	.st2{fill:url(#a);}
	.st3{opacity:0.42;}
	.st4{fill:#FFFFFF;}
	.st5{opacity:0.5;fill:url(#SVGID_00000062900677408945647480000006861220865470543263_);}
	.st6{opacity:0.5;fill:url(#SVGID_00000046311265989154134130000000068651853200302218_);}
	.st7{opacity:0.5;fill:url(#SVGID_00000127025389598703119770000017276489684544600230_);}
	.st8{opacity:0.5;fill:url(#SVGID_00000134239863605920271020000002157085888427540868_);}
	.st9{fill:#0B3A5E;}
	.st10{opacity:0.94;}
	.st11{fill:url(#SVGID_00000064343162030787238130000004750271978868096408_);}
	.st12{fill:url(#SVGID_00000078024886992017331250000007615983465123455403_);}
	.st13{fill:url(#SVGID_00000144303539534897058710000003581082865260438435_);}
	.st14{fill:url(#SVGID_00000039854363174220978760000012548711831922479534_);}
	.st15{fill:url(#SVGID_00000079454169934492226730000005893702526528482959_);}
	.st16{fill:url(#SVGID_00000075121339576938589990000001672865283802655414_);}
	.st17{fill:url(#SVGID_00000132079876123153615160000012087567773310143378_);}
	.st18{fill:url(#SVGID_00000151541898219320766750000009303542919252421293_);}
	.st19{fill:url(#SVGID_00000104694503071348013620000009441977059538910854_);}
	.st20{fill:url(#SVGID_00000109010625477552189970000012751999502200055975_);}
	.st21{fill:#CEC4D6;}
	.st22{fill:#E5DFE9;}
	.st23{fill:url(#SVGID_00000042718523900401349530000009457109472491895949_);}
	.st24{fill:url(#SVGID_00000171681761045102960500000012636488838866787207_);}
	.st25{fill:#5C479E;}
	.st26{fill:#ACA5B5;}
	.st27{fill:#C0B8CC;}
	.st28{fill:#34254C;}
	.st29{fill:#51347F;}
	.st30{fill:url(#SVGID_00000117653231839512088310000004223703701388277409_);}
	.st31{fill:url(#SVGID_00000170974380935273190500000016067075920053887920_);}
	.st32{fill:url(#SVGID_00000079461110751726627490000011397365873641591980_);}
	.st33{fill:url(#SVGID_00000017492464689157990460000000228844589906217139_);}
	.st34{fill:url(#SVGID_00000091017122006429311430000002137744007414071948_);}
	.st35{fill:url(#SVGID_00000009577856320346040120000013852924557916488118_);}
	.st36{fill:url(#SVGID_00000020364445604955094530000015442476702721982097_);}
	.st37{fill:url(#SVGID_00000000217109982258158810000008822550233979024023_);}
	.st38{fill:url(#SVGID_00000067923284111963594920000008539993917302278069_);}
	.st39{fill:url(#SVGID_00000052791643747822924080000000215166937330799022_);}
	.st40{fill:url(#SVGID_00000098194786908508163490000015502756076714607547_);}
	.st41{fill:url(#SVGID_00000002352730470585340630000012601667649837724550_);}
	.st42{fill:url(#SVGID_00000110436704402536706060000010843217458854419618_);}
	.st43{fill:url(#SVGID_00000072277216577424302770000017204022329676307896_);}
	.st44{fill:#C8B8D3;}
	.st45{fill:url(#SVGID_00000105396648955142295450000006158307434847890566_);}
	.st46{fill:url(#SVGID_00000074412043976154729040000009451196644996404874_);}
	.st47{fill:url(#SVGID_00000002372184673550052690000005451026809337058494_);}
	.st48{fill:url(#SVGID_00000110459510540800835230000010616743392095564478_);}
	.st49{fill:url(#SVGID_00000134247418654493985720000012056780958125146547_);}
	.st50{fill:url(#SVGID_00000030484307982877239240000001162603013410261395_);}
	.st51{fill:url(#SVGID_00000096029583656074322680000005993048772915771776_);}
	.st52{fill:url(#SVGID_00000010311721470091510470000010571661935800823986_);}
	.st53{fill:url(#SVGID_00000031907618586939327930000013873489943904705963_);}
	.st54{fill:#2D2244;}
	.st55{fill:url(#SVGID_00000150783022756733893800000013235013055593902497_);}
	.st56{fill:url(#SVGID_00000138564089905030280840000013065940481190674106_);}
	.st57{fill:url(#SVGID_00000007392493402394117450000016737379342265192064_);}
	.st58{fill:url(#SVGID_00000032648744706061178680000011685293087478746808_);}
	.st59{fill:url(#SVGID_00000125592439553518723570000009371899085437756545_);}
	.st60{fill:url(#SVGID_00000039107908722301434810000003102889343697638574_);}
	.st61{fill:url(#SVGID_00000134232903438367324130000015166316442188154805_);}
	.st62{fill:url(#SVGID_00000095327352811075362520000012446575083923432345_);}
	.st63{fill:url(#SVGID_00000176747488464047791870000006905989628611078036_);}
	.st64{fill:url(#SVGID_00000037653901164004209790000007972352023930564784_);}
	.st65{fill:url(#SVGID_00000077301812127286481740000005919450971664493701_);}
	.st66{fill:url(#SVGID_00000061470555686945974600000012151792402930490281_);}
	.st67{fill:url(#SVGID_00000004523811707622736830000011652619138401889160_);}
	.st68{fill:url(#SVGID_00000130621123694052010080000016949546324872326556_);}
	.st69{fill:url(#SVGID_00000039834845472165519530000010749596337389340854_);}
	.st70{fill:url(#SVGID_00000010279321514046626550000004041623559702809265_);}
	.st71{fill:url(#SVGID_00000062181292893336937900000013979088729016402069_);}
	.st72{fill:url(#SVGID_00000178925189366824682780000009167805242595392386_);}
	.st73{fill:url(#SVGID_00000048499337180172591830000013707979030595637166_);}
	.st74{fill:url(#SVGID_00000018954896653054311490000017355203829806290594_);}
	.st75{fill:url(#SVGID_00000071524866303053163360000018101572857883622831_);}
	.st76{fill:url(#SVGID_00000158713241240896611860000006216545623042277252_);}
	.st77{fill:url(#SVGID_00000089539364806903114400000013087648134427436930_);}
	.st78{fill:url(#SVGID_00000097497214042585826830000007954602344498576535_);}
	.st79{fill:url(#SVGID_00000070120180386798583730000009925214013914584483_);}
	.st80{fill:url(#SVGID_00000069383242509507990370000010660092390851898007_);}
	.st81{fill:url(#SVGID_00000016784221099012182600000004179665787134588549_);}
	.st82{fill:url(#SVGID_00000145736581308057858390000017420700592099716500_);}
	.st83{fill:url(#SVGID_00000129166970406211376280000015852230460944196798_);}
	.st84{fill:url(#SVGID_00000018933747247021942040000012307929872529661063_);}
	.st85{fill:url(#SVGID_00000071557441032801039330000009971013752324262806_);}
	.st86{fill:#988CA5;}
	.st87{fill:url(#SVGID_00000163056828365361120410000013588695913899144100_);}
	.st88{fill:url(#SVGID_00000061466914856496603650000012159057496218427300_);}
	.st89{fill:url(#SVGID_00000043440945351622465590000014668149774117598395_);}
	.st90{opacity:0.57;fill:url(#SVGID_00000114757016147424825490000015638235213316143248_);}
</style>
<g class="st0">
	<g class="st1">
		<linearGradient id="a" x1="-166.99" x2="583.01" y1="98.602" y2="98.602" gradientUnits="userSpaceOnUse">
			<stop stop-color="#04074A" offset="0"/>
			<stop stop-color="#2A246D" offset="1"/>
		</linearGradient>
		<rect class="st2" x="-167" y="-151.4" width="750" height="500"/>
		
			<g class="st3">
				
					<circle class="st4" cx="296.2" cy="-53.6" r="1.2"/>
				
				
					<circle class="st4" cx="159" cy="-10.3" r="1.2"/>
				
				
					<circle class="st4" cx="314.6" cy="54.7" r="1.2"/>
				
				
					<circle class="st4" cx="349.1" cy="110.8" r="1.2"/>
				
				
					<path class="st4" d="m281 30.2c0 0.6-0.5 1.2-1.2 1.2-0.6 0-1.2-0.5-1.2-1.2 0-0.6 0.5-1.2 1.2-1.2s1.2 0.5 1.2 1.2z"/>
				
				
					<circle class="st4" cx="412.2" cy="19.9" r="1.2"/>
				
				
					<path class="st4" d="m249.9-85.8c0 0.6-0.5 1.2-1.2 1.2-0.6 0-1.2-0.5-1.2-1.2 0-0.6 0.5-1.2 1.2-1.2 0.7 0.1 1.2 0.6 1.2 1.2z"/>
				
				
					<path class="st4" d="m174.5-63.9c0 0.6-0.5 1.2-1.2 1.2-0.6 0-1.2-0.5-1.2-1.2 0-0.6 0.5-1.2 1.2-1.2 0.6 0 1.2 0.5 1.2 1.2z"/>
				
				
					<circle class="st4" cx="135.3" cy="-63" r="1.2"/>
				
				
					<path class="st4" d="m115.7 3c0 0.6-0.5 1.2-1.2 1.2-0.6 0-1.2-0.5-1.2-1.2 0-0.6 0.5-1.2 1.2-1.2s1.2 0.6 1.2 1.2z"/>
				
				
					<circle class="st4" cx="138.8" cy="39.2" r="1.2"/>
				
				
					<path class="st4" d="m55.3 126.1c0 0.6-0.5 1.2-1.2 1.2-0.6 0-1.2-0.5-1.2-1.2 0-0.6 0.5-1.2 1.2-1.2s1.2 0.5 1.2 1.2z"/>
				
				
					<path class="st4" d="m63.8 103.2c0 0.6-0.5 1.2-1.2 1.2-0.6 0-1.2-0.5-1.2-1.2 0-0.6 0.5-1.2 1.2-1.2s1.2 0.5 1.2 1.2z"/>
				
				
					<path class="st4" d="m15.9 231.6c0 0.6-0.5 1.2-1.2 1.2-0.6 0-1.2-0.5-1.2-1.2 0-0.6 0.5-1.2 1.2-1.2s1.2 0.6 1.2 1.2z"/>
				
				
					<path class="st4" d="m34.8 193c0 0.6-0.5 1.2-1.2 1.2-0.6 0-1.2-0.5-1.2-1.2 0-0.6 0.5-1.2 1.2-1.2 0.6 0 1.2 0.5 1.2 1.2z"/>
				
				
					<circle class="st4" cx="47" cy="302.3" r="1.2"/>
				
				
					<path class="st4" d="m5.7 327.7c0 0.6-0.5 1.2-1.2 1.2-0.6 0-1.2-0.5-1.2-1.2 0-0.6 0.5-1.2 1.2-1.2s1.2 0.5 1.2 1.2z"/>
				
				
					<path class="st4" d="m210.2 315.7c0 0.6-0.5 1.2-1.2 1.2-0.6 0-1.2-0.5-1.2-1.2 0-0.6 0.5-1.2 1.2-1.2s1.2 0.6 1.2 1.2z"/>
				
				
					<path class="st4" d="m288.6 306.4c0 0.6-0.5 1.2-1.2 1.2-0.6 0-1.2-0.5-1.2-1.2 0-0.6 0.5-1.2 1.2-1.2s1.2 0.5 1.2 1.2z"/>
				
				
					<path class="st4" d="m306.6 260.2c0 0.6-0.5 1.2-1.2 1.2s-1.2-0.5-1.2-1.2c0-0.6 0.5-1.2 1.2-1.2s1.2 0.6 1.2 1.2z"/>
				
				
					<path class="st4" d="m221.5 249c0 0.6-0.5 1.2-1.2 1.2-0.6 0-1.2-0.5-1.2-1.2 0-0.6 0.5-1.2 1.2-1.2s1.2 0.6 1.2 1.2z"/>
				
				
					<path class="st4" d="m213.9 221.4c0 0.6-0.5 1.2-1.2 1.2-0.6 0-1.2-0.5-1.2-1.2 0-0.6 0.5-1.2 1.2-1.2 0.7 0.1 1.2 0.6 1.2 1.2z"/>
				
				
					<path class="st4" d="m195.8 222.4c0 0.6-0.5 1.2-1.2 1.2-0.6 0-1.2-0.5-1.2-1.2 0-0.6 0.5-1.2 1.2-1.2 0.6 0 1.2 0.6 1.2 1.2z"/>
				
				
					<circle class="st4" cx="416.9" cy="236.5" r="1.2"/>
				
				
					<circle class="st4" cx="367.8" cy="228.1" r="1.2"/>
				
				
					<path class="st4" d="m421 190.2c0 0.6-0.5 1.2-1.2 1.2-0.6 0-1.2-0.5-1.2-1.2 0-0.6 0.5-1.2 1.2-1.2 0.6 0 1.2 0.6 1.2 1.2z"/>
				
				
					<circle class="st4" cx="433.2" cy="134.5" r="1.2"/>
				
				
					<circle class="st4" cx="407.7" cy="116.5" r="1.2"/>
				
				
					<circle class="st4" cx="418.5" cy="66.3" r="1.2"/>
				
				
					<circle class="st4" cx="425" cy="66.3" r="1.2"/>
				
				
					<circle class="st4" cx="283.8" cy="-23.4" r="1.2"/>
				
				
					<circle class="st4" cx="195.1" cy="14.4" r="1.2"/>
				
				
					<circle class="st4" cx="256" cy="28.5" r="1.2"/>
				
				
					<path class="st4" d="m47.9 29.6c0 0.6-0.5 1.2-1.2 1.2-0.6 0-1.2-0.5-1.2-1.2 0-0.6 0.5-1.2 1.2-1.2 0.6 0 1.2 0.5 1.2 1.2z"/>
				
				
					<circle class="st4" cx="10.8" cy="82.4" r="1.2"/>
				
				
					<path class="st4" d="m-2.1 122.2c0 0.6-0.5 1.2-1.2 1.2-0.6 0-1.2-0.5-1.2-1.2 0-0.6 0.5-1.2 1.2-1.2 0.6 0 1.2 0.5 1.2 1.2z"/>
				
				
					<path class="st4" d="m6.4 5.1c0 0.6-0.5 1.2-1.2 1.2-0.6 0-1.2-0.5-1.2-1.2 0-0.6 0.5-1.2 1.2-1.2s1.2 0.5 1.2 1.2z"/>
				
				
					<path class="st4" d="m13.1-86.4c0 0.6-0.5 1.2-1.2 1.2-0.6 0-1.2-0.5-1.2-1.2 0-0.6 0.5-1.2 1.2-1.2 0.7 0.1 1.2 0.6 1.2 1.2z"/>
				
				
					<circle class="st4" cx="44.1" cy="-94" r="1.2"/>
				
				
					<path class="st4" d="m197.1-99.9c0 0.6-0.5 1.2-1.2 1.2-0.6 0-1.2-0.5-1.2-1.2 0-0.6 0.5-1.2 1.2-1.2s1.2 0.6 1.2 1.2z"/>
				
				
					<path class="st4" d="m149.8-87.7c0 0.6-0.5 1.2-1.2 1.2-0.6 0-1.2-0.5-1.2-1.2 0-0.6 0.5-1.2 1.2-1.2 0.7 0.1 1.2 0.6 1.2 1.2z"/>
				
				
					<circle class="st4" cx="285.7" cy="-101.8" r="1.2"/>
				
				
					<path class="st4" d="m274.5-65c0 0.6-0.5 1.2-1.2 1.2-0.6 0-1.2-0.5-1.2-1.2 0-0.6 0.5-1.2 1.2-1.2s1.2 0.6 1.2 1.2z"/>
				
				
					<circle class="st4" cx="251.5" cy="-26.2" r="1.2"/>
				
				
					<path class="st4" d="m171.6 19.2c0 0.6-0.5 1.2-1.2 1.2-0.6 0-1.2-0.5-1.2-1.2 0-0.6 0.5-1.2 1.2-1.2s1.2 0.5 1.2 1.2z"/>
				
				
					<circle class="st4" cx="143.4" cy="35.9" r="1.2"/>
				
				
					<circle class="st4" cx="102.3" cy="87.2" r="1.2"/>
				
				
					<circle class="st4" cx="94.8" cy="111.9" r="1.2"/>
				
				
					<circle class="st4" cx="102.4" cy="151.6" r="1.2"/>
				
				
					<path class="st4" d="m115.9 181.8c0 0.6-0.5 1.2-1.2 1.2-0.6 0-1.2-0.5-1.2-1.2 0-0.6 0.5-1.2 1.2-1.2 0.6 0.1 1.2 0.6 1.2 1.2z"/>
				
				
					<circle class="st4" cx="179.6" cy="199.6" r="1.2"/>
				
				
					<circle class="st4" cx="230.6" cy="207.1" r="1.2"/>
				
				
					<path class="st4" d="m250.9 212.1c0 0.6-0.5 1.2-1.2 1.2-0.6 0-1.2-0.5-1.2-1.2 0-0.6 0.5-1.2 1.2-1.2s1.2 0.5 1.2 1.2z"/>
				
				
					<circle class="st4" cx="308.3" cy="194.2" r="1.2"/>
				
				
					<path class="st4" d="m313.2 158.3c0 0.6-0.5 1.2-1.2 1.2-0.6 0-1.2-0.5-1.2-1.2 0-0.6 0.5-1.2 1.2-1.2 0.7 0.1 1.2 0.6 1.2 1.2z"/>
				
				
					<circle class="st4" cx="299.4" cy="90.1" r="1.2"/>
				
				
					<path class="st4" d="m284.4 76.8c0 0.6-0.5 1.2-1.2 1.2-0.6 0-1.2-0.5-1.2-1.2 0-0.6 0.5-1.2 1.2-1.2s1.2 0.5 1.2 1.2z"/>
				
				
					<circle class="st4" cx="283.5" cy="48.3" r="1.2"/>
				
				
					<path class="st4" d="m132.8 58.9c0 0.6-0.5 1.2-1.2 1.2-0.6 0-1.2-0.5-1.2-1.2s0.5-1.2 1.2-1.2c0.7 0.1 1.2 0.6 1.2 1.2z"/>
				
				
					<path class="st4" d="m127.2 78.8c0 0.6-0.5 1.2-1.2 1.2s-1.2-0.5-1.2-1.2c0-0.6 0.5-1.2 1.2-1.2s1.2 0.6 1.2 1.2z"/>
				
				
					<path class="st4" d="m128.3 128.9c0 0.6-0.5 1.2-1.2 1.2-0.6 0-1.2-0.5-1.2-1.2s0.5-1.2 1.2-1.2c0.6 0 1.2 0.5 1.2 1.2z"/>
				
				
					<circle class="st4" cx="269.2" cy="180.9" r="1.2"/>
				
				
					<path class="st4" d="m282.6 167.6c0 0.6-0.5 1.2-1.2 1.2-0.6 0-1.2-0.5-1.2-1.2 0-0.6 0.5-1.2 1.2-1.2s1.2 0.5 1.2 1.2z"/>
				
				
					<circle class="st4" cx="293.9" cy="159" r="1.2"/>
				
				
					<path class="st4" d="m320.7 145.8c0 0.6-0.5 1.2-1.2 1.2-0.6 0-1.2-0.5-1.2-1.2s0.5-1.2 1.2-1.2c0.7 0.1 1.2 0.6 1.2 1.2z"/>
				
				
					<path class="st4" d="m336.6 121.3c0 0.6-0.5 1.2-1.2 1.2-0.6 0-1.2-0.5-1.2-1.2 0-0.6 0.5-1.2 1.2-1.2s1.2 0.5 1.2 1.2z"/>
				
				
					<circle class="st4" cx="341.4" cy="96.5" r="1.2"/>
				
				
					<path class="st4" d="m344.7 82.1c0 0.6-0.5 1.2-1.2 1.2-0.6 0-1.2-0.5-1.2-1.2 0-0.6 0.5-1.2 1.2-1.2s1.2 0.5 1.2 1.2z"/>
				
				
					<path class="st4" d="m318.8 81.4c0 0.6-0.5 1.2-1.2 1.2-0.6 0-1.2-0.5-1.2-1.2 0-0.6 0.5-1.2 1.2-1.2 0.6 0.1 1.2 0.6 1.2 1.2z"/>
				
				
					<circle class="st4" cx="328.8" cy="54.3" r="1.2"/>
				
				
					<path class="st4" d="m333.8 56.8c0 0.6-0.5 1.2-1.2 1.2-0.6 0-1.2-0.5-1.2-1.2 0-0.6 0.5-1.2 1.2-1.2 0.7 0.1 1.2 0.6 1.2 1.2z"/>
				
				
					<path class="st4" d="m365.8 110.8c0 0.6-0.5 1.2-1.2 1.2-0.6 0-1.2-0.5-1.2-1.2 0-0.6 0.5-1.2 1.2-1.2 0.6 0 1.2 0.5 1.2 1.2z"/>
				
				
					<circle class="st4" cx="351.1" cy="136.5" r="1.2"/>
				
				
					<path class="st4" d="m350.3 135c0 0.6-0.5 1.2-1.2 1.2-0.6 0-1.2-0.5-1.2-1.2 0-0.6 0.5-1.2 1.2-1.2 0.6 0 1.2 0.6 1.2 1.2z"/>
				
				
					<circle class="st4" cx="314" cy="219.7" r="1.2"/>
				
			</g>
			
				
					<circle class="st4" cx="139.3" cy="-20.4" r="1.2"/>
				
				
					<path class="st4" d="m205.7 1.5c0 0.6-0.5 1.2-1.2 1.2-0.6 0-1.2-0.5-1.2-1.2 0-0.6 0.5-1.2 1.2-1.2s1.2 0.5 1.2 1.2z"/>
				
				
					<circle class="st4" cx="130.8" cy="27.9" r="1.2"/>
				
				
					<path class="st4" d="m143.4 8c0 0.6-0.5 1.2-1.2 1.2-0.6 0-1.2-0.5-1.2-1.2 0-0.6 0.5-1.2 1.2-1.2s1.2 0.5 1.2 1.2z"/>
				
				
					<path class="st4" d="m273.6 38.2c0 0.6-0.5 1.2-1.2 1.2-0.6 0-1.2-0.5-1.2-1.2 0-0.6 0.5-1.2 1.2-1.2s1.2 0.6 1.2 1.2z"/>
				
				
					<circle class="st4" cx="127.1" cy="66.5" r="1.2"/>
				
				
					<path class="st4" d="m123.7 108.8c0 0.6-0.5 1.2-1.2 1.2-0.6 0-1.2-0.5-1.2-1.2 0-0.6 0.5-1.2 1.2-1.2 0.6 0 1.2 0.5 1.2 1.2z"/>
				
				
					<path class="st4" d="m290.5 94.8c0 0.6-0.5 1.2-1.2 1.2-0.6 0-1.2-0.5-1.2-1.2 0-0.6 0.5-1.2 1.2-1.2s1.2 0.6 1.2 1.2z"/>
				
				
					<circle class="st4" cx="301.7" cy="61.7" r="1.2"/>
				
				
					<path class="st4" d="m252.9 3.3c0 0.6-0.5 1.2-1.2 1.2-0.6 0-1.2-0.5-1.2-1.2 0-0.6 0.5-1.2 1.2-1.2 0.6 0 1.2 0.5 1.2 1.2z"/>
				
				
					<circle class="st4" cx="273.4" cy="-30.7" r="1.2"/>
				
				
					<circle class="st4" cx="185.6" cy="-44.1" r="1.2"/>
				
				
					<path class="st4" d="m186.8-22.2c0 0.6-0.5 1.2-1.2 1.2-0.6 0-1.2-0.5-1.2-1.2 0-0.6 0.5-1.2 1.2-1.2 0.7 0.1 1.2 0.6 1.2 1.2z"/>
				
				
					<circle class="st4" cx="345" cy="126.8" r="1.2"/>
				
				
					<path class="st4" d="m327.3 190.8c0 0.6-0.5 1.2-1.2 1.2-0.6 0-1.2-0.5-1.2-1.2 0-0.6 0.5-1.2 1.2-1.2s1.2 0.6 1.2 1.2z"/>
				
				
					<circle class="st4" cx="328" cy="238.9" r="1.2"/>
				
				
					<path class="st4" d="m244.5 278.6c0 0.6-0.5 1.2-1.2 1.2-0.6 0-1.2-0.5-1.2-1.2 0-0.6 0.5-1.2 1.2-1.2 0.6 0.1 1.2 0.6 1.2 1.2z"/>
				
				
					<circle class="st4" cx="207.2" cy="283.4" r="1.2"/>
				
				
					<circle class="st4" cx="190.1" cy="252.2" r="1.2"/>
				
				
					<circle class="st4" cx="230.1" cy="246.5" r="1.2"/>
				
				
					<path class="st4" d="m223.7 224.6c0 0.6-0.5 1.2-1.2 1.2-0.6 0-1.2-0.5-1.2-1.2 0-0.6 0.5-1.2 1.2-1.2s1.2 0.5 1.2 1.2z"/>
				
				
					<circle class="st4" cx="205.3" cy="228.4" r="1.2"/>
				
				
					<circle class="st4" cx="45.1" cy="188" r="1.2"/>
				
				
					<circle class="st4" cx="71.6" cy="214.5" r="1.2"/>
				
				
					<path class="st4" d="m152.8 188c0 0.6-0.5 1.2-1.2 1.2-0.6 0-1.2-0.5-1.2-1.2 0-0.6 0.5-1.2 1.2-1.2s1.2 0.6 1.2 1.2z"/>
				
				
					<circle class="st4" cx="120.6" cy="128.8" r="1.2"/>
				
				
					<path class="st4" d="m66.1 126.7c0 0.6-0.5 1.2-1.2 1.2-0.6 0-1.2-0.5-1.2-1.2 0-0.6 0.5-1.2 1.2-1.2 0.6 0.1 1.2 0.6 1.2 1.2z"/>
				
			
			
				
					<path class="st4" d="m-28.7-103.6c0 0.6-0.5 1.2-1.2 1.2-0.6 0-1.2-0.5-1.2-1.2 0-0.6 0.5-1.2 1.2-1.2s1.2 0.5 1.2 1.2z"/>
				
				
					<path class="st4" d="m36.6-81.7c0 0.6-0.5 1.2-1.2 1.2-0.6 0-1.2-0.5-1.2-1.2 0-0.6 0.5-1.2 1.2-1.2 0.6 0 1.2 0.6 1.2 1.2z"/>
				
				
					<circle class="st4" cx="-38.3" cy="-55.3" r="1.2"/>
				
				
					<circle class="st4" cx="-26.9" cy="-75.2" r="1.2"/>
				
				
					<path class="st4" d="m104.4-45c0 0.6-0.5 1.2-1.2 1.2-0.6 0-1.2-0.5-1.2-1.2 0-0.6 0.5-1.2 1.2-1.2s1.2 0.6 1.2 1.2z"/>
				
				
					<circle class="st4" cx="-42" cy="-16.7" r="1.2"/>
				
				
					<circle class="st4" cx="-46.7" cy="25.6" r="1.2"/>
				
				
					<path class="st4" d="m121.3 11.6c0 0.6-0.5 1.2-1.2 1.2-0.6 0-1.2-0.5-1.2-1.2 0-0.6 0.5-1.2 1.2-1.2s1.2 0.6 1.2 1.2z"/>
				
				
					<path class="st4" d="m133.7-21.5c0 0.6-0.5 1.2-1.2 1.2-0.6 0-1.2-0.5-1.2-1.2 0-0.6 0.5-1.2 1.2-1.2 0.7 0.1 1.2 0.6 1.2 1.2z"/>
				
				
					<path class="st4" d="m83.7-79.9c0 0.6-0.5 1.2-1.2 1.2-0.6 0-1.2-0.5-1.2-1.2 0-0.6 0.5-1.2 1.2-1.2s1.2 0.5 1.2 1.2z"/>
				
				
					<path class="st4" d="m105.4-113.9c0 0.6-0.5 1.2-1.2 1.2-0.6 0-1.2-0.5-1.2-1.2 0-0.6 0.5-1.2 1.2-1.2s1.2 0.5 1.2 1.2z"/>
				
				
					<path class="st4" d="m17.7-127.3c0 0.6-0.5 1.2-1.2 1.2-0.6 0-1.2-0.5-1.2-1.2 0-0.6 0.5-1.2 1.2-1.2 0.6 0.1 1.2 0.6 1.2 1.2z"/>
				
				
					<path class="st4" d="m17.6-105.4c0 0.6-0.5 1.2-1.2 1.2-0.6 0-1.2-0.5-1.2-1.2 0-0.6 0.5-1.2 1.2-1.2 0.7 0.1 1.2 0.6 1.2 1.2z"/>
				
				
					<circle class="st4" cx="175.8" cy="43.6" r="1.2"/>
				
				
					<path class="st4" d="m158.1 107.6c0 0.6-0.5 1.2-1.2 1.2-0.6 0-1.2-0.5-1.2-1.2 0-0.6 0.5-1.2 1.2-1.2s1.2 0.6 1.2 1.2z"/>
				
				
					<path class="st4" d="m160 155.7c0 0.6-0.5 1.2-1.2 1.2-0.6 0-1.2-0.5-1.2-1.2s0.5-1.2 1.2-1.2c0.7 0.1 1.2 0.6 1.2 1.2z"/>
				
				
					<circle class="st4" cx="74.1" cy="195.4" r="1.2"/>
				
				
					<circle class="st4" cx="38.1" cy="200.2" r="1.2"/>
				
				
					<path class="st4" d="m22.1 169c0 0.6-0.5 1.2-1.2 1.2-0.6 0-1.2-0.5-1.2-1.2 0-0.6 0.5-1.2 1.2-1.2s1.2 0.5 1.2 1.2z"/>
				
				
					<path class="st4" d="m62.1 163.3c0 0.6-0.5 1.2-1.2 1.2-0.6 0-1.2-0.5-1.2-1.2 0-0.6 0.5-1.2 1.2-1.2s1.2 0.6 1.2 1.2z"/>
				
				
					<path class="st4" d="m54.6 141.4c0 0.6-0.5 1.2-1.2 1.2-0.6 0-1.2-0.5-1.2-1.2 0-0.6 0.5-1.2 1.2-1.2 0.6 0 1.2 0.5 1.2 1.2z"/>
				
				
					<path class="st4" d="m37.3 145.2c0 0.6-0.5 1.2-1.2 1.2-0.6 0-1.2-0.5-1.2-1.2 0-0.6 0.5-1.2 1.2-1.2 0.6 0.1 1.2 0.6 1.2 1.2z"/>
				
				
					<path class="st4" d="m-122.9 104.8c0 0.6-0.5 1.2-1.2 1.2-0.6 0-1.2-0.5-1.2-1.2 0-0.6 0.5-1.2 1.2-1.2s1.2 0.6 1.2 1.2z"/>
				
				
					<circle class="st4" cx="-97.6" cy="131.3" r="1.2"/>
				
				
					<path class="st4" d="m-16.3 104.8c0 0.6-0.5 1.2-1.2 1.2-0.6 0-1.2-0.5-1.2-1.2 0-0.6 0.5-1.2 1.2-1.2 0.6 0.1 1.2 0.6 1.2 1.2z"/>
				
				
					<circle class="st4" cx="-48.6" cy="45.6" r="1.2"/>
				
				
					<path class="st4" d="m-103.1 43.6c0 0.6-0.5 1.2-1.2 1.2-0.6 0-1.2-0.5-1.2-1.2 0-0.6 0.5-1.2 1.2-1.2s1.2 0.5 1.2 1.2z"/>
				
			
			
				
					<path class="st4" d="m320.5 11.7c0 0.6-0.5 1.2-1.2 1.2-0.6 0-1.2-0.5-1.2-1.2 0-0.6 0.5-1.2 1.2-1.2s1.2 0.5 1.2 1.2z"/>
				
				
					<path class="st4" d="m385.7 33.6c0 0.6-0.5 1.2-1.2 1.2-0.6 0-1.2-0.5-1.2-1.2 0-0.6 0.5-1.2 1.2-1.2s1.2 0.5 1.2 1.2z"/>
				
				
					<path class="st4" d="m312 60c0 0.6-0.5 1.2-1.2 1.2-0.6 0-1.2-0.5-1.2-1.2 0-0.6 0.5-1.2 1.2-1.2s1.2 0.5 1.2 1.2z"/>
				
				
					<path class="st4" d="m323.4 40.1c0 0.6-0.5 1.2-1.2 1.2-0.6 0-1.2-0.5-1.2-1.2 0-0.6 0.5-1.2 1.2-1.2s1.2 0.5 1.2 1.2z"/>
				
				
					<circle class="st4" cx="452.4" cy="70.3" r="1.2"/>
				
				
					<path class="st4" d="m308.3 98.5c0 0.6-0.5 1.2-1.2 1.2-0.6 0-1.2-0.5-1.2-1.2 0-0.6 0.5-1.2 1.2-1.2 0.7 0.1 1.2 0.6 1.2 1.2z"/>
				
				
					<path class="st4" d="m303.7 140.9c0 0.6-0.5 1.2-1.2 1.2-0.6 0-1.2-0.5-1.2-1.2s0.5-1.2 1.2-1.2c0.6 0 1.2 0.5 1.2 1.2z"/>
				
				
					<path class="st4" d="m470.5 126.9c0 0.6-0.5 1.2-1.2 1.2-0.6 0-1.2-0.5-1.2-1.2 0-0.6 0.5-1.2 1.2-1.2s1.2 0.5 1.2 1.2z"/>
				
				
					<circle class="st4" cx="481.7" cy="93.8" r="1.2"/>
				
				
					<circle class="st4" cx="431.7" cy="35.4" r="1.2"/>
				
				
					<circle class="st4" cx="453.4" cy="1.3" r="1.2"/>
				
				
					<path class="st4" d="m366.8-12c0 0.6-0.5 1.2-1.2 1.2s-1.2-0.5-1.2-1.2c0-0.6 0.5-1.2 1.2-1.2s1.2 0.5 1.2 1.2z"/>
				
				
					<path class="st4" d="m366.8 9.9c0 0.6-0.5 1.2-1.2 1.2-0.6 0-1.2-0.5-1.2-1.2 0-0.6 0.5-1.2 1.2-1.2s1.2 0.5 1.2 1.2z"/>
				
				
					<circle class="st4" cx="525" cy="158.8" r="1.2"/>
				
				
					<path class="st4" d="m507.3 222.9c0 0.6-0.5 1.2-1.2 1.2-0.6 0-1.2-0.5-1.2-1.2 0-0.6 0.5-1.2 1.2-1.2s1.2 0.5 1.2 1.2z"/>
				
				
					<circle class="st4" cx="508" cy="271" r="1.2"/>
				
				
					<path class="st4" d="m424.5 310.7c0 0.6-0.5 1.2-1.2 1.2-0.6 0-1.2-0.5-1.2-1.2s0.5-1.2 1.2-1.2c0.6 0 1.2 0.6 1.2 1.2z"/>
				
				
					<path class="st4" d="m388.4 315.5c0 0.6-0.5 1.2-1.2 1.2-0.6 0-1.2-0.5-1.2-1.2 0-0.6 0.5-1.2 1.2-1.2s1.2 0.5 1.2 1.2z"/>
				
				
					<circle class="st4" cx="370.1" cy="284.3" r="1.2"/>
				
				
					<circle class="st4" cx="410.1" cy="278.6" r="1.2"/>
				
				
					<path class="st4" d="m403.7 256.6c0 0.6-0.5 1.2-1.2 1.2-0.6 0-1.2-0.5-1.2-1.2 0-0.6 0.5-1.2 1.2-1.2s1.2 0.6 1.2 1.2z"/>
				
				
					<circle class="st4" cx="385.3" cy="260.5" r="1.2"/>
				
				
					<circle class="st4" cx="225.1" cy="220.1" r="1.2"/>
				
				
					<path class="st4" d="m252.8 246.6c0 0.6-0.5 1.2-1.2 1.2-0.6 0-1.2-0.5-1.2-1.2 0-0.6 0.5-1.2 1.2-1.2 0.6 0 1.2 0.5 1.2 1.2z"/>
				
				
					<path class="st4" d="m332.9 220.1c0 0.6-0.5 1.2-1.2 1.2-0.6 0-1.2-0.5-1.2-1.2 0-0.6 0.5-1.2 1.2-1.2 0.6 0 1.2 0.5 1.2 1.2z"/>
				
				
					<circle class="st4" cx="300.6" cy="160.9" r="1.2"/>
				
				
					<path class="st4" d="m246.1 158.8c0 0.6-0.5 1.2-1.2 1.2-0.6 0-1.2-0.5-1.2-1.2 0-0.6 0.5-1.2 1.2-1.2 0.6 0 1.2 0.6 1.2 1.2z"/>
				
			
			
				
					<path class="st4" d="m152.7 25.4c0 0.6-0.5 1.2-1.2 1.2-0.6 0-1.2-0.5-1.2-1.2 0-0.6 0.5-1.2 1.2-1.2s1.2 0.6 1.2 1.2z"/>
				
				
					<path class="st4" d="m177.5 3.4c0 0.6-0.5 1.2-1.2 1.2-0.6 0-1.2-0.5-1.2-1.2 0-0.6 0.5-1.2 1.2-1.2s1.2 0.5 1.2 1.2z"/>
				
				
					<circle class="st4" cx="159.3" cy="16.6" r="1.2"/>
				
				
					<path class="st4" d="m217.1-4.1c0 0.6-0.5 1.2-1.2 1.2-0.6 0-1.2-0.5-1.2-1.2 0-0.6 0.5-1.2 1.2-1.2s1.2 0.5 1.2 1.2z"/>
				
				
					<path class="st4" d="m242.6 17.7c0 0.6-0.5 1.2-1.2 1.2-0.6 0-1.2-0.5-1.2-1.2 0-0.6 0.5-1.2 1.2-1.2 0.6 0 1.2 0.5 1.2 1.2z"/>
				
				
					<path class="st4" d="m149.1-33.4c0 0.6-0.5 1.2-1.2 1.2-0.6 0-1.2-0.5-1.2-1.2 0-0.6 0.5-1.2 1.2-1.2s1.2 0.5 1.2 1.2z"/>
				
				
					<circle class="st4" cx="93.2" cy="12" r="1.2"/>
				
				
					<path class="st4" d="m315.8 280.2c0 0.6-0.5 1.2-1.2 1.2s-1.2-0.5-1.2-1.2c0-0.6 0.5-1.2 1.2-1.2s1.2 0.5 1.2 1.2z"/>
				
			
		
		
			
				<linearGradient id="q" x1="-28.422" x2="-175.49" y1="-37.267" y2="-134.29" gradientUnits="userSpaceOnUse">
				<stop stop-color="#fff" offset="0"/>
				<stop stop-color="#1D262D" stop-opacity="0" offset=".8902"/>
			</linearGradient>
			
				<circle cx="-61.8" cy="-59.3" r="60.3" fill="url(#q)" opacity=".5"/>
			
				<linearGradient id="br" x1="444.57" x2="592.66" y1="-3.055" y2="-193.01" gradientUnits="userSpaceOnUse">
				<stop stop-color="#fff" offset="0"/>
				<stop stop-color="#1D262D" stop-opacity="0" offset=".8902"/>
			</linearGradient>
			<path d="m583.7-151.4v197.5c-13.4 3.5-27.4 5.4-41.9 5.4-90.4 0-163.8-73.3-163.8-163.8 0-13.5 1.6-26.6 4.7-39.1h201z" fill="url(#br)" opacity=".5"/>
			
				<linearGradient id="r" x1="46.125" x2="-92.768" y1="208.26" y2="294.04" gradientUnits="userSpaceOnUse">
				<stop stop-color="#fff" offset="0"/>
				<stop stop-color="#1D262D" stop-opacity="0" offset=".8902"/>
			</linearGradient>
			
				<circle cx="-7.8" cy="241.6" r="70.1" fill="url(#r)" opacity=".5"/>
			
				<linearGradient id="h" x1="409.28" x2="462.73" y1="252.2" y2="314.15" gradientUnits="userSpaceOnUse">
				<stop stop-color="#fff" offset="0"/>
				<stop stop-color="#1D262D" stop-opacity="0" offset=".8902"/>
			</linearGradient>
			
				<circle cx="421.7" cy="266.6" r="35.3" fill="url(#h)" opacity=".5"/>
		
	</g>
</g>

	
		
			
				
					<path class="st9" d="M78.5,176v-34.8H0v-24.3L75.9,4h31.3v112.9h19.5v24.3h-19.5V176H78.5z M79.5,116.9l1.7-84l-53.7,84H79.5z"/>
				
			
			<g class="st10">
				
					<path class="st9" d="m367.8 176v-34.8h-78.5v-24.3l75.9-112.9h31.3v112.9h19.5v24.3h-19.5v34.8h-28.7zm1-59.1 1.7-84-53.7 84h52z"/>
				
			</g>
			<g class="st10">
				<path class="st9" d="m272.6 91.8c0 27.6-5.7 49.2-17.2 64.8-11.4 15.6-27.1 23.4-47.1 23.4-20.3 0-36-7.9-47.3-23.7s-16.9-37.9-16.9-66.5c0-28.3 5.7-50.4 17.1-66.2 11.3-15.7 27.2-23.6 47.4-23.6 20.6 0 36.4 7.9 47.4 23.8 11.1 15.8 16.6 38.5 16.6 68zm-64.8 63.9c11.9 0 20.8-5.5 26.8-16.5s9-27.5 9-49.5c0-21.4-3-37.6-8.9-48.8s-14.5-16.8-25.8-16.8c-11.8 0-20.7 5.6-26.7 16.7s-9 27.6-9 49.3c0 21.1 3 37.3 9 48.6 5.9 11.4 14.4 17 25.6 17z"/>
			</g>
		
	
	
		
			
				<linearGradient id="k" x1="184.87" x2="232.29" y1="66.901" y2="66.901" gradientTransform="matrix(.9977 -.068 .068 .9977 -9.1769 14.735)" gradientUnits="userSpaceOnUse">
				<stop stop-color="#34254C" offset="0"/>
				<stop stop-color="#51397F" offset="1"/>
			</linearGradient>
			<path d="m181.9 77.9s-2.7-8.2-1.8-9.3c0.9-1.2 12.7-6.3 27.8-9.5s15.8-2 17-1.1 2.6 10.1 2.6 12c-0.1 1.8-45.6 7.9-45.6 7.9z" fill="url(#k)"/>
			
				<linearGradient id="m" x1="177" x2="232.11" y1="121.44" y2="121.44" gradientTransform="matrix(.9977 -.068 .068 .9977 -9.1769 14.735)" gradientUnits="userSpaceOnUse">
				<stop stop-color="#E1DAE5" offset="0"/>
				<stop stop-color="#F7F4F9" offset="1"/>
			</linearGradient>
			<path d="m253.4 139.7-1 2.3-7.3 16.1-7 15.5c-3.5-2.4-4.6-11.4-4.4-18.2s-0.8-11.3-0.8-11.3c-2.1-1-3.8-2.8-5.1-4.5-0.9-1.2-1.6-2.4-2.1-3.2-0.4-0.8-0.7-1.3-0.7-1.3-8.2 0.4-13.8-4.9-15.1-5.8s-3.8-0.1-6.3 5.5c-2.2 5-7.8 7-8.9 7.4-0.1 0-0.2 0.1-0.2 0.1-0.2 1.3-0.5 2.5-0.8 3.6-2.1 8.8-4.6 10-4.6 10-0.3 2.9 1.4 7 1.9 12.4 0.5 5.3 0 13.6 0 13.6l-7.4-4.6-14.4-9s-5.5-12.9-5.1-17.2c0.1-1.2 0.4-2.3 0.7-3.3 0.4-1.1 0.9-2.1 1.4-2.8 0.6-0.9 1-1.4 1-1.4s0-0.7 0-1.8c0-0.5 0-1 0.1-1.6 0.1-1.4 0.3-3 0.6-4.5l0.3-1.2c0.2-0.7 0.5-1.3 0.8-1.9s0.7-1.1 1-1.6v-0.1l0.2-0.2c0.1-0.1 0.2-0.2 0.3-0.4 0.6-0.8 1.1-1.2 1.1-1.2s0.3-1.1 0.8-2.7c0.3-1.3 0.7-2.8 1.1-4.3 0.9-3.5 0.8-4.8 3-6.5s2.8-3.1 4.1-4.2l0.1-0.1c0.8-0.6 2.1-1.5 3.2-2.1 0.8-0.5 1.5-0.9 1.5-0.9 0-2.5 0.8-4.6 0.8-4.6-0.2-0.3-0.5-0.9-0.6-1.5-0.2-0.7-0.3-1.3-0.3-1.3-0.4 0.2-0.7 0.5-1.1 0.7-3.8 2.2-6.5 1.4-6.5 1.4-1 0.4-2 0.7-3 0.9-1.3 0.3-2.6 0.3-3.9 0.2-6.4-0.6-10.8-5.3-10.8-5.3l3.3-4.7 7.3-10.4c1.3 0.2 2.3 0.6 2.9 1.1 0.2 0.1 0.4 0.3 0.6 0.4 0.1 0.1 0.2 0.2 0.3 0.2 0.4 0.4 0.6 0.7 0.6 0.8 0-0.2 0.1-0.5 0.1-0.7 0.1-0.5 0.3-0.9 0.4-1.3 0-0.1 0.1-0.1 0.1-0.2 0.2-0.3 0.5-0.6 0.7-0.8 0.4-0.3 0.8-0.4 0.8-0.4 0-0.2 0-0.4 0.1-0.6 1-7.7 6-7.9 6-7.9 1-5.8 6.9-5.8 6.9-5.8s1.2 0.3 3.2 0.6c3.1 0.4 8 0.8 12.6-0.1 5.1-1 8.2-3.7 9.7-5.4 0.7-0.8 1.1-1.3 1.1-1.3 4.8-1.1 8.6 4.9 8.6 4.9 2.8 0 5 1.8 6.2 3.2 0.8 0.8 1.2 1.5 1.2 1.5l0.1-0.1c0.3-0.4 0.7-0.8 1-1.1l0.2-0.2c0.6-0.5 1.2-0.8 1.8-1.1 1.5-0.7 2.8-0.9 2.8-0.9l6.5 13.5 1.4 2.9s-0.8 4.2-5.3 6.5c-0.4 0.2-0.8 0.4-1.3 0.6-0.3 0.1-0.7 0.2-1 0.3-3.7 0.8-7.7-0.8-10-2h-0.1-0.1s-0.1 0-0.1-0.1c-1-0.5-1.6-0.9-1.6-0.9 0.2 0.6 0.4 1.3 0.5 2 0 0.1 0 0.3 0.1 0.4 0.5 3 0.1 6 0.1 6 0.7 2 1 3.5 1.1 4.6 0.2 1.9-0.3 2.7-0.4 2.9v0.1s0.1-0.1 0.4-0.2 0.7-0.3 1.3-0.4c0.1 0 0.2 0 0.3-0.1 0.3-0.1 0.7-0.1 1.1-0.1 1.4-0.1 3.3 0 5.6 0.8 0.1 0 0.1 0 0.2 0.1 0.1 0 0.2 0.1 0.3 0.1 6 2.3 8.6 11.9 8.6 11.9 0.7 0.4 1.7 1.4 2.7 2.8 1.4 2 2.8 5 3.2 8.3 0.6 5.4 1.3 11.2 1.3 11.2z" fill="url(#m)"/>
			
				<linearGradient id="bt" x1="160.35" x2="175.86" y1="95.975" y2="95.975" gradientTransform="matrix(.9977 -.068 .068 .9977 -9.1769 14.735)" gradientUnits="userSpaceOnUse">
				<stop stop-color="#C8B8D3" offset="0"/>
				<stop stop-color="#C8B8D3" stop-opacity=".3" offset="1"/>
			</linearGradient>
			<path d="m170.8 103.9c-6.4-0.6-10.8-5.3-10.8-5.3l3.3-4.7c1.1 1.5 3.6 4.1 7.1 4.9 1.2 0.3 2.3 0.4 3.3 0.3-0.6 1.7-1.5 3.3-2.9 4.8z" fill="url(#bt)"/>
			
				<linearGradient id="n" x1="158.21" x2="223.44" y1="110.84" y2="110.84" gradientTransform="matrix(.9977 -.068 .068 .9977 -9.1769 14.735)" gradientUnits="userSpaceOnUse">
				<stop stop-color="#C8B8D3" offset="0"/>
				<stop stop-color="#C8B8D3" stop-opacity=".3" offset="1"/>
			</linearGradient>
			<path d="m224.9 104.3-5 7.6s-4.4 7.1-12.7 6.4-15.7-8.3-21.7-4.8c-5.9 3.4-9.4 11.1-9.4 11.1l3.4-1s-6 4-7.1 6.5c-0.2 0.6-0.2 1.1 0.2 1.4l-3.6 1.1c0.3-0.6 0.7-1.1 1-1.6v-0.1l0.2-0.2c0.1-0.1 0.2-0.2 0.3-0.4 0.6-0.8 1.1-1.2 1.1-1.2s0.3-1.1 0.8-2.7c0.3-1.3 0.7-2.8 1.1-4.3 0.9-3.5 0.8-4.8 3-6.5s2.8-3.1 4.1-4.2l0.1-0.1c0.8-0.6 2.1-1.5 3.2-2.1 0.8-0.5 1.5-0.9 1.5-0.9 0-2.5 0.8-4.6 0.8-4.6-0.2-0.3-0.5-0.9-0.6-1.5-0.2-0.7-0.3-1.3-0.3-1.3-0.4 0.2-0.7 0.5-1.1 0.7-3.8 2.2-6.5 1.4-6.5 1.4-1 0.4-2 0.7-3 0.9 0.6-1.1 1.4-2.8 1.8-5.2 1.3-0.5 2.1-1.2 2.1-1.2s1 1.4 3.6 1.2c2.5-0.2 7.4-2.4 7.4-5.1 0 0 2 9 12.1 12.1 9.9 3 19.1 0.2 23.2-1.4z" fill="url(#n)"/>
			
				<linearGradient id="ak" x1="181.31" x2="194.71" y1="160.02" y2="160.02" gradientTransform="matrix(.9977 -.068 .068 .9977 -9.1769 14.735)" gradientUnits="userSpaceOnUse">
				<stop stop-color="#C8B8D3" stop-opacity=".9" offset="0"/>
				<stop stop-color="#C8B8D3" stop-opacity=".3" offset="1"/>
			</linearGradient>
			<path d="m189.1 155.8c-0.3 2.9 1.4 7 1.9 12.4 0.5 5.3 0 13.6 0 13.6l-7.4-4.6c1.7-4.7-0.5-11.8-0.7-17-0.3-6.5 3.7-6.7 3.7-6.7-1.8-5.6 0.7-9.9 3.4-12.1 1.8 1.7 3 3.2 3.8 4.5-2.2 8.7-4.7 9.9-4.7 9.9z" fill="url(#ak)"/>
			
				<linearGradient id="an" x1="192.6" x2="233.23" y1="132.06" y2="132.06" gradientTransform="matrix(.9977 -.068 .068 .9977 -9.1769 14.735)" gradientUnits="userSpaceOnUse">
				<stop stop-color="#C8B8D3" stop-opacity=".9" offset="0"/>
				<stop stop-color="#C8B8D3" stop-opacity=".3" offset="1"/>
			</linearGradient>
			<path d="m228.7 129.1c-1.9 3.1-2.8 5.8-3.1 7.2-0.4-0.8-0.7-1.3-0.7-1.3-8.2 0.4-13.8-4.9-15.1-5.8s-3.8-0.1-6.3 5.5c-2.2 5-7.8 7-8.9 7.4-0.5-0.6-1.3-1.6-2.3-2.7 1.9-1.9 3.5-4.6 6.2-8.9 3.4-5.4 7.8-6.6 10-7 3.4-0.7 5 1.4 12.8 4.8 2.7 1.2 5.3 1.2 7.4 0.8z" fill="url(#an)"/>
			
				<linearGradient id="aw" x1="227.85" x2="245.45" y1="152.8" y2="152.8" gradientTransform="matrix(.9977 -.068 .068 .9977 -9.1769 14.735)" gradientUnits="userSpaceOnUse">
				<stop stop-color="#C8B8D3" stop-opacity=".9" offset="0"/>
				<stop stop-color="#C8B8D3" stop-opacity=".3" offset="1"/>
			</linearGradient>
			<path d="m245 158.2-7 15.5c-3.5-2.4-4.6-11.4-4.4-18.2s-0.8-11.3-0.8-11.3c-2.1-1-3.8-2.8-5.1-4.5 1.1-2.2 3.5-6.9 6.7-10.8-1.1 4.6 1.1 8.1 3.7 11.2 0 0-0.8 7 0.6 13.1 0.9 3.8 4.1 4.8 6.3 5z" fill="url(#aw)"/>
			
				<linearGradient id="at" x1="256.08" x2="240.47" y1="120.58" y2="128.78" gradientTransform="matrix(.9977 -.068 .068 .9977 -9.1769 14.735)" gradientUnits="userSpaceOnUse">
				<stop stop-color="#fff" offset="0"/>
				<stop stop-color="#fff" stop-opacity="0" offset="1"/>
			</linearGradient>
			<path d="m253.4 139.7-1 2.3c-2-2.2-3.7-6.9-4.6-13.3-1.2-8.8-6.6-10-6.6-10 2.1-7-2.7-12.7-3.7-13.6 0.1 0 0.2 0.1 0.3 0.1 6 2.3 8.6 11.9 8.6 11.9 0.7 0.4 1.7 1.4 2.7 2.8 1.4 2 2.8 5 3.2 8.3 0.4 5.7 1.1 11.5 1.1 11.5z" fill="url(#at)"/>
			
				<linearGradient id="v" x1="182.89" x2="193.3" y1="67.84" y2="85.108" gradientTransform="matrix(.9977 -.068 .068 .9977 -9.1769 14.735)" gradientUnits="userSpaceOnUse">
				<stop stop-color="#C8B8D3" offset="0"/>
				<stop stop-color="#C8B8D3" stop-opacity=".3" offset="1"/>
			</linearGradient>
			<path d="m187.1 73.4c0.5 3.1 5.8 3.2 5.8 3.2-3.3 1-6 0.7-9.3 0.2-3.4-0.6-5.6 5.4-4.7 5.8s1.8 2 1.8 2c-2.6-1.2-3 0-2.2 2.8s0.5 7.1 0.5 7.1c-0.5-2.9-2.4-6.8-3.6-9.1 0.1-0.5 0.3-0.9 0.4-1.3 0-0.1 0.1-0.1 0.1-0.2 0.2-0.3 0.5-0.6 0.7-0.8 0.4-0.3 0.8-0.4 0.8-0.4 0-0.2 0-0.4 0.1-0.6 1-7.7 6-7.9 6-7.9 1-5.8 6.9-5.8 6.9-5.8s1.2 0.3 3.2 0.6c-2.6-0.3-7 1.3-6.5 4.4z" fill="url(#v)"/>
			
				<linearGradient id="s" x1="234.91" x2="225.77" y1="58.994" y2="75.237" gradientTransform="matrix(.9977 -.068 .068 .9977 -9.1769 14.735)" gradientUnits="userSpaceOnUse">
				<stop stop-color="#fff" offset="0"/>
				<stop stop-color="#fff" stop-opacity="0" offset="1"/>
			</linearGradient>
			<path d="m232.9 71.7-0.1 0.6c-3.6-3.7-8.4-3.1-8.4-3.1-0.6 2.7-5.3 3.2-5.3 3.2s3.7-2 3.2-4.3-6.5-4.5-6.5-4.5 0-0.1-0.1-0.1c0.7-0.8 1.1-1.3 1.1-1.3 4.8-1.1 8.6 4.9 8.6 4.9 2.8 0 5 1.8 6.2 3.2 0.8 0.8 1.2 1.5 1.2 1.5 0.1 0 0.1 0 0.1-0.1z" fill="url(#s)"/>
			<path class="st21" d="m171.1 135.8c-0.1 0.3-3.7 8.9-6.3 11.9 0.4-1.1 0.9-2.1 1.4-2.8 0.6-0.9 1-1.4 1-1.4s0-0.7 0-1.8c0-0.5 0-1 0.1-1.6 1.1-0.8 2.9-2.3 3.8-4.3z"/>
			<path class="st22" d="m236.4 87.8c0.7 1.5 1.6 3 2.7 4.5-3.7 0.8-7.7-0.8-10-2h-0.1-0.1s-0.1 0-0.1-0.1c-1-0.5-1.6-0.9-1.6-0.9 0.2 0.6 0.4 1.3 0.5 2 0 0.1 0 0.3 0.1 0.4-4.7-6.5-6.8-15.1-6.9-15.5 0.1 0.4 3.1 8.8 10.4 11.1 1.9 0.4 3.6 0.6 5.1 0.5z"/>
			<path class="st22" d="m246.7 84.8s-0.8 4.2-5.3 6.5c-0.7-0.9-1.6-2.3-2.5-4.1 3.5-1.2 5.6-4 6.4-5.3l1.4 2.9z"/>
			
				
					<linearGradient id="bv" x1="184.26" x2="224.28" y1="109.26" y2="109.26" gradientTransform="matrix(.9977 -.068 .068 .9977 -9.1769 14.735)" gradientUnits="userSpaceOnUse">
					<stop stop-color="#34254C" offset="0"/>
					<stop stop-color="#51397F" offset="1"/>
				</linearGradient>
				<path d="m230.3 104.4s-6.7 3.8-7.8 5-2 3.1-7.2 4.6c-1.2 0.4-2.7 0.8-4.4 1-4.5 0.8-10.1 0.8-14.7-1.8 0 0-1.8-3.1-5.9-4.9 0.2 0 3.5 0.8 6.1 0.9h0.6 0.9s0.5-0.6 1-0.9c0.6-0.2 2-0.2 3.8-0.2h0.7c1.1 0 2.3-0.1 3.5-0.2 1.1-0.1 2.2-0.2 3.1-0.4 0.3 0 0.5-0.1 0.7-0.1 1.7-0.3 3-0.5 3.3-0.5 0.8-0.1 1.5 0.4 1.8 0.7l0.1 0.1s0.2-0.1 0.5-0.2c0.6-0.2 1.6-0.6 2.9-1.1 0.2-0.1 0.4-0.1 0.5-0.2 0.4-0.1 0.8-0.3 1.1-0.5 0.1-0.1 0.3-0.1 0.4-0.2 1-0.4 2-0.8 3-1.3 0.1 0 0.2-0.1 0.3-0.1 1.6-0.8 3.1-1.6 4.1-2.3v0.7c0 1.4-0.3 2.1-0.4 2.3v0.1s0.1-0.1 0.4-0.2c0.6 0 1-0.2 1.6-0.3z" fill="url(#bv)"/>
				
					<linearGradient id="au" x1="191.18" x2="238.31" y1="110.51" y2="108.53" gradientTransform="matrix(.9977 -.068 .068 .9977 -9.1769 14.735)" gradientUnits="userSpaceOnUse">
					<stop stop-color="#2D2244" offset="0"/>
					<stop stop-color="#3E2C5E" stop-opacity="0" offset="1"/>
				</linearGradient>
				<path d="m229.1 102.7c-1.6 1-7.6 4.5-12.4 5.7l-0.1 2.1c0-0.2-0.1-2.6-5-1.8-5.2 0.8-10.2 0.9-10.2 0.9s1.4 6.1 9.5 5.5c-4.5 0.8-10.1 0.8-14.7-1.8 0 0-1.8-3.1-5.9-4.9 0.2 0 3.5 0.8 6.1 0.9h0.6 0.9s0.5-0.6 1-0.9c0.6-0.2 2-0.2 3.8-0.2h0.7c1.1 0 2.3-0.1 3.5-0.2 1.1-0.1 2.2-0.2 3.1-0.4 0.3 0 0.5-0.1 0.7-0.1 1.7-0.3 3-0.5 3.3-0.5 0.8-0.1 1.5 0.4 1.8 0.7l0.1 0.1s0.2-0.1 0.5-0.2c0.6-0.2 1.6-0.6 2.9-1.1 0.2-0.1 0.4-0.1 0.5-0.2 0.4-0.1 0.8-0.3 1.1-0.5 0.1-0.1 0.3-0.1 0.4-0.2 1-0.4 2-0.8 3-1.3 0.1 0 0.2-0.1 0.3-0.1 1.6-0.8 3.1-1.6 4.1-2.3 0.4 0.4 0.4 0.6 0.4 0.8z" fill="url(#au)"/>
				
					<path class="st25" d="m203.5 108.2v6.6l-0.7-6.6h0.7z"/>
					<path class="st25" d="m210.9 107.6-0.3 6.7-0.4-6.6c0.2 0 0.4 0 0.7-0.1z"/>
					<path class="st25" d="m197.1 109.3-0.4 2.8-0.2-2.8h0.6z"/>
					<path class="st25" d="m216.3 112.7c0-1.9-0.2-3.9-0.3-4.9l0.1 0.1s0.2-0.1 0.5-0.2c0.2 2.8-0.3 5-0.3 5z"/>
					<path class="st25" d="m220.1 106.4-0.3 4.1-0.3-3.9c0.2 0 0.4-0.1 0.6-0.2z"/>
					<path class="st25" d="m221.6 105.8-0.2 3-0.2-2.9c0.2 0 0.3 0 0.4-0.1z"/>
					<path class="st25" d="m224.9 104.4-0.2 2.4-0.2-2.2c0.2-0.1 0.3-0.2 0.4-0.2z"/>
				
			
			
				<path class="st26" d="m201.2 115.6c-3.4 1-7.4-6.9-14-6.3-2.3 0.2-4.8 1.2-6.4 1.9l0.1-0.1c0.8-0.6 2.1-1.5 3.2-2.1 0.2-0.1 2-0.9 5.7-0.7 4.7 0.3 8 6.9 11.4 7.3z"/>
				<path class="st26" d="m237.3 105c-9.3-1.2-18.1 8.1-18.1 8.1 3.8-4.9 7.2-7.1 9.5-8.1 0.1 0 0.2-0.1 0.3-0.1 0.6-0.2 1.1-0.4 1.5-0.5 0.7-0.1 1-0.2 1.1-0.1 1.4-0.2 3.3-0.1 5.7 0.7z"/>
				<polygon class="st26" points="170.1 130.9 170.1 130.9"/>
				<path class="st26" d="m179.6 123.5c-5.8 2.5-9.1 6.8-9.5 7.3 0.9-1.2 1.6-1.9 1.6-1.9s0.3-1.1 0.8-2.7c3.1-1.6 7-2.6 7.1-2.7z"/>
				<path class="st26" d="m169.2 139.7c-1.3 3.3-2.9 5.1-3 5.2 0.6-0.9 1-1.4 1-1.4s0-0.7 0-1.8c1.2-0.7 1.9-1.9 2-2z"/>
				<path class="st27" d="m234 70.7c-0.4 0.3-3.3 3.3-2.4 12.3 0 0-1.9-6.7 0.1-12.6 0.8 0.8 1.2 1.5 1.2 1.5 0.3-0.5 0.7-0.9 1.1-1.2z"/>
				<path class="st26" d="m234 70.7z"/>
				<path class="st26" d="m175.1 86c-0.3-0.5-0.6-0.8-0.9-1 0.6 0.5 0.9 0.9 0.9 1z"/>
				<path class="st26" d="m178.9 94.5c-1.4-4.6-2.8-7.1-3.7-8.5 0.1-0.8 0.3-1.5 0.5-1.9 2.4 4.5 3.2 10.4 3.2 10.4z"/>
				<path class="st26" d="m180.5 84.1c-2-1.8-4.1-1-4.1-1 0.4-0.3 0.8-0.4 0.8-0.4 0-0.2 0-0.4 0.1-0.6 2.3 0.5 3.2 2 3.2 2z"/>
				<path class="st26" d="m189.7 97.6c-0.1 0.1-2 2.6-4 4.4-0.2-0.7-0.3-1.3-0.3-1.3-0.4 0.3 4.3-3.1 4.3-3.1z"/>
				<path class="st26" d="m227.2 89.2c0.2 0.6 0.4 1.3 0.5 2-2-2.2-2.8-5.1-2.9-5.2 1.3 2.5 3.2 3.8 3.9 4.2l-1.5-1z"/>
			
			<path class="st28" d="m194.3 101.1 1.5 2.2c-2.4 1.9-6.7 4.4-9 4.7s-3.8-0.1-4.1-1.5c-0.2-1.1 1.7-2.9 2.6-3.7 0.3-0.3 0.5-0.4 0.5-0.4l0.5 1s-2.8 2.9-0.9 3.2h0.2c2.2 0.2 8.6-5.8 8.6-5.8"/>
			<path class="st29" d="m185.4 106.7s-1.7 0.1-1.6-1.1c0-0.7 0.9-1.8 1.6-2.7 0.3-0.3 0.5-0.4 0.5-0.4l0.5 1c-0.1 0-2.9 2.8-1 3.2z"/>
			<path class="st28" d="m232.9 98.8c-0.4 0.6-1.2 1.3-2.4 2-3 1.7-9.1 0.3-9.1 0.3l-0.7-3.3s3.9 2.1 7.9 1.8c0.9-0.1 1.6-0.2 2.1-0.4 1.4-0.5 1.6-1.3 1.2-1.9-0.5-0.8-3.9-0.2-3.9-0.2l0.1-2.7s1.6 0.1 3 0.5c0.8 0.2 1.6 0.6 1.9 1.1 0.4 0.9 0.6 1.8-0.1 2.8z"/>
			<path class="st29" d="m232.9 98.8c-0.9 0.7-2.3 0.4-2.3 0.4 2.6-0.8 1-3.4 0.4-4.3 0.8 0.2 1.6 0.6 1.9 1.1 0.5 0.9 0.7 1.8 0 2.8z"/>
			
				
					<linearGradient id="bu" x1="188.24" x2="196.12" y1="66.872" y2="92.84" gradientTransform="matrix(.9977 -.068 .068 .9977 -9.1769 14.735)" gradientUnits="userSpaceOnUse">
					<stop stop-color="#CE1D3B" offset="0"/>
					<stop stop-color="#ED202E" offset="1"/>
				</linearGradient>
				<path d="m188.4 65.9s-4.7 2.1-4.1 12.5 9.1 15.8 9.1 15.8l0.2 2.2s-6.6-2.1-10.4-10.5c-3.7-8.4-0.8-18.9 5-21.1l0.2 1.1z" fill="url(#bu)"/>
				
					<linearGradient id="az" x1="222.51" x2="227.34" y1="55.168" y2="77.351" gradientTransform="matrix(.9977 -.068 .068 .9977 -9.1769 14.735)" gradientUnits="userSpaceOnUse">
					<stop stop-color="#CE1D3B" offset="0"/>
					<stop stop-color="#ED202E" offset="1"/>
				</linearGradient>
				<path d="m216.6 58.7s6 2.3 8.6 10.5-2.1 13.9-6.7 17.5l1.5 3.5s8.2-5 9-13.7-5.3-16.9-11.3-20.2l-1.1 2.4z" fill="url(#az)"/>
				
					<linearGradient id="ao" x1="194.95" x2="218.19" y1="93.86" y2="92.389" gradientTransform="matrix(.9977 -.068 .068 .9977 -9.1769 14.735)" gradientUnits="userSpaceOnUse">
					<stop stop-color="#A193AD" offset="0"/>
					<stop stop-color="#CEC4D6" offset=".9961"/>
				</linearGradient>
				<path d="m221.6 102.5c0 0.5-4.2 1.2-5.8 1.5-6.4 1.2-13 2-19.8 2.5-0.2 0-0.5-0.1-0.5-0.4-1.7-5.2-2.8-10.6-3.5-16.1-0.2-1.6-0.4-3.3-0.5-4.9 0-0.5 0.3-1 0.8-1.1 8.7-2.5 17.4-3.9 26-3.9 0.5 0 0.9 0.4 1.1 0.9 1.4 6.2 2.5 18 2.2 21.5z" fill="url(#ao)"/>
				
					<linearGradient id="ag" x1="211.71" x2="208.53" y1="102.41" y2="77.855" gradientTransform="matrix(.9977 -.068 .068 .9977 -9.1769 14.735)" gradientUnits="userSpaceOnUse">
					<stop stop-color="#E1DAE5" offset="0"/>
					<stop stop-color="#F7F4F9" offset="1"/>
				</linearGradient>
				<path d="m221.4 101.1c0 0.5-4.2 1.2-5.8 1.5-6.4 1.2-13 2-19.8 2.5-0.2 0-0.5-0.1-0.5-0.4-1.7-5.2-2.8-10.6-3.5-16.1-0.2-1.6-0.4-3.3-0.5-4.9 0-0.5 0.3-1 0.8-1.1 8.7-2.5 17.4-3.9 26-3.9 0.5 0 0.9 0.4 1.1 0.9 1.3 6.2 2.4 18 2.2 21.5z" fill="url(#ag)"/>
				
					<linearGradient id="x" x1="196.06" x2="208.79" y1="104.96" y2="93.394" gradientTransform="matrix(.9977 -.068 .068 .9977 -9.1769 14.735)" gradientUnits="userSpaceOnUse">
					<stop stop-color="#CEC4D6" offset="0"/>
					<stop stop-color="#CEC4D6" stop-opacity="0" offset=".9961"/>
				</linearGradient>
				<path d="m215.6 102.6c-6.4 1.2-12.9 2-19.5 2.5-0.4 0-0.8-0.2-0.9-0.6-1.6-5.2-2.7-10.5-3.4-15.9 3.4 5.9 11 15.3 23.8 14z" fill="url(#x)"/>
				
					<linearGradient id="bh" x1="202.11" x2="200.43" y1="99.952" y2="88.597" gradientTransform="matrix(.9977 -.068 .068 .9977 -9.1769 14.735)" gradientUnits="userSpaceOnUse">
					<stop stop-color="#34254C" offset="0"/>
					<stop stop-color="#432A68" offset="1"/>
				</linearGradient>
				<path d="m195 86.9s1.4 9.2 2.9 14.5l1.9-0.3s-1.6-9.2-2-14.9l-2.8 0.7z" fill="url(#bh)"/>
				
					<linearGradient id="l" x1="209.67" x2="207.98" y1="98.831" y2="87.477" gradientTransform="matrix(.9977 -.068 .068 .9977 -9.1769 14.735)" gradientUnits="userSpaceOnUse">
					<stop stop-color="#34254C" offset="0"/>
					<stop stop-color="#432A68" offset="1"/>
				</linearGradient>
				<path d="m202.6 85.3s1.3 10 2.6 14.8l2.2-0.3s-1.6-9.4-2-15l-2.8 0.5z" fill="url(#l)"/>
				
					<linearGradient id="ae" x1="204.76" x2="203.94" y1="95.418" y2="86.75" gradientTransform="matrix(.9977 -.068 .068 .9977 -9.1769 14.735)" gradientUnits="userSpaceOnUse">
					<stop stop-color="#A193AD" offset="0"/>
					<stop stop-color="#CEC4D6" offset=".9961"/>
				</linearGradient>
				<path d="m199.3 87.3s0.4 3.5 0.9 5.8l1.9-0.3-0.9-5.8c-0.1 0-1.2 0.1-1.9 0.3z" fill="url(#ae)"/>
				
					<linearGradient id="aj" x1="215.29" x2="218.24" y1="89.075" y2="85.921" gradientTransform="matrix(.9977 -.068 .068 .9977 -9.1769 14.735)" gradientUnits="userSpaceOnUse">
					<stop stop-color="#3492B7" offset="0"/>
					<stop stop-color="#4CC8E5" offset="1"/>
				</linearGradient>
				<path d="m215.2 86.6c0.1 0.9-0.6 1.7-1.5 1.8s-1.7-0.6-1.8-1.5 0.6-1.7 1.5-1.8 1.7 0.6 1.8 1.5z" fill="url(#aj)"/>
				
					<linearGradient id="bl" x1="216.26" x2="219.58" y1="94.032" y2="94.032" gradientTransform="matrix(.9977 -.068 .068 .9977 -9.1769 14.735)" gradientUnits="userSpaceOnUse">
					<stop stop-color="#D733DB" offset="0"/>
					<stop stop-color="#F43EF9" offset="1"/>
				</linearGradient>
				<path d="m216.3 93.6c0.1 0.9-0.6 1.7-1.5 1.8s-1.7-0.6-1.8-1.5 0.6-1.7 1.5-1.8 1.7 0.6 1.8 1.5z" fill="url(#bl)"/>
			
			
				<linearGradient id="ad" x1="216.84" x2="222.97" y1="74.901" y2="73.314" gradientTransform="matrix(.9977 -.068 .068 .9977 -9.1769 14.735)" gradientUnits="userSpaceOnUse">
				<stop stop-color="#1E45A5" offset="0"/>
				<stop stop-color="#2265C6" offset="1"/>
			</linearGradient>
			<path d="m219.6 73.2c0.1 1.9-1.3 3.5-3.2 3.6s-3.5-1.3-3.6-3.2 1.3-3.5 3.2-3.6 3.5 1.3 3.6 3.2z" fill="url(#ad)"/>
			
				<linearGradient id="bg" x1="191.05" x2="202.61" y1="79.109" y2="76.27" gradientTransform="matrix(.9977 -.068 .068 .9977 -9.1769 14.735)" gradientUnits="userSpaceOnUse">
				<stop stop-color="#34254C" offset="0"/>
				<stop stop-color="#51397F" offset="1"/>
			</linearGradient>
			<path d="m190.7 81.6c1.5-0.4 5.3-1.1 9.4-2 0.9-0.2 0.9-0.9 0.8-1.3l-0.8-2.6c-0.1-0.4-0.5-0.7-0.9-0.6-1.9 0.3-6.7 0.6-9.6 1.6-0.4 0.1-0.8 0.2-0.6 1.4 0.1 0.7 0.4 1.9 0.7 3 0.2 0.3 0.6 0.6 1 0.5z" fill="url(#bg)"/>
			
				
					<linearGradient id="t" x1="193.62" x2="224.15" y1="64.338" y2="64.338" gradientTransform="matrix(.9977 -.068 .068 .9977 -9.1769 14.735)" gradientUnits="userSpaceOnUse">
					<stop stop-color="#34254C" offset="0"/>
					<stop stop-color="#51397F" offset="1"/>
				</linearGradient>
				<path d="m188.4 65.9s0.7 2.5 1.6 3.7c0 0 16.2 7.4 28.7-7.3 0 0-0.9-3.4-1.9-4.9 0-0.1-7.5 12.4-28.4 8.5z" fill="url(#t)"/>
				
					<linearGradient id="al" x1="189.96" x2="186.59" y1="55.733" y2="56.574" gradientTransform="matrix(.9977 -.068 .068 .9977 -9.1769 14.735)" gradientUnits="userSpaceOnUse">
					<stop stop-color="#E1DAE5" offset="0"/>
					<stop stop-color="#F7F4F9" offset="1"/>
				</linearGradient>
				<path d="m182.2 51s-3.2 1.8-3.6 2.1c-1 0.7 2.9 11.5 4.3 11.6 0.8 0 3.7-1 3.7-1l-4.4-12.7z" fill="url(#al)"/>
				<path class="st44" d="m181.2 54.2c0 0.3-0.2 0.6-0.6 0.7-0.3 0-0.6-0.2-0.7-0.6 0-0.3 0.2-0.6 0.6-0.7 0.4 0 0.7 0.3 0.7 0.6z"/>
				
					<linearGradient id="aq" x1="224.16" x2="227.11" y1="47.373" y2="46.764" gradientTransform="matrix(.9977 -.068 .068 .9977 -9.1769 14.735)" gradientUnits="userSpaceOnUse">
					<stop stop-color="#E1DAE5" offset="0"/>
					<stop stop-color="#F7F4F9" offset="1"/>
				</linearGradient>
				<path d="m214.7 40.6s3.6-0.5 4.2-0.5c1.2 0 4.6 10.9 3.5 11.8-0.7 0.5-3.6 1.4-3.6 1.4l-4.1-12.7z" fill="url(#aq)"/>
				<path class="st44" d="m217.5 42.6c0.2 0.3 0.6 0.4 0.9 0.2s0.4-0.6 0.2-0.9-0.6-0.4-0.9-0.2-0.4 0.6-0.2 0.9z"/>
				
					<linearGradient id="bc" x1="197.5" x2="207.27" y1="32.94" y2="32.94" gradientTransform="matrix(.9977 -.068 .068 .9977 -9.1769 14.735)" gradientUnits="userSpaceOnUse">
					<stop stop-color="#E1DAE5" offset="0"/>
					<stop stop-color="#F7F4F9" offset="1"/>
				</linearGradient>
				<path d="m190.5 35.9-0.4-1.3c2.4-1.9 5.4-2.8 9-2.8l0.7 1.7-9.3 2.4z" fill="url(#bc)"/>
				
					<linearGradient id="y" x1="191.5" x2="224.61" y1="51.838" y2="40.694" gradientTransform="matrix(.9977 -.068 .068 .9977 -9.1769 14.735)" gradientUnits="userSpaceOnUse">
					<stop stop-color="#E1DAE5" offset="0"/>
					<stop stop-color="#F7F4F9" offset="1"/>
				</linearGradient>
				<path d="m219.2 55.4-7.9 2.5-23.8 7.7c-9.2-10-7-26.2 5.1-31.2 0.6-0.2 1.1-0.4 1.7-0.6 13.4-4.2 26 6.4 24.9 21.6z" fill="url(#y)"/>
				
					<linearGradient id="j" x1="200.04" x2="208.24" y1="61.891" y2="32.822" gradientTransform="matrix(.9977 -.068 .068 .9977 -9.1769 14.735)" gradientUnits="userSpaceOnUse">
					<stop stop-color="#C8B8D3" offset="0"/>
					<stop stop-color="#C8B8D3" stop-opacity="0" offset="1"/>
				</linearGradient>
				<path d="m211.3 58-23.8 7.7c-9.2-10-7-26.2 5.1-31.2 0.6-0.2 1.1-0.4 1.7-0.6-8.1 3.4-8.9 8.8-1.6 6.6s12.5-0.8 12.5-0.8l6.1 18.3z" fill="url(#j)"/>
				
					<linearGradient id="bo" x1="199.47" x2="216.81" y1="66.467" y2="62.157" gradientTransform="matrix(.9977 -.068 .068 .9977 -9.1769 14.735)" gradientUnits="userSpaceOnUse">
					<stop stop-color="#E1DAE5" offset="0"/>
					<stop stop-color="#F7F4F9" offset="1"/>
				</linearGradient>
				<path d="m219.2 55.4s-2.8 10-14.3 12.7-17.4-2.4-17.4-2.4l31.7-10.3z" fill="url(#bo)"/>
				
					<linearGradient id="ab" x1="189.18" x2="229.24" y1="55.573" y2="48.424" gradientTransform="matrix(.9977 -.068 .068 .9977 -9.1769 14.735)" gradientUnits="userSpaceOnUse">
					<stop stop-color="#201D21" offset="0"/>
					<stop stop-color="#524B56" offset="1"/>
				</linearGradient>
				<path d="m219.2 55.4s-2.2 3.8-6.9 7c-5.1 3.5-13.2 6.4-24.8 3.2-5.1-9.5-2.1-19.1 5-23.7 0.5-0.3 1.1-0.7 1.7-0.9 8.8-4.3 22.1-0.9 25 14.4z" fill="url(#ab)"/>
				
					<linearGradient id="ba" x1="183.84" x2="202.55" y1="54.553" y2="53.518" gradientTransform="matrix(.9977 -.068 .068 .9977 -9.1769 14.735)" gradientUnits="userSpaceOnUse">
					<stop stop-color="#111011" offset="0"/>
					<stop stop-color="#111011" stop-opacity="0" offset="1"/>
				</linearGradient>
				<path d="m212.3 62.4c-5.1 3.5-13.2 6.4-24.8 3.2-5.1-9.5-2.1-19.1 5-23.7-0.9 2.2-2.1 6.7-1.1 13.6 1.5 10.4 8.6 13.5 20.9 6.9z" fill="url(#ba)"/>
				
					<linearGradient id="b" x1="211.36" x2="216.62" y1="38.463" y2="53.916" gradientTransform="matrix(.9977 -.068 .068 .9977 -9.1769 14.735)" gradientUnits="userSpaceOnUse">
					<stop stop-color="#EDE7F2" offset="0"/>
					<stop stop-color="#EDE7F2" stop-opacity="0" offset="1"/>
				</linearGradient>
				<path d="m199.1 41s9.9-1.7 15.4 7.4c0.4 0.7 0.3 1.7-0.4 2.2-0.8 0.6-1.9 0.3-2.3-0.5-1.6-2.7-5.3-7.6-12.7-9.1z" fill="url(#b)"/>
				
					<linearGradient id="w" x1="218.73" x2="223.98" y1="50.431" y2="57.686" gradientTransform="matrix(.9977 -.068 .068 .9977 -9.1769 14.735)" gradientUnits="userSpaceOnUse">
					<stop stop-color="#EDE7F2" offset="0"/>
					<stop stop-color="#EDE7F2" stop-opacity="0" offset="1"/>
				</linearGradient>
				<path d="m216.1 52.6c0.3 0.6 0.1 1.4-0.5 1.7s-1.4 0.1-1.7-0.5-0.1-1.4 0.5-1.7 1.3-0.1 1.7 0.5z" fill="url(#w)"/>
			
			
				<path class="st54" d="m236.5 126.2c-0.5 1-1.3 1.5-2.1 2.5-3.2 3.9-5.6 8.6-6.7 10.8-0.9-1.2-1.6-2.4-2.1-3.2 0.3-1.4 1.2-4.1 3.1-7.2 4.1-0.8 7.7-2.8 7.8-2.9z"/>
				
					<linearGradient id="bf" x1="229.58" x2="250.43" y1="124.89" y2="124.89" gradientTransform="matrix(.9977 -.068 .068 .9977 -9.1769 14.735)" gradientUnits="userSpaceOnUse">
					<stop stop-color="#34254C" offset="0"/>
					<stop stop-color="#51397F" offset="1"/>
				</linearGradient>
				<path d="m249 119.9c-2.1 0.3-5.6 1.3-9.6 4-1.8 1.2-3.5 2.9-5 4.8 0.6-0.8 1.2-1.1 1.8-2.1-0.1 0.1-3.4 1.7-7.4 2.5 0.8-1.3 1.8-2.7 3-4 5.4-6.2 14.6-8 14.6-8 0.6 0.4 1.6 1.4 2.6 2.8z" fill="url(#bf)"/>
				<path class="st54" d="m194.7 142.1c-0.1 0-0.2 0.1-0.2 0.1-0.2 1.3-0.5 2.5-0.8 3.6-0.8-1.2-2-2.8-3.8-4.5 0.2-0.2 0.5-0.4 0.7-0.5 0.6-0.4 1.2-0.9 1.8-1.5 1 1.2 1.8 2.2 2.3 2.8z"/>
				
					<linearGradient id="d" x1="189.84" x2="168.31" y1="139.14" y2="125.66" gradientTransform="matrix(.9977 -.068 .068 .9977 -9.1769 14.735)" gradientUnits="userSpaceOnUse">
					<stop stop-color="#34254C" offset="0"/>
					<stop stop-color="#51397F" offset="1"/>
				</linearGradient>
				<path d="m192.4 139.3c-0.6 0.6-1.1 1-1.8 1.5-0.2 0.2-0.5 0.3-0.7 0.5-1.6-1.5-3.6-3-6.2-4.5-6.6-3.7-12.4-3.2-15.4-2.5 0.2-0.7 0.5-1.3 0.8-1.9s0.7-1.1 1-1.6v-0.1l0.2-0.2c0.1-0.1 0.2-0.2 0.3-0.4 0.5-0.1 1.2-0.2 1.9-0.2 2.7-0.2 6.5 0 10.2 1.7 3.9 1.9 7.4 5.2 9.7 7.7z" fill="url(#d)"/>
				<path class="st54" d="m241.3 91.3c-0.4 0.2-0.8 0.4-1.3 0.6-0.3 0.1-0.7 0.2-1 0.3-1.1-1.5-2-3-2.7-4.5 0.9-0.1 1.7-0.3 2.5-0.5 0.9 1.9 1.8 3.2 2.5 4.1z"/>
				
					<linearGradient id="bm" x1="241.21" x2="239" y1="91.131" y2="71.734" gradientTransform="matrix(.9977 -.068 .068 .9977 -9.1769 14.735)" gradientUnits="userSpaceOnUse">
					<stop stop-color="#34254C" offset="0"/>
					<stop stop-color="#51397F" offset="1"/>
				</linearGradient>
				<path d="m238.8 87.2c-0.8 0.3-1.6 0.4-2.5 0.5-3.3-7-2.8-13.9-2.2-17.3 0.6-0.5 1.2-0.8 1.8-1.1-0.6 3.4-0.4 9.7 1.7 15.1 0.4 1.1 0.8 2 1.2 2.8z" fill="url(#bm)"/>
				<path class="st54" d="m176.5 98.5c-0.5 2.4-1.2 4.1-1.8 5.2-1.3 0.3-2.6 0.3-3.9 0.2 1.3-1.5 2.3-3.1 3-4.7 1.1-0.1 2-0.4 2.7-0.7z"/>
				
					<linearGradient id="be" x1="176.82" x2="180.49" y1="89.142" y2="89.142" gradientTransform="matrix(.9977 -.068 .068 .9977 -9.1769 14.735)" gradientUnits="userSpaceOnUse">
					<stop stop-color="#34254C" offset="0"/>
					<stop stop-color="#51397F" offset="1"/>
				</linearGradient>
				<path d="m176.5 98.5c-0.7 0.3-1.7 0.5-2.7 0.6 2.3-5.6 1.3-11.6 0.7-13.9 0.4 0.4 0.6 0.7 0.6 0.8 0.1-0.8 0.3-1.5 0.5-1.9 0-0.1 0.1-0.1 0.1-0.2 1.6 6.4 1.5 11.2 0.8 14.6z" fill="url(#be)"/>
			
			
				<linearGradient id="am" x1="191.26" x2="202.83" y1="78.718" y2="75.88" gradientTransform="matrix(.9977 -.068 .068 .9977 -9.1769 14.735)" gradientUnits="userSpaceOnUse">
				<stop stop-color="#A193AD" offset="0"/>
				<stop stop-color="#CEC4D6" offset=".9961"/>
			</linearGradient>
			<path d="m190.8 80.9c1.5-0.4 5.5-1.3 9.4-2 0.4-0.1 0.7-0.5 0.6-0.9l-0.6-3c-0.1-0.4-0.5-0.7-0.9-0.6-1.9 0.3-6.7 1.2-9.7 2.1-0.4 0.1-0.6 0.5-0.5 0.9 0.1 0.7 0.4 1.9 0.7 3 0.2 0.4 0.6 0.6 1 0.5z" fill="url(#am)"/>
			
				
					<linearGradient id="ah" x1="174.7" x2="156.09" y1="89.768" y2="71.317" gradientTransform="matrix(.9977 -.068 .068 .9977 -9.1769 14.735)" gradientUnits="userSpaceOnUse">
					<stop stop-color="#E1DAE5" offset="0"/>
					<stop stop-color="#F7F4F9" offset="1"/>
				</linearGradient>
				<path d="m165.7 97.6c-1.6 0.6-3.1 0.9-4.5 0.9-3.2 0-5.3-1.1-5.3-1.1s-0.1 0.3-0.6 0.6c-0.6 0.3-1.8 0.7-4.1 0.4-4-0.5-5.4-2.6-5.3-4.2 0-0.5 0.3-0.8 0.7-1 1-0.6 2.8-0.8 3.6-0.8 1.1-0.1 1.4-0.4 0.9-1.2l-0.1-0.1c-0.7-0.7-2.9-0.7-4.1-1.3-1.3-0.7-2.1-2.4-2-4.1 0-0.9 0.8-1.3 1.8-1.5 1.1-0.2 2.4 0 3.5 0.5 2.1 1 2.9 0.6 3-0.5 0.1-0.8-1.6-1.9-3.1-2.9-0.6-0.4-1.2-0.8-1.6-1.2-1.5-1.3-0.6-4.1 2.1-4.6 0.3-0.1 0.5 0 0.8 0 2.1 0.4 3 4 4.2 3.5 1.4-0.6 0.4-1.8-1.5-3.7-0.2-0.3-0.5-0.5-0.7-0.8-1.6-1.9-3-4.6-1.2-5.9 0.4-0.3 0.9-0.4 1.5-0.3 2.3 0.4 5.6 3.9 7.6 8.2 0.7 1.6 1.3 2.5 1.7 3.1 0.7 1 1.1 0.9 1.2 0.7l0.1-0.1c0.5-0.7 0.8-5.5 1.1-8.5 0-0.5 0.1-1 0.2-1.4 0.4-2.3 1.2-4.1 2.6-4.5 0.3-0.1 0.5-0.1 0.7-0.1 1.2 0 1.9 1 2.2 3.4 0.1 0.6 0.1 1.2 0.1 1.7-0.1 2-0.8 3.9-0.8 6.2 0 3 1.8 6.2 2.4 10.1 0.1 3.7-1.7 8.4-7.1 10.5z" fill="url(#ah)"/>
				
					<linearGradient id="i" x1="156.07" x2="161.27" y1="67.289" y2="67.289" gradientTransform="matrix(.9977 -.068 .068 .9977 -9.1769 14.735)" gradientUnits="userSpaceOnUse">
					<stop stop-color="#E1DAE5" offset="0"/>
					<stop stop-color="#F7F4F9" offset="1"/>
				</linearGradient>
				<path d="m156.4 72.5c-0.2 1.7-2 1.8-3.3 1.7-0.2-0.2-0.4-0.4-0.5-0.7-1.4-1.8-2.3-4.1-0.7-5.3 0.4-0.3 0.9-0.4 1.5-0.3 0.5 0.6 1.5 1.4 2.2 2.3 0.5 0.8 0.9 1.5 0.8 2.3z" fill="url(#i)"/>
				
					<linearGradient id="ai" x1="152.09" x2="157.66" y1="74.163" y2="74.163" gradientTransform="matrix(.9977 -.068 .068 .9977 -9.1769 14.735)" gradientUnits="userSpaceOnUse">
					<stop stop-color="#E1DAE5" offset="0"/>
					<stop stop-color="#F7F4F9" offset="1"/>
				</linearGradient>
				<path d="m153.2 78.9c-0.3 1-1.3 2.6-3.2 2.2-0.5-0.4-1-0.7-1.4-1-0.1-0.1-0.2-0.1-0.2-0.2-1.5-1.3-0.6-4.1 2.1-4.6 0.3-0.1 0.5 0 0.8 0 0.4 0.4 1.1 1.2 1.5 2 0.3 0.5 0.5 1.1 0.4 1.6z" fill="url(#ai)"/>
				
					<linearGradient id="bj" x1="148.74" x2="156.86" y1="83.336" y2="83.336" gradientTransform="matrix(.9977 -.068 .068 .9977 -9.1769 14.735)" gradientUnits="userSpaceOnUse">
					<stop stop-color="#E1DAE5" offset="0"/>
					<stop stop-color="#F7F4F9" offset="1"/>
				</linearGradient>
				<path d="m151.8 91c-0.2 0-0.5 0-0.9-0.1-0.5-0.1-1-0.2-1.5-0.4-1-0.3-1.8-0.5-2.6-1-1.3-0.7-2.1-2.4-2-4.1 0-0.9 0.8-1.3 1.8-1.5 0.7 0.6 2 1.6 2.9 2 0.3 0.1 0.6 0.2 0.9 0.4 1.2 0.6 2.4 1.3 2.6 2.1 0.2 0.9 0.2 2.3-1.2 2.6z" fill="url(#bj)"/>
				
					<linearGradient id="bk" x1="149.23" x2="159.2" y1="91.562" y2="91.562" gradientTransform="matrix(.9977 -.068 .068 .9977 -9.1769 14.735)" gradientUnits="userSpaceOnUse">
					<stop stop-color="#E1DAE5" offset="0"/>
					<stop stop-color="#F7F4F9" offset="1"/>
				</linearGradient>
				<path d="m155.2 97.9c-0.6 0.3-1.6 0.6-3.5 0.5-0.2 0-0.4 0-0.6-0.1-4-0.5-5.4-2.6-5.3-4.2 0-0.5 0.3-0.8 0.7-1 0.1 0 1.7-0.6 5.5 0.9 0.1 0 0.2 0.1 0.3 0.1 3.6 1.6 4.5 2.7 2.9 3.8z" fill="url(#bk)"/>
				
					<linearGradient id="ac" x1="168.43" x2="164.17" y1="71.116" y2="86.886" gradientTransform="matrix(.9977 -.068 .068 .9977 -9.1769 14.735)" gradientUnits="userSpaceOnUse">
					<stop stop-color="#C8B8D3" offset="0"/>
					<stop stop-color="#C8B8D3" stop-opacity=".3" offset="1"/>
				</linearGradient>
				<path d="m161.3 90.4c-0.1-0.2-3.1-6 1.3-11.1 0.7 1 1.1 0.9 1.2 0.7l0.1 0.2c0 0.1-4.1 6-2.6 10.2z" fill="url(#ac)"/>
				
					<linearGradient id="ax" x1="180.64" x2="168.03" y1="87.074" y2="78.032" gradientTransform="matrix(.9977 -.068 .068 .9977 -9.1769 14.735)" gradientUnits="userSpaceOnUse">
					<stop stop-color="#C8B8D3" offset="0"/>
					<stop stop-color="#C8B8D3" stop-opacity=".3" offset="1"/>
				</linearGradient>
				<path d="m165.7 97.6c-1.6 0.6-3.1 0.9-4.5 0.9 9.7-2.2 8.5-11.3 7.3-14.1-1.3-3.2-1.6-7.8 0.1-12.5 1.3-3.5 0.4-5.6-0.1-6.4 1.2 0 1.9 1 2.2 3.4 0.1 0.6 0.1 1.2 0.1 1.7-0.1 2-0.8 3.9-0.8 6.2 0 3 1.8 6.2 2.4 10.1 0.5 3.9-1.3 8.6-6.7 10.7z" fill="url(#ax)"/>
				
					<linearGradient id="bn" x1="172.61" x2="173.66" y1="69.161" y2="63.379" gradientTransform="matrix(.9977 -.068 .068 .9977 -9.1769 14.735)" gradientUnits="userSpaceOnUse">
					<stop stop-color="#34254C" offset="0"/>
					<stop stop-color="#51397F" offset="1"/>
				</linearGradient>
				<path d="m170.7 70.5c-2.4 1.1-4.5 0.2-5.5-0.5 0.4-2.3 1.2-4.1 2.6-4.5 1.7-0.4 2.6 0.5 2.9 3.3v1.7z" fill="url(#bn)"/>
				
					<linearGradient id="as" x1="157.38" x2="161.27" y1="68.568" y2="68.568" gradientTransform="matrix(.9977 -.068 .068 .9977 -9.1769 14.735)" gradientUnits="userSpaceOnUse">
					<stop stop-color="#34254C" offset="0"/>
					<stop stop-color="#51397F" offset="1"/>
				</linearGradient>
				<path d="m156.4 72.5c-0.2 1.7-3.4 2.5-3.8 1.1 0.3-3.1 2.1-3.4 3-3.2 0.5 0.6 0.9 1.3 0.8 2.1z" fill="url(#as)"/>
				
					<linearGradient id="bd" x1="152.8" x2="157.61" y1="74.774" y2="74.774" gradientTransform="matrix(.9977 -.068 .068 .9977 -9.1769 14.735)" gradientUnits="userSpaceOnUse">
					<stop stop-color="#34254C" offset="0"/>
					<stop stop-color="#51397F" offset="1"/>
				</linearGradient>
				<path d="m153.2 78.9c-0.1 2.5-3.7 2.9-4.6 1.1-0.3-0.8-0.3-1.7 0.4-2.6 1.6-2 3.7-0.3 3.8-0.2 0.3 0.6 0.4 1.2 0.4 1.7z" fill="url(#bd)"/>
				
					<linearGradient id="f" x1="152.96" x2="156.86" y1="84.631" y2="84.631" gradientTransform="matrix(.9977 -.068 .068 .9977 -9.1769 14.735)" gradientUnits="userSpaceOnUse">
					<stop stop-color="#34254C" offset="0"/>
					<stop stop-color="#51397F" offset="1"/>
				</linearGradient>
				<path d="m151.8 91c-0.2 0-0.5 0-0.9-0.1-0.5-0.1-1-0.2-1.5-0.4-0.6-2.2 0.3-3.6 1-4.3 1.2 0.6 2.4 1.3 2.6 2.1 0.2 1 0.2 2.4-1.2 2.7z" fill="url(#f)"/>
				
					<linearGradient id="ap" x1="154.44" x2="159.2" y1="92.344" y2="92.344" gradientTransform="matrix(.9977 -.068 .068 .9977 -9.1769 14.735)" gradientUnits="userSpaceOnUse">
					<stop stop-color="#34254C" offset="0"/>
					<stop stop-color="#51397F" offset="1"/>
				</linearGradient>
				<path d="m155.2 97.9c-0.6 0.3-1.6 0.6-3.5 0.5-0.4-0.6-0.7-1.6-0.4-2.6 0.2-0.9 0.7-1.4 1-1.6 3.6 1.5 4.5 2.6 2.9 3.7z" fill="url(#ap)"/>
			
			
				
					<linearGradient id="ar" x1="-509.85" x2="-528.46" y1="104.56" y2="86.109" gradientTransform="matrix(-.9929 .1187 .1187 .9929 -280.15 39.318)" gradientUnits="userSpaceOnUse">
					<stop stop-color="#E1DAE5" offset="0"/>
					<stop stop-color="#F7F4F9" offset="1"/>
				</linearGradient>
				<path d="m244.9 86.7c1.7 0.3 3.3 0.3 4.6 0 3.1-0.6 5-2.1 5-2.1s0.2 0.3 0.7 0.4c0.7 0.2 1.9 0.3 4.1-0.4 3.8-1.3 4.8-3.6 4.5-5.1-0.1-0.4-0.4-0.7-0.9-0.9-1.1-0.4-2.9-0.2-3.7-0.1-1.1 0.1-1.4-0.1-1.1-1 0 0 0-0.1 0.1-0.1 0.5-0.8 2.7-1.2 3.8-2.1 1.2-0.9 1.6-2.7 1.2-4.4-0.2-0.8-1-1.2-2.1-1.1-1.1 0-2.4 0.5-3.3 1.1-1.9 1.3-2.7 1.1-3 0-0.2-0.8 1.2-2.1 2.5-3.4 0.5-0.5 1-1 1.4-1.5 1.2-1.6-0.2-4.1-2.9-4.1-0.3 0-0.5 0.1-0.8 0.1-2 0.8-2.2 4.4-3.5 4.2-1.5-0.3-0.7-1.7 0.8-3.9l0.6-0.9c1.2-2.2 2.1-5 0.1-6-0.5-0.2-1-0.2-1.5 0-2.2 0.8-4.8 4.9-5.9 9.5-0.4 1.7-0.8 2.7-1.1 3.4-0.5 1.1-0.9 1.1-1 1-0.1 0-0.1-0.1-0.1-0.1-0.6-0.6-1.8-5.3-2.6-8.2-0.1-0.5-0.3-0.9-0.4-1.4-0.8-2.2-1.9-3.8-3.4-3.9h-0.7c-1.2 0.2-1.7 1.3-1.5 3.7 0 0.6 0.1 1.2 0.3 1.7 0.5 2 1.5 3.7 1.9 6 0.5 3-0.7 6.4-0.5 10.4 0 3.9 2.7 8.1 8.4 9.2z" fill="url(#ar)"/>
				
					<linearGradient id="u" x1="-528.48" x2="-523.28" y1="82.081" y2="82.081" gradientTransform="matrix(-.9929 .1187 .1187 .9929 -280.15 39.318)" gradientUnits="userSpaceOnUse">
					<stop stop-color="#E1DAE5" offset="0"/>
					<stop stop-color="#F7F4F9" offset="1"/>
				</linearGradient>
				<path d="m249.4 60.3c0.5 1.6 2.3 1.4 3.5 1.1 0.1-0.2 0.3-0.5 0.4-0.7 1-2.1 1.5-4.4-0.3-5.3-0.5-0.2-1-0.2-1.5 0-0.4 0.7-1.2 1.6-1.8 2.7-0.4 0.6-0.6 1.4-0.3 2.2z" fill="url(#u)"/>
				
					<linearGradient id="z" x1="-532.46" x2="-526.89" y1="88.955" y2="88.955" gradientTransform="matrix(-.9929 .1187 .1187 .9929 -280.15 39.318)" gradientUnits="userSpaceOnUse">
					<stop stop-color="#E1DAE5" offset="0"/>
					<stop stop-color="#F7F4F9" offset="1"/>
				</linearGradient>
				<path d="m253.7 66c0.5 1 1.8 2.3 3.5 1.5 0.4-0.4 0.9-0.9 1.2-1.3 0.1-0.1 0.1-0.2 0.2-0.2 1.2-1.6-0.2-4.1-2.9-4.1-0.3 0-0.5 0.1-0.8 0.1-0.3 0.5-0.8 1.4-1.1 2.2-0.2 0.7-0.3 1.3-0.1 1.8z" fill="url(#z)"/>
				
					<linearGradient id="bq" x1="-535.8" x2="-527.69" y1="98.129" y2="98.129" gradientTransform="matrix(-.9929 .1187 .1187 .9929 -280.15 39.318)" gradientUnits="userSpaceOnUse">
					<stop stop-color="#E1DAE5" offset="0"/>
					<stop stop-color="#F7F4F9" offset="1"/>
				</linearGradient>
				<path d="m257.3 77.6c0.2 0 0.5-0.1 0.9-0.2 0.5-0.2 1-0.4 1.4-0.6 0.9-0.4 1.7-0.9 2.4-1.5 1.2-0.9 1.6-2.7 1.2-4.4-0.2-0.8-1-1.2-2.1-1.1-0.6 0.7-1.6 1.9-2.5 2.5-0.3 0.2-0.5 0.3-0.8 0.5-1.1 0.8-2.1 1.8-2.2 2.5 0 0.9 0.3 2.3 1.7 2.3z" fill="url(#bq)"/>
				
					<linearGradient id="bb" x1="-535.32" x2="-525.35" y1="106.36" y2="106.36" gradientTransform="matrix(-.9929 .1187 .1187 .9929 -280.15 39.318)" gradientUnits="userSpaceOnUse">
					<stop stop-color="#E1DAE5" offset="0"/>
					<stop stop-color="#F7F4F9" offset="1"/>
				</linearGradient>
				<path d="m255.2 85c0.6 0.2 1.7 0.3 3.5-0.2 0.2 0 0.4-0.1 0.5-0.2 3.8-1.3 4.8-3.6 4.5-5.1-0.1-0.4-0.4-0.7-0.9-0.9-0.1 0-1.8-0.3-5.2 1.9-0.1 0.1-0.2 0.1-0.3 0.2-3.2 2.3-3.9 3.5-2.1 4.3z" fill="url(#bb)"/>
				
					<linearGradient id="aa" x1="-516.12" x2="-520.37" y1="85.908" y2="101.68" gradientTransform="matrix(-.9929 .1187 .1187 .9929 -280.15 39.318)" gradientUnits="userSpaceOnUse">
					<stop stop-color="#C8B8D3" offset="0"/>
					<stop stop-color="#C8B8D3" stop-opacity=".3" offset="1"/>
				</linearGradient>
				<path d="m247.9 78.8c0.1-0.2 1.9-6.5-3.4-10.6-0.5 1.1-0.9 1.1-1 1l-0.1 0.2c0-0.1 5.2 5 4.5 9.4z" fill="url(#aa)"/>
				
					<linearGradient id="bi" x1="-503.91" x2="-516.52" y1="101.87" y2="92.824" gradientTransform="matrix(-.9929 .1187 .1187 .9929 -280.15 39.318)" gradientUnits="userSpaceOnUse">
					<stop stop-color="#C8B8D3" offset="0"/>
					<stop stop-color="#C8B8D3" stop-opacity=".3" offset="1"/>
				</linearGradient>
				<path d="m244.9 86.7c1.7 0.3 3.3 0.3 4.6 0-9.9-0.4-10.4-9.5-9.8-12.5 0.7-3.4 0.2-8-2.4-12.3-1.9-3.2-1.4-5.4-1.1-6.4-1.2 0.2-1.7 1.3-1.5 3.7 0 0.6 0.1 1.2 0.3 1.7 0.5 2 1.5 3.7 1.9 6 0.5 3-0.7 6.4-0.5 10.4 0.1 4.1 2.8 8.3 8.5 9.4z" fill="url(#bi)"/>
				
					<linearGradient id="ay" x1="-511.94" x2="-510.89" y1="83.953" y2="78.17" gradientTransform="matrix(-.9929 .1187 .1187 .9929 -280.15 39.318)" gradientUnits="userSpaceOnUse">
					<stop stop-color="#34254C" offset="0"/>
					<stop stop-color="#51397F" offset="1"/>
				</linearGradient>
				<path d="m234.9 61c2.5 0.7 4.4-0.7 5.4-1.6-0.8-2.2-1.9-3.8-3.4-3.9-1.8-0.1-2.4 0.9-2.3 3.8 0.1 0.6 0.2 1.2 0.3 1.7z" fill="url(#ay)"/>
				
					<linearGradient id="af" x1="-527.17" x2="-523.28" y1="83.359" y2="83.359" gradientTransform="matrix(-.9929 .1187 .1187 .9929 -280.15 39.318)" gradientUnits="userSpaceOnUse">
					<stop stop-color="#34254C" offset="0"/>
					<stop stop-color="#51397F" offset="1"/>
				</linearGradient>
				<path d="m249.4 60.3c0.5 1.6 3.8 1.8 3.9 0.3-0.9-3-2.7-2.9-3.6-2.6-0.4 0.7-0.6 1.5-0.3 2.3z" fill="url(#af)"/>
				
					<linearGradient id="e" x1="-531.75" x2="-526.94" y1="89.566" y2="89.566" gradientTransform="matrix(-.9929 .1187 .1187 .9929 -280.15 39.318)" gradientUnits="userSpaceOnUse">
					<stop stop-color="#34254C" offset="0"/>
					<stop stop-color="#51397F" offset="1"/>
				</linearGradient>
				<path d="m253.7 66c0.5 2.5 4.1 2.1 4.7 0.3 0.1-0.8 0-1.7-0.9-2.5-1.9-1.6-3.7 0.4-3.7 0.5-0.2 0.6-0.2 1.2-0.1 1.7z" fill="url(#e)"/>
				
					<linearGradient id="o" x1="-531.59" x2="-527.69" y1="99.423" y2="99.423" gradientTransform="matrix(-.9929 .1187 .1187 .9929 -280.15 39.318)" gradientUnits="userSpaceOnUse">
					<stop stop-color="#34254C" offset="0"/>
					<stop stop-color="#51397F" offset="1"/>
				</linearGradient>
				<path d="m257.3 77.6c0.2 0 0.5-0.1 0.9-0.2 0.5-0.2 1-0.4 1.4-0.6 0.2-2.2-1-3.5-1.8-4-1.1 0.8-2.1 1.8-2.2 2.5 0 0.9 0.3 2.3 1.7 2.3z" fill="url(#o)"/>
				
					<linearGradient id="av" x1="-530.11" x2="-525.35" y1="107.14" y2="107.14" gradientTransform="matrix(-.9929 .1187 .1187 .9929 -280.15 39.318)" gradientUnits="userSpaceOnUse">
					<stop stop-color="#34254C" offset="0"/>
					<stop stop-color="#51397F" offset="1"/>
				</linearGradient>
				<path d="m255.2 85c0.6 0.2 1.7 0.3 3.5-0.2 0.3-0.7 0.4-1.7-0.1-2.6-0.4-0.9-0.9-1.3-1.3-1.4-3.2 2.2-3.9 3.4-2.1 4.2z" fill="url(#av)"/>
			
			
				<path class="st26" d="m236.7 174.2s-1.4-4.5-1.1-6.9 14-35.7 31.9-35.7l-30.8 42.6z"/>
				
					<linearGradient id="p" x1="234.43" x2="271.07" y1="161.42" y2="161.42" gradientTransform="matrix(.9977 -.068 .068 .9977 -9.1769 14.735)" gradientUnits="userSpaceOnUse">
					<stop stop-color="#E1DAE5" offset="0"/>
					<stop stop-color="#F7F4F9" offset="1"/>
				</linearGradient>
				<path d="m240.9 185.7s-4-3.2-4.4-13.7 21-47 34-39.4l-29.6 53.1z" fill="url(#p)"/>
				
					<linearGradient id="g" x1="233.44" x2="276.01" y1="185.9" y2="150.43" gradientTransform="matrix(.9977 -.068 .068 .9977 -9.1769 14.735)" gradientUnits="userSpaceOnUse">
					<stop stop-color="#BBAEC4" offset="0"/>
					<stop stop-color="#DED1E8" offset="1"/>
				</linearGradient>
				<path d="m273.9 145.7v1.3c-0.1 2.2-0.3 4.5-0.7 7.1-0.1 0.4-0.1 0.8-0.2 1.3-0.4 2.2-0.8 4.5-1.4 6.8l-0.3 1.2c-0.7 2.6-1.6 5.3-2.7 8.1-0.2 0.4-0.3 0.8-0.5 1.2-0.9 2.3-2 4.7-3.2 7.1-0.2 0.4-0.4 0.8-0.6 1.1-1.1 2-2.3 4.1-3.6 6.2-0.1 0.2-0.2 0.3-0.3 0.5-0.3 0.2-0.5 0.3-0.8 0.5-9.5 5-20.9-1.5-20.9-6.2v-0.2c0-0.3 0.1-0.7 0.2-1.3 0.3-1.5 0.9-3.9 1.7-6.7 0.1-0.4 0.2-0.8 0.4-1.2 0.7-2.3 1.5-4.8 2.3-7.4 0.1-0.4 0.3-0.8 0.4-1.2 0.9-2.7 2-5.4 3-8 0.2-0.4 0.3-0.8 0.5-1.2 1-2.3 2-4.4 3-6.3 0.2-0.4 0.4-0.8 0.6-1.1 0.3-0.4 0.5-0.9 0.8-1.3 1.1-1.7 2.2-3.3 3.3-4.7 0.3-0.4 0.6-0.7 0.9-1.1 2.2-2.6 4.4-4.7 6.5-6.1l1.5-0.9c2.6-1.4 5-1.8 6.9-1 0.9 0.4 1.8 1.7 2.4 3.8 0.1 0.4 0.2 0.9 0.4 1.4 0.2 2.2 0.5 5 0.4 8.3z" fill="url(#g)"/>
				
					<path class="st86" d="m273.2 137.4-11-3.4 1.5-0.9 9.2 2.8 0.3 1.5z"/>
					<path class="st86" d="m273.9 145.7v1.3l-19-5.8c0.3-0.4 0.6-0.7 0.9-1.1l18.1 5.6z"/>
					<path class="st86" d="m273.2 154c-0.1 0.4-0.1 0.8-0.2 1.3l-22.9-7c0.2-0.4 0.4-0.8 0.6-1.1l22.5 6.8z"/>
					<path class="st86" d="m271.6 162.1-0.3 1.2-24.6-7.5c0.2-0.4 0.3-0.8 0.5-1.2l24.4 7.5z"/>
					<path class="st86" d="m268.6 171.4c-0.2 0.4-0.3 0.8-0.5 1.2l-24.9-7.6c0.1-0.4 0.3-0.8 0.4-1.2l25 7.6z"/>
					<path class="st86" d="m264.9 179.7c-0.2 0.4-0.4 0.8-0.6 1.1l-23.8-7.3c0.1-0.4 0.2-0.8 0.4-1.2l24 7.4z"/>
					<path class="st86" d="m260.7 187c-0.1 0.2-0.2 0.3-0.3 0.5-0.3 0.2-0.5 0.3-0.8 0.5l-20.9-6.4c0-0.3 0.1-0.7 0.2-1.3l21.8 6.7z"/>
				
			
			
				<path class="st26" d="m193.3 183s-1.8-4.4-3.5-6.1-33.3-19-47.2-7.7l50.7 13.8z"/>
				
					<linearGradient id="bp" x1="-1574.6" x2="-1538" y1="748.68" y2="748.68" gradientTransform="matrix(-.819 .5738 .5738 .819 -1534.1 461.56)" gradientUnits="userSpaceOnUse">
					<stop stop-color="#E1DAE5" offset="0"/>
					<stop stop-color="#F7F4F9" offset="1"/>
				</linearGradient>
				<path d="m197.3 194.6s1.1-5-5.2-13.4-45.9-23.4-51.2-9.3l56.4 22.7z" fill="url(#bp)"/>
				
					<linearGradient id="bs" x1="144.98" x2="195.07" y1="187.23" y2="180.14" gradientTransform="matrix(.9977 -.068 .068 .9977 -9.1769 14.735)" gradientUnits="userSpaceOnUse">
					<stop stop-color="#BBAEC4" offset="0"/>
					<stop stop-color="#DED1E8" offset="1"/>
				</linearGradient>
				<path d="m146.4 184.2c0.3 0.3 0.6 0.7 0.8 1 1.4 1.6 3.1 3.4 4.9 5.1l0.9 0.9c1.6 1.5 3.4 2.9 5.4 4.4 0.3 0.2 0.7 0.5 1 0.7 2.2 1.6 4.6 3.1 7.2 4.6 0.4 0.2 0.7 0.4 1.1 0.6 2.2 1.2 4.5 2.4 7 3.5 0.4 0.2 0.8 0.3 1.2 0.5 2.1 0.9 4.4 1.8 6.7 2.5 0.2 0.1 0.4 0.1 0.6 0.2 0.3 0 0.6-0.1 0.9-0.2 10.5-2.1 15.3-14.3 12.4-18l-1-1c-1.2-1-3.1-2.5-5.5-4.2-0.3-0.2-0.7-0.5-1-0.7-1.9-1.3-4.1-2.8-6.4-4.3-0.4-0.2-0.7-0.4-1.1-0.7-2.4-1.5-4.9-3-7.4-4.3-0.4-0.2-0.7-0.4-1.1-0.6-2.2-1.2-4.3-2.2-6.3-3-0.4-0.2-0.8-0.3-1.2-0.5-0.5-0.2-0.9-0.4-1.4-0.5-1.9-0.7-3.8-1.2-5.5-1.6-0.4-0.1-0.9-0.2-1.3-0.3-3.4-0.7-6.4-0.9-8.9-0.6-0.6 0.1-1.1 0.1-1.7 0.2-2.9 0.5-5 1.7-6 3.5-0.5 0.9-0.3 2.4 0.6 4.5 0.2 0.4 0.4 0.9 0.6 1.3 0.9 2.1 2.5 4.5 4.5 7z" fill="url(#bs)"/>
				
					<path class="st86" d="m141.8 177.3 6.5-9.6c-0.6 0.1-1.1 0.1-1.7 0.2l-5.4 8c0.1 0.5 0.3 1 0.6 1.4z"/>
					<path class="st86" d="m146.4 184.2c0.3 0.3 0.6 0.7 0.8 1l11.1-16.5c-0.4-0.1-0.9-0.2-1.3-0.3l-10.6 15.8z"/>
					<path class="st86" d="m152.2 190.3 0.9 0.9 13.4-19.8c-0.4-0.2-0.8-0.3-1.2-0.5l-13.1 19.4z"/>
					<path class="st86" d="m158.6 195.5c0.3 0.2 0.7 0.5 1 0.7l14.4-21.3c-0.4-0.2-0.7-0.4-1.1-0.6l-14.3 21.2z"/>
					<path class="st86" d="m166.8 200.9c0.4 0.2 0.7 0.4 1.1 0.6l14.6-21.6c-0.4-0.2-0.7-0.4-1.1-0.7l-14.6 21.7z"/>
					<path class="st86" d="M174.8,205c0.4,0.2,0.8,0.3,1.2,0.5l13.9-20.6c-0.3-0.2-0.7-0.5-1-0.7L174.8,205z"/>
					<path class="st86" d="m182.7 208.1c0.2 0.1 0.4 0.1 0.6 0.2 0.3 0 0.6-0.1 0.9-0.2l12.3-18.1-0.9-0.9-12.9 19z"/>
				
			
		
		
			<linearGradient id="bw" x1="263.42" x2="159.24" y1="87.12" y2="159.1" gradientTransform="matrix(.9977 -.068 .068 .9977 -9.1769 14.735)" gradientUnits="userSpaceOnUse">
			<stop stop-color="#04074A" offset="0"/>
			<stop stop-opacity="0" offset=".8902"/>
		</linearGradient>
		<path d="m273.2 137.4c-0.1-0.5-0.2-1-0.4-1.4-0.6-2.1-1.4-3.5-2.4-3.8-0.7-0.3-1.4-0.4-2.1-0.4-0.3-0.1-0.6-0.1-1-0.2h-0.6c-0.8 0-1.7 0.1-2.5 0.3-4 0.9-7.7 3.3-11.1 6.4-0.2-2-0.7-6.1-1.1-10.1-0.3-3.3-1.7-6.3-3.2-8.3-1-1.4-2-2.4-2.7-2.8 0 0-2.6-9.6-8.6-11.9-0.1 0-0.2-0.1-0.3-0.1s-0.1 0-0.2-0.1c-2.3-0.8-4.2-0.9-5.6-0.8 0 0-0.4 0-1.1 0.1-0.1 0-0.2 0-0.3 0.1-0.6 0.1-1 0.3-1.3 0.4-0.1 0-0.2 0.1-0.3 0.1v-0.1-0.1-0.1-0.1c0-0.1 0.1-0.3 0.1-0.5v-0.1-0.1-0.1-0.1-0.1-0.1-0.2-0.1-0.2-0.5-0.4c0-0.2 0-0.4-0.1-0.7 0.6-0.1 1.1-0.3 1.6-0.6 1.2-0.7 2-1.3 2.4-2 0.7-1 0.5-1.9 0-2.8-0.3-0.5-1.1-0.8-1.9-1.1-1.3-0.4-2.7-0.5-2.9-0.5 0-0.9-0.1-1.9-0.3-3 0-0.1 0-0.3-0.1-0.4-0.1-0.7-0.3-1.3-0.5-2 0 0 0.6 0.4 1.6 0.9 0.1 0 0.1 0.1 0.1 0.1h0.1 0.1c2.3 1.2 6.3 2.8 10 2 0.3-0.1 0.7-0.2 1-0.3 0.5-0.2 0.9-0.4 1.3-0.6 2.5-1.3 3.8-3.1 4.6-4.5 1.3 0.1 2.5 0.1 3.6-0.1 3.1-0.6 5-2.1 5-2.1s0.2 0.3 0.7 0.4h0.1 0.1 0.1 0.1 0.1 0.1 0.1 0.1 0.1 0.1 0.1 0.1 0.1 0.2 0.1 0.2 0.1c0.2 0 0.4 0 0.6-0.1 0.1 0 0.2 0 0.3-0.1h0.1c0.1 0 0.2 0 0.2-0.1h0.1c0.1 0 0.2 0 0.2-0.1h0.1 0.1 0.1c0.1 0 0.2-0.1 0.4-0.1 3.8-1.3 4.8-3.6 4.5-5.1-0.1-0.4-0.4-0.7-0.9-0.9-1.1-0.4-2.9-0.2-3.7-0.1-1.1 0.1-1.4-0.1-1.1-1 0 0 0-0.1 0.1-0.1 0.5-0.2 1-0.4 1.4-0.6 0.9-0.4 1.7-0.9 2.4-1.5 1.2-0.9 1.6-2.7 1.2-4.4-0.2-0.8-1-1.2-2.1-1.1-1.1 0-2.4 0.5-3.3 1.1-1.9 1.3-2.7 1.1-3 0-0.2-0.8 1.2-2.1 2.5-3.4l0.1-0.1c0.5-0.3 0.9-0.7 1.1-1.2l0.2-0.2c1.2-1.6-0.2-4.1-2.9-4.1-0.3 0-0.5 0.1-0.8 0.1-2 0.8-2.2 4.4-3.5 4.2-1.5-0.3-0.7-1.7 0.8-3.9l0.6-0.9s0-0.1 0.1-0.1c0.2-0.2 0.3-0.4 0.3-0.6 0-0.1 0.1-0.1 0.1-0.2s0-0.1 0.1-0.2c0-0.1 0-0.1 0.1-0.2 0.1-0.2 0.1-0.3 0.2-0.5v-0.1-0.1-0.1-0.1-0.1-0.1-0.1-0.1-0.1-0.1-0.1-0.1-0.1-0.1-0.2-0.1-0.1-0.1-0.1-0.1-0.1-0.1-0.1-0.1-0.1-0.1-0.1-0.1-0.1-0.1-0.1-0.1-0.1-0.1-0.1-0.1l-0.6-0.6s-0.1 0-0.1-0.1h-0.1s-0.1 0-0.1-0.1h-0.1c-0.1 0-0.1-0.1-0.2-0.1-0.5-0.2-1-0.2-1.5 0-2.2 0.8-4.8 4.9-5.9 9.5-0.4 1.7-0.8 2.7-1.1 3.4-0.5 1.1-0.9 1.1-1 1-0.1 0-0.1-0.1-0.1-0.1-0.6-0.6-1.8-5.3-2.6-8.2-0.1-0.5-0.3-0.9-0.4-1.4-0.8-2.2-1.9-3.8-3.4-3.9h-0.2-0.1-0.1-0.1-0.1-0.1-0.1-0.1-0.2c-0.1 0-0.1 0-0.2 0.1 0 0-0.1 0-0.1 0.1l-0.3 0.3s-0.1 0.1-0.1 0.2-0.1 0.1-0.1 0.2v0.1c0 0.1 0 0.1-0.1 0.2 0 0.1 0 0.1-0.1 0.2v0.1 0.2 0.1 0.3 0.1 0.3 0.3 0.1 0.3 0.1 0.4c0 0.6 0.1 1.2 0.3 1.7 0.5 2 1.5 3.7 1.9 6 0.1 0.6 0.1 1.3 0.1 1.9-0.3 0.1-0.7 0.3-1 0.4-0.6 0.3-1.2 0.6-1.8 1.1l-0.8 0.8s-0.1 0.1-0.1 0.2l-0.5 0.5s-0.4-0.7-1.2-1.5c-0.9-1-2.3-2.2-4.1-2.8-0.2-0.4-0.3-0.8-0.5-1.2-0.5-3.4-1.4-7.8-2.2-8.4s-1.3-1.3-5.8-0.8c-0.1-0.1-0.3-0.2-0.4-0.2 0.4-0.9 0.6-1.5 0.6-1.5 0.1-0.7 0.1-1.4 0.1-2.1 0.9-0.3 2.6-0.9 3.1-1.3 1.1-0.9-2.3-11.8-3.5-11.8-0.4 0-2.7 0.3-3.7 0.4-3.6-4.9-9.3-7.9-15.6-7.6l-0.5-1.1c-3.6 0.1-6.6 1-9 2.8l0.3 0.9c-5.6 3.3-8.6 9.3-8.6 15.6-0.9 0.5-2.9 1.6-3.2 1.9-1 0.7 2.9 11.5 4.3 11.6 0.6 0 2.3-0.5 3.2-0.8 0.3 0.4 0.7 0.9 1.1 1.3-4.1 1.6-6.7 2.9-7.1 3.4-0.5 0.7 0.3 4.1 1 6.6-1.4 0.9-3.1 2.9-3.6 7 0 0.2-0.1 0.4-0.1 0.6 0 0-0.4 0.1-0.8 0.4-0.2 0.2-0.5 0.4-0.7 0.8 0 0.1-0.1 0.1-0.1 0.2s-0.1 0.2-0.1 0.2v0.1c0 0.1-0.1 0.1-0.1 0.2s-0.1 0.2-0.1 0.3v0.1c0 0.1 0 0.2-0.1 0.3v0.2 0.1 0.3-0.1-0.1s0-0.1-0.1-0.1l-0.4-0.4c-0.1 0-0.1-0.1-0.2-0.1-0.2-0.1-0.4-0.3-0.6-0.4-0.5-0.3-1.1-0.6-2-0.8-0.7-2.5-1.7-4.8-1.7-7 0-2.4 0.6-4.2 0.8-6.2 0-0.6 0-1.1-0.1-1.7 0-0.1 0-0.3-0.1-0.4v-0.1c0-0.1 0-0.2-0.1-0.3v-0.1c0-0.1 0-0.2-0.1-0.3 0-0.1 0-0.2-0.1-0.3v-0.1c0-0.1-0.1-0.2-0.1-0.3v-0.1c0-0.1-0.1-0.2-0.1-0.2v-0.1c0-0.1-0.1-0.1-0.1-0.2s-0.1-0.1-0.1-0.2-0.1-0.1-0.1-0.2l-0.3-0.3c-0.1 0-0.1 0-0.2-0.1h-0.2-0.2-0.2-0.1-0.1-0.1-0.1-0.1-0.1-0.1-0.2c-1.4 0.4-2.2 2.1-2.6 4.5-0.1 0.5-0.1 0.9-0.2 1.4-0.3 3-0.6 7.8-1.1 8.5 0 0 0 0.1-0.1 0.1-0.1 0.2-0.5 0.3-1.2-0.7-0.4-0.6-1-1.6-1.7-3.1-1.9-4.3-5.2-7.8-7.6-8.2-0.6-0.1-1.1 0-1.5 0.3-0.1 0-0.1 0.1-0.2 0.1h-0.1l-0.2 0.2s0 0.1-0.1 0.1l-0.1 0.1s0 0.1-0.1 0.1v0.1 0.1 0.1 0.1 0.1 0.1 0.1 0.1 0.1 0.1 0.1 0.1 0.1 0.1 0.1 0.1 0.1 0.1 0.1s0 0.1 0 0.1v0.1 0.1 0.1 0.1 0.1c0 0.1 0 0.1 0.1 0.2v0.1 0.1 0.1 0.1 0.1 0.1 0.1 0.1s0 0.1 0.1 0.1v0.1s0 0.1 0.1 0.1c0 0 0 0.1 0.1 0.1 0 0 0 0.1 0.1 0.1v0.1c0.1 0.1 0.2 0.3 0.3 0.4l0.3 0.3c0.1 0.3 0.2 0.5 0.5 0.6 0 0 0 0.1 0.1 0.1 0.2 0.3 0.5 0.6 0.7 0.8 1.9 1.9 2.9 3.1 1.5 3.7-1.2 0.5-2.1-3.1-4.2-3.5h-0.8c-2.7 0.5-3.6 3.2-2.1 4.6l0.2 0.2c0.3 0.5 0.8 0.8 1.3 1 0 0 0.1 0 0.1 0.1 1.5 1 3.1 2.1 3.1 2.9-0.1 1.1-0.8 1.5-3 0.5-1.1-0.5-2.4-0.7-3.5-0.5-1 0.2-1.8 0.6-1.8 1.5 0 1.7 0.7 3.4 2 4.1 0.9 0.5 1.7 0.7 2.6 1 0.5 0.1 0.9 0.2 1.5 0.4l0.1 0.1c0.5 0.8 0.2 1.1-0.9 1.2-0.8 0.1-2.6 0.2-3.6 0.8-0.4 0.3-0.7 0.6-0.7 1 0 1.6 1.4 3.7 5.3 4.2h0.4 0.1 0.1 0.1 0.1 0.2 0.1 0.3 0.1 0.3 0.6 0.1 0.2 0.1 0.2 0.1 0.1 0.1 0.1 0.1 0.1 0.1 0.1 0.1 0.1 0.1s0.1 0 0.1-0.1c0.5-0.3 0.6-0.6 0.6-0.6s1.7 0.9 4.3 1.1l-0.1 0.2s4.4 4.7 10.8 5.3c1.2 0.1 2.5 0.1 3.9-0.2 1-0.2 2-0.5 3-0.9 0 0 2.7 0.7 6.5-1.4 0.3-0.2 0.7-0.4 1.1-0.7 0 0 0.1 0.6 0.3 1.3 0 0.2 0.1 0.3 0.2 0.5l-0.2 0.2c-0.1 0.1-0.2 0.1-0.3 0.2-0.9 0.8-2.8 2.6-2.6 3.7s1.2 1.6 2.8 1.6c-0.1 0.1-0.7 0.4-1.4 0.9-1.1 0.7-2.5 1.5-3.2 2.1l-0.1 0.1c-1.3 1-1.9 2.5-4.1 4.2-2.3 1.7-2.2 3-3 6.5-0.4 1.5-0.8 3.1-1.1 4.3-0.4 1.6-0.8 2.7-0.8 2.7s-0.7 0.6-1.5 1.7v0.1s0 0.1-0.1 0.1v0.1c-0.3 0.5-0.7 1-1 1.6s-0.6 1.2-0.8 1.9l-0.3 1.2c-0.3 1.6-0.5 3.2-0.6 4.5 0 0.6-0.1 1.2-0.1 1.6v1.8s-0.4 0.5-1 1.4c-0.5 0.7-1 1.7-1.4 2.8-0.4 1-0.6 2.1-0.7 3.3-0.3 3.8 3.9 14.2 4.9 16.7-8.2-2.4-17.2-3.5-23.7-0.2-0.8 0.4-1.5 0.8-2.2 1.3-0.2 0.1-0.3 0.3-0.5 0.4h0.1l-0.7 0.7c-0.6 0.5-1.1 1-1.4 1.6-0.5 0.9-0.3 2.4 0.6 4.5 0.2 0.4 0.4 0.9 0.6 1.3 1 2 2.6 4.4 4.7 6.9 0.3 0.3 0.6 0.7 0.8 1 1.4 1.6 3.1 3.4 4.9 5.1l0.9 0.9c1.6 1.5 3.4 2.9 5.4 4.4 0.3 0.2 0.7 0.5 1 0.7 2.2 1.6 4.6 3.1 7.2 4.6 0.4 0.2 0.7 0.4 1.1 0.6 2.2 1.2 4.5 2.4 7 3.5 0.4 0.2 0.8 0.3 1.2 0.5 2.1 0.9 4.4 1.8 6.7 2.5 0.2 0.1 0.4 0.1 0.6 0.2 0.3 0 0.6-0.1 0.9-0.2 7.7-1.5 12.3-8.4 13.1-13.5v-0.3c0.2-1.3 0.1-2.4-0.3-3.3-0.5-2-1.5-4.6-3.7-7.9 0 0-1-2.4-2.2-4.3 0.1-2.9 0.2-7.3-0.1-10.6-0.5-5.3-2.2-9.5-1.9-12.4 0 0 2.5-1.2 4.6-10 0.3-1.1 0.5-2.3 0.8-3.6 0 0 0.1 0 0.2-0.1 1.1-0.4 6.7-2.4 8.9-7.4 2.5-5.5 4.9-6.3 6.3-5.5 1.3 0.9 6.9 6.2 15.1 5.8 0 0 0.2 0.5 0.7 1.3 0.5 0.9 1.2 2 2.1 3.2 1.3 1.7 3.1 3.5 5.1 4.5 0 0 0.9 4.5 0.8 11.3-0.1 5.1 0.5 11.4 2.2 15.3 0.3 1.8 0.8 3.4 0.8 3.4 0.4 4 1.3 6.7 2.1 8.5 0.3 0.9 0.9 1.9 1.9 2.8l0.2 0.2c3.8 3.5 11.8 5.9 18.7 2.3 0.3-0.1 0.5-0.3 0.8-0.5 0.1-0.2 0.2-0.3 0.3-0.5 1.3-2.1 2.5-4.1 3.6-6.2 0.2-0.4 0.4-0.8 0.6-1.1 1.2-2.4 2.3-4.8 3.2-7.1 0.2-0.4 0.3-0.8 0.5-1.2 1.1-2.8 1.9-5.5 2.7-8.1l0.3-1.2c0.6-2.4 1.1-4.6 1.4-6.8 0.1-0.4 0.1-0.8 0.2-1.3 0.4-2.5 0.6-4.9 0.7-7.1v-1.3c0.6-3.2 0.3-6-0.2-8.2zm-103-6.6zm15.4-24.1h-0.2c-0.2 0-0.3-0.1-0.4-0.2-0.1 0-0.1-0.1-0.2-0.2v-0.1-0.2c0-0.2 0.1-0.5 0.2-0.8 0-0.1 0.1-0.2 0.2-0.3 0.1-0.2 0.2-0.4 0.4-0.5l0.1-0.1c0.1-0.1 0.1-0.2 0.2-0.2 0.3-0.3 0.5-0.6 0.5-0.6s-0.6 1.4-0.8 3.2zm42.4-9.5s3.4-0.6 3.9 0.2c0.4 0.5 0.1 1.4-1.2 1.9-0.5 0.2-1.2 0.3-2 0.4-0.2-0.6-0.4-1.4-0.7-2.2-0.1 0-0.1-0.1 0-0.3z" fill="url(#bw)"/>
		
			<linearGradient id="c" x1="254.04" x2="150.61" y1="83.512" y2="180.5" gradientTransform="matrix(.9977 -.068 .068 .9977 -9.1769 14.735)" gradientUnits="userSpaceOnUse">
			<stop stop-color="#04074A" offset="0"/>
			<stop stop-color="#04074A" offset="1"/>
		</linearGradient>
		<path d="m273.2 137.4c-0.1-0.5-0.2-1-0.4-1.4-0.6-2.1-1.4-3.5-2.4-3.8-0.7-0.3-1.4-0.4-2.1-0.4-0.3-0.1-0.6-0.1-1-0.2h-0.6c-0.8 0-1.7 0.1-2.5 0.3-4 0.9-7.7 3.3-11.1 6.4-0.2-2-0.7-6.1-1.1-10.1-0.3-3.3-1.7-6.3-3.2-8.3-1-1.4-2-2.4-2.7-2.8 0 0-2.6-9.6-8.6-11.9-0.1 0-0.2-0.1-0.3-0.1s-0.1 0-0.2-0.1c-2.3-0.8-4.2-0.9-5.6-0.8 0 0-0.4 0-1.1 0.1-0.1 0-0.2 0-0.3 0.1-0.6 0.1-1 0.3-1.3 0.4-0.1 0-0.2 0.1-0.3 0.1v-0.1-0.1-0.1-0.1c0-0.1 0.1-0.3 0.1-0.5v-0.1-0.1-0.1-0.1-0.1-0.1-0.2-0.1-0.2-0.5-0.4c0-0.2 0-0.4-0.1-0.7 0.6-0.1 1.1-0.3 1.6-0.6 1.2-0.7 2-1.3 2.4-2 0.7-1 0.5-1.9 0-2.8-0.3-0.5-1.1-0.8-1.9-1.1-1.3-0.4-2.7-0.5-2.9-0.5 0-0.9-0.1-1.9-0.3-3 0-0.1 0-0.3-0.1-0.4-0.1-0.7-0.3-1.3-0.5-2 0 0 0.6 0.4 1.6 0.9 0.1 0 0.1 0.1 0.1 0.1h0.1 0.1c2.3 1.2 6.3 2.8 10 2 0.3-0.1 0.7-0.2 1-0.3 0.5-0.2 0.9-0.4 1.3-0.6 2.5-1.3 3.8-3.1 4.6-4.5 1.3 0.1 2.5 0.1 3.6-0.1 3.1-0.6 5-2.1 5-2.1s0.2 0.3 0.7 0.4h0.1 0.1 0.1 0.1 0.1 0.1 0.1 0.1 0.1 0.1 0.1 0.1 0.1 0.2 0.1 0.2 0.1c0.2 0 0.4 0 0.6-0.1 0.1 0 0.2 0 0.3-0.1h0.1c0.1 0 0.2 0 0.2-0.1h0.1c0.1 0 0.2 0 0.2-0.1h0.1 0.1 0.1c0.1 0 0.2-0.1 0.4-0.1 3.8-1.3 4.8-3.6 4.5-5.1-0.1-0.4-0.4-0.7-0.9-0.9-1.1-0.4-2.9-0.2-3.7-0.1-1.1 0.1-1.4-0.1-1.1-1 0 0 0-0.1 0.1-0.1 0.5-0.2 1-0.4 1.4-0.6 0.9-0.4 1.7-0.9 2.4-1.5 1.2-0.9 1.6-2.7 1.2-4.4-0.2-0.8-1-1.2-2.1-1.1-1.1 0-2.4 0.5-3.3 1.1-1.9 1.3-2.7 1.1-3 0-0.2-0.8 1.2-2.1 2.5-3.4l0.1-0.1c0.5-0.3 0.9-0.7 1.1-1.2l0.2-0.2c1.2-1.6-0.2-4.1-2.9-4.1-0.3 0-0.5 0.1-0.8 0.1-2 0.8-2.2 4.4-3.5 4.2-1.5-0.3-0.7-1.7 0.8-3.9l0.6-0.9s0-0.1 0.1-0.1c0.2-0.2 0.3-0.4 0.3-0.6 0-0.1 0.1-0.1 0.1-0.2s0-0.1 0.1-0.2c0-0.1 0-0.1 0.1-0.2 0.1-0.2 0.1-0.3 0.2-0.5v-0.1-0.1-0.1-0.1-0.1-0.1-0.1-0.1-0.1-0.1-0.1-0.1-0.1-0.1-0.2-0.1-0.1-0.1-0.1-0.1-0.1-0.1-0.1-0.1-0.1-0.1-0.1-0.1-0.1-0.1-0.1-0.1-0.1-0.1-0.1-0.1l-0.6-0.6s-0.1 0-0.1-0.1h-0.1s-0.1 0-0.1-0.1h-0.1c-0.1 0-0.1-0.1-0.2-0.1-0.5-0.2-1-0.2-1.5 0-2.2 0.8-4.8 4.9-5.9 9.5-0.4 1.7-0.8 2.7-1.1 3.4-0.5 1.1-0.9 1.1-1 1-0.1 0-0.1-0.1-0.1-0.1-0.6-0.6-1.8-5.3-2.6-8.2-0.1-0.5-0.3-0.9-0.4-1.4-0.8-2.2-1.9-3.8-3.4-3.9h-0.2-0.1-0.1-0.1-0.1-0.1-0.1-0.1-0.2c-0.1 0-0.1 0-0.2 0.1 0 0-0.1 0-0.1 0.1l-0.3 0.3s-0.1 0.1-0.1 0.2-0.1 0.1-0.1 0.2v0.1c0 0.1 0 0.1-0.1 0.2 0 0.1 0 0.1-0.1 0.2v0.1 0.2 0.1 0.3 0.1 0.3 0.3 0.1 0.3 0.1 0.4c0 0.6 0.1 1.2 0.3 1.7 0.5 2 1.5 3.7 1.9 6 0.1 0.6 0.1 1.3 0.1 1.9-0.3 0.1-0.7 0.3-1 0.4-0.6 0.3-1.2 0.6-1.8 1.1l-0.8 0.8s-0.1 0.1-0.1 0.2l-0.5 0.5s-0.4-0.7-1.2-1.5c-0.9-1-2.3-2.2-4.1-2.8-0.2-0.4-0.3-0.8-0.5-1.2-0.5-3.4-1.4-7.8-2.2-8.4s-1.3-1.3-5.8-0.8c-0.1-0.1-0.3-0.2-0.4-0.2 0.4-0.9 0.6-1.5 0.6-1.5 0.1-0.7 0.1-1.4 0.1-2.1 0.9-0.3 2.6-0.9 3.1-1.3 1.1-0.9-2.3-11.8-3.5-11.8-0.4 0-2.7 0.3-3.7 0.4-3.6-4.9-9.3-7.9-15.6-7.6l-0.5-1.1c-3.6 0.1-6.6 1-9 2.8l0.3 0.9c-5.6 3.3-8.6 9.3-8.6 15.6-0.9 0.5-2.9 1.6-3.2 1.9-1 0.7 2.9 11.5 4.3 11.6 0.6 0 2.3-0.5 3.2-0.8 0.3 0.4 0.7 0.9 1.1 1.3-4.1 1.6-6.7 2.9-7.1 3.4-0.5 0.7 0.3 4.1 1 6.6-1.4 0.9-3.1 2.9-3.6 7 0 0.2-0.1 0.4-0.1 0.6 0 0-0.4 0.1-0.8 0.4-0.2 0.2-0.5 0.4-0.7 0.8 0 0.1-0.1 0.1-0.1 0.2s-0.1 0.2-0.1 0.2v0.1c0 0.1-0.1 0.1-0.1 0.2s-0.1 0.2-0.1 0.3v0.1c0 0.1 0 0.2-0.1 0.3v0.2 0.1 0.3-0.1-0.1s0-0.1-0.1-0.1l-0.4-0.4c-0.1 0-0.1-0.1-0.2-0.1-0.2-0.1-0.4-0.3-0.6-0.4-0.5-0.3-1.1-0.6-2-0.8-0.7-2.5-1.7-4.8-1.7-7 0-2.4 0.6-4.2 0.8-6.2 0-0.6 0-1.1-0.1-1.7 0-0.1 0-0.3-0.1-0.4v-0.1c0-0.1 0-0.2-0.1-0.3v-0.1c0-0.1 0-0.2-0.1-0.3 0-0.1 0-0.2-0.1-0.3v-0.1c0-0.1-0.1-0.2-0.1-0.3v-0.1c0-0.1-0.1-0.2-0.1-0.2v-0.1c0-0.1-0.1-0.1-0.1-0.2s-0.1-0.1-0.1-0.2-0.1-0.1-0.1-0.2l-0.3-0.3c-0.1 0-0.1 0-0.2-0.1h-0.2-0.2-0.2-0.1-0.1-0.1-0.1-0.1-0.1-0.1-0.2c-1.4 0.4-2.2 2.1-2.6 4.5-0.1 0.5-0.1 0.9-0.2 1.4-0.3 3-0.6 7.8-1.1 8.5 0 0 0 0.1-0.1 0.1-0.1 0.2-0.5 0.3-1.2-0.7-0.4-0.6-1-1.6-1.7-3.1-1.9-4.3-5.2-7.8-7.6-8.2-0.6-0.1-1.1 0-1.5 0.3-0.1 0-0.1 0.1-0.2 0.1h-0.1l-0.2 0.2s0 0.1-0.1 0.1l-0.1 0.1s0 0.1-0.1 0.1v0.1 0.1 0.1 0.1 0.1 0.1 0.1 0.1 0.1 0.1 0.1 0.1 0.1 0.1 0.1 0.1 0.1 0.1 0.1s0 0.1 0 0.1v0.1 0.1 0.1 0.1 0.1c0 0.1 0 0.1 0.1 0.2v0.1 0.1 0.1 0.1 0.1 0.1 0.1 0.1s0 0.1 0.1 0.1v0.1s0 0.1 0.1 0.1c0 0 0 0.1 0.1 0.1 0 0 0 0.1 0.1 0.1v0.1c0.1 0.1 0.2 0.3 0.3 0.4l0.3 0.3c0.1 0.3 0.2 0.5 0.5 0.6 0 0 0 0.1 0.1 0.1 0.2 0.3 0.5 0.6 0.7 0.8 1.9 1.9 2.9 3.1 1.5 3.7-1.2 0.5-2.1-3.1-4.2-3.5h-0.8c-2.7 0.5-3.6 3.2-2.1 4.6l0.2 0.2c0.3 0.5 0.8 0.8 1.3 1 0 0 0.1 0 0.1 0.1 1.5 1 3.1 2.1 3.1 2.9-0.1 1.1-0.8 1.5-3 0.5-1.1-0.5-2.4-0.7-3.5-0.5-1 0.2-1.8 0.6-1.8 1.5 0 1.7 0.7 3.4 2 4.1 0.9 0.5 1.7 0.7 2.6 1 0.5 0.1 0.9 0.2 1.5 0.4l0.1 0.1c0.5 0.8 0.2 1.1-0.9 1.2-0.8 0.1-2.6 0.2-3.6 0.8-0.4 0.3-0.7 0.6-0.7 1 0 1.6 1.4 3.7 5.3 4.2h0.4 0.1 0.1 0.1 0.1 0.2 0.1 0.3 0.1 0.3 0.6 0.1 0.2 0.1 0.2 0.1 0.1 0.1 0.1 0.1 0.1 0.1 0.1 0.1 0.1 0.1s0.1 0 0.1-0.1c0.5-0.3 0.6-0.6 0.6-0.6s1.7 0.9 4.3 1.1l-0.1 0.2s4.4 4.7 10.8 5.3c1.2 0.1 2.5 0.1 3.9-0.2 1-0.2 2-0.5 3-0.9 0 0 2.7 0.7 6.5-1.4 0.3-0.2 0.7-0.4 1.1-0.7 0 0 0.1 0.6 0.3 1.3 0 0.2 0.1 0.3 0.2 0.5l-0.2 0.2c-0.1 0.1-0.2 0.1-0.3 0.2-0.9 0.8-2.8 2.6-2.6 3.7s1.2 1.6 2.8 1.6c-0.1 0.1-0.7 0.4-1.4 0.9-1.1 0.7-2.5 1.5-3.2 2.1l-0.1 0.1c-1.3 1-1.9 2.5-4.1 4.2-2.3 1.7-2.2 3-3 6.5-0.4 1.5-0.8 3.1-1.1 4.3-0.4 1.6-0.8 2.7-0.8 2.7s-0.7 0.6-1.5 1.7v0.1s0 0.1-0.1 0.1v0.1c-0.3 0.5-0.7 1-1 1.6s-0.6 1.2-0.8 1.9l-0.3 1.2c-0.3 1.6-0.5 3.2-0.6 4.5 0 0.6-0.1 1.2-0.1 1.6v1.8s-0.4 0.5-1 1.4c-0.5 0.7-1 1.7-1.4 2.8-0.4 1-0.6 2.1-0.7 3.3-0.3 3.8 3.9 14.2 4.9 16.7-8.2-2.4-17.2-3.5-23.7-0.2-0.8 0.4-1.5 0.8-2.2 1.3-0.2 0.1-0.3 0.3-0.5 0.4h0.1l-0.7 0.7c-0.6 0.5-1.1 1-1.4 1.6-0.5 0.9-0.3 2.4 0.6 4.5 0.2 0.4 0.4 0.9 0.6 1.3 1 2 2.6 4.4 4.7 6.9 0.3 0.3 0.6 0.7 0.8 1 1.4 1.6 3.1 3.4 4.9 5.1l0.9 0.9c1.6 1.5 3.4 2.9 5.4 4.4 0.3 0.2 0.7 0.5 1 0.7 2.2 1.6 4.6 3.1 7.2 4.6 0.4 0.2 0.7 0.4 1.1 0.6 2.2 1.2 4.5 2.4 7 3.5 0.4 0.2 0.8 0.3 1.2 0.5 2.1 0.9 4.4 1.8 6.7 2.5 0.2 0.1 0.4 0.1 0.6 0.2 0.3 0 0.6-0.1 0.9-0.2 7.7-1.5 12.3-8.4 13.1-13.5v-0.3c0.2-1.3 0.1-2.4-0.3-3.3-0.5-2-1.5-4.6-3.7-7.9 0 0-1-2.4-2.2-4.3 0.1-2.9 0.2-7.3-0.1-10.6-0.5-5.3-2.2-9.5-1.9-12.4 0 0 2.5-1.2 4.6-10 0.3-1.1 0.5-2.3 0.8-3.6 0 0 0.1 0 0.2-0.1 1.1-0.4 6.7-2.4 8.9-7.4 2.5-5.5 4.9-6.3 6.3-5.5 1.3 0.9 6.9 6.2 15.1 5.8 0 0 0.2 0.5 0.7 1.3 0.5 0.9 1.2 2 2.1 3.2 1.3 1.7 3.1 3.5 5.1 4.5 0 0 0.9 4.5 0.8 11.3-0.1 5.1 0.5 11.4 2.2 15.3 0.3 1.8 0.8 3.4 0.8 3.4 0.4 4 1.3 6.7 2.1 8.5 0.3 0.9 0.9 1.9 1.9 2.8l0.2 0.2c3.8 3.5 11.8 5.9 18.7 2.3 0.3-0.1 0.5-0.3 0.8-0.5 0.1-0.2 0.2-0.3 0.3-0.5 1.3-2.1 2.5-4.1 3.6-6.2 0.2-0.4 0.4-0.8 0.6-1.1 1.2-2.4 2.3-4.8 3.2-7.1 0.2-0.4 0.3-0.8 0.5-1.2 1.1-2.8 1.9-5.5 2.7-8.1l0.3-1.2c0.6-2.4 1.1-4.6 1.4-6.8 0.1-0.4 0.1-0.8 0.2-1.3 0.4-2.5 0.6-4.9 0.7-7.1v-1.3c0.6-3.2 0.3-6-0.2-8.2zm-103-6.6zm15.4-24.1h-0.2c-0.2 0-0.3-0.1-0.4-0.2-0.1 0-0.1-0.1-0.2-0.2v-0.1-0.2c0-0.2 0.1-0.5 0.2-0.8 0-0.1 0.1-0.2 0.2-0.3 0.1-0.2 0.2-0.4 0.4-0.5l0.1-0.1c0.1-0.1 0.1-0.2 0.2-0.2 0.3-0.3 0.5-0.6 0.5-0.6s-0.6 1.4-0.8 3.2zm42.4-9.5s3.4-0.6 3.9 0.2c0.4 0.5 0.1 1.4-1.2 1.9-0.5 0.2-1.2 0.3-2 0.4-0.2-0.6-0.4-1.4-0.7-2.2-0.1 0-0.1-0.1 0-0.3z" fill="url(#c)" opacity=".57"/>
	


</svg>
