<?xml version="1.0" encoding="utf-8"?>
<!-- Generator: Adobe Illustrator 26.0.0, SVG Export Plug-In . SVG Version: 6.00 Build 0)  -->
<svg version="1.1" id="Layer_1" xmlns="http://www.w3.org/2000/svg" xmlns:xlink="http://www.w3.org/1999/xlink" x="0px" y="0px"
	 viewBox="0 0 488 488" style="enable-background:new 0 0 488 488;" xml:space="preserve">
<style type="text/css">
	.st0{fill:#0B3A5E;}
</style>
<g transform="translate(0 -540.36)">
	<g>
		<g>
			<path class="st0" d="M351.1,847L254,779.1V662.4c0-5.5-4.5-10-10-10s-10,4.5-10,10v122c0,3.3,1.6,6.3,4.3,8.2l101.4,70.9
				c1.7,1.2,3.7,1.8,5.7,1.8l0,0c3.1,0,6.2-1.5,8.2-4.4C356.7,856.4,355.6,850.2,351.1,847z"/>
			<path class="st0" d="M416.4,612L416.4,612C370.2,565.8,309,540.4,244,540.4S117.8,565.8,71.6,612S0,719.4,0,784.4
				s25.4,126.2,71.6,172.4s107.4,71.6,172.4,71.6s126.2-25.4,172.4-71.6S488,849.4,488,784.4S462.6,658.2,416.4,612z M254,1008.2
				L254,1008.2v-40.8c0-5.5-4.5-10-10-10s-10,4.5-10,10v40.8C118.4,1003.1,25.3,910,20.2,794.4H61c5.5,0,10-4.5,10-10s-4.5-10-10-10
				H20.2c5.1-115.6,98.2-208.7,213.8-213.8v40.8c0,5.5,4.5,10,10,10s10-4.5,10-10v-40.8c115.6,5.1,208.7,98.2,213.8,213.8H427
				c-5.5,0-10,4.5-10,10s4.5,10,10,10h40.8C462.7,910,369.6,1003.1,254,1008.2z"/>
		</g>
	</g>
</g>
</svg>
