<?xml version="1.0" encoding="utf-8"?>
<!-- Generator: Adobe Illustrator 26.0.0, SVG Export Plug-In . SVG Version: 6.00 Build 0)  -->
<svg version="1.1" id="Layer_1" xmlns="http://www.w3.org/2000/svg" xmlns:xlink="http://www.w3.org/1999/xlink" x="0px" y="0px"
	 viewBox="0 0 31.1 40" style="enable-background:new 0 0 31.1 40;" xml:space="preserve">
<style type="text/css">
	.st0{fill:#CDD400;}
</style>
<g>
	<path class="st0" d="M15.5,3.1C8.3,3.1,2.4,9,2.4,16.2c0,7,11.8,19.9,12.3,20.4c0.3,0.3,0.5,0.3,0.8,0.3s0.7-0.2,0.8-0.3
		c0.5-0.5,12.3-13.3,12.3-20.4C28.8,9,22.8,3.1,15.5,3.1z M15.5,34C11.9,30,4.8,20.9,4.8,16.2c0-5.9,4.8-10.9,10.9-10.9
		c5.9,0,10.9,4.8,10.9,10.9C26.4,20.9,19.3,30,15.5,34z"/>
	<path class="st0" d="M15.5,9.8c-3.3,0-5.9,2.6-5.9,5.9s2.6,5.9,5.9,5.9s5.9-2.6,5.9-5.9S18.9,9.8,15.5,9.8z M15.5,19.3
		c-2,0-3.6-1.6-3.6-3.6s1.6-3.6,3.6-3.6s3.6,1.6,3.6,3.6S17.6,19.3,15.5,19.3z"/>
</g>
</svg>
