<?xml version="1.0" encoding="utf-8"?>
<!-- Generator: Adobe Illustrator 26.0.0, SVG Export Plug-In . SVG Version: 6.00 Build 0)  -->
<svg version="1.1" id="Layer_1" xmlns="http://www.w3.org/2000/svg" xmlns:xlink="http://www.w3.org/1999/xlink" x="0px" y="0px"
	 viewBox="0 0 31.1 40" style="enable-background:new 0 0 31.1 40;" xml:space="preserve">
<style type="text/css">
	.st0{fill:#CDD400;}
</style>
<path class="st0" d="M25.5,4.1H5.6c-2.2,0-4,1.8-4,4V22c0,2.2,1.8,4,4,4h19.9c2.2,0,4-1.8,4-4V8.1C29.5,5.9,27.7,4.1,25.5,4.1z
	 M25.5,6c0.2,0,0.3,0,0.5,0.1l-8.4,9.5c-0.5,0.6-1.3,0.9-2,0.9c-0.8,0-1.5-0.3-2-0.9L5.1,6.1C5.3,6.1,5.4,6,5.6,6H25.5z M27.6,22
	c0,1.2-0.9,2.1-2.1,2.1H5.6c-1.2,0-2.1-0.9-2.1-2.1V8.1c0-0.3,0.1-0.6,0.2-0.8l8.4,9.5c0.9,1,2.1,1.6,3.5,1.6s2.6-0.6,3.5-1.6
	l8.4-9.5c0.1,0.2,0.2,0.5,0.2,0.8L27.6,22L27.6,22z"/>
</svg>
