<?xml version="1.0" encoding="utf-8"?>
<!-- Generator: Adobe Illustrator 26.0.0, SVG Export Plug-In . SVG Version: 6.00 Build 0)  -->
<svg version="1.1" id="Layer_1" xmlns="http://www.w3.org/2000/svg" xmlns:xlink="http://www.w3.org/1999/xlink" x="0px" y="0px"
	 viewBox="0 0 31.1 40" style="enable-background:new 0 0 31.1 40;" xml:space="preserve">
<style type="text/css">
	.st0{fill:#CDD400;}
</style>
<g>
	<path class="st0" d="M22.4,3.1H8.7c-2.8,0-5,2.2-5,5v23.8c0,2.8,2.2,5,5,5h13.7c2.8,0,5-2.2,5-5V8.1C27.4,5.3,25.2,3.1,22.4,3.1z
		 M8.7,5.4h13.7c1.5,0,2.7,1.2,2.7,2.7v19.1H6V8.1C6,6.6,7.2,5.4,8.7,5.4z M22.4,34.6H8.7c-1.5,0-2.7-1.2-2.7-2.7v-2.4h19.1v2.4
		C25.1,33.4,23.9,34.6,22.4,34.6z"/>
	<path class="st0" d="M15.2,8.7c0.5,0,0.9-0.4,0.9-0.9s-0.4-0.9-0.9-0.9s-0.9,0.4-0.9,0.9S14.7,8.7,15.2,8.7z"/>
	<path class="st0" d="M15.2,30.9c-0.5,0-0.9,0.4-0.9,0.9s0.4,0.9,0.9,0.9s0.9-0.4,0.9-0.9C16.2,31.3,15.7,30.9,15.2,30.9z"/>
</g>
</svg>
