<?xml version="1.0" encoding="utf-8"?>
<!-- Generator: Adobe Illustrator 26.0.0, SVG Export Plug-In . SVG Version: 6.00 Build 0)  -->
<svg version="1.1" id="Layer_1" xmlns="http://www.w3.org/2000/svg" xmlns:xlink="http://www.w3.org/1999/xlink" x="0px" y="0px"
	 viewBox="0 0 40 40" style="enable-background:new 0 0 40 40;" xml:space="preserve">
<style type="text/css">
	.st0{fill:#FFFFFF;}
</style>
<path class="st0" d="M33.51,5.07H6.49C3.46,5.07,1,7.54,1,10.56v18.88c0,3.02,2.46,5.49,5.49,5.49h27.03c3.03,0,5.49-2.46,5.49-5.49
	V10.56C39,7.54,36.54,5.07,33.51,5.07z M33.51,7.7c0.22,0,0.44,0.03,0.65,0.08l-11.4,12.94c-0.7,0.79-1.71,1.25-2.76,1.25
	c-1.06,0-2.06-0.45-2.76-1.25L5.83,7.77C6.04,7.73,6.26,7.7,6.49,7.7H33.51z M36.38,29.44c0,1.58-1.28,2.86-2.86,2.86H6.49
	c-1.58,0-2.86-1.28-2.86-2.86V10.56c0-0.38,0.08-0.75,0.21-1.09l11.43,12.97c1.2,1.36,2.92,2.14,4.73,2.14
	c1.81,0,3.53-0.78,4.73-2.14L36.16,9.48c0.14,0.33,0.21,0.7,0.21,1.08V29.44z"/>
</svg>
