<?xml version="1.0" encoding="utf-8"?>
<!-- Generator: Adobe Illustrator 26.0.0, SVG Export Plug-In . SVG Version: 6.00 Build 0)  -->
<svg version="1.1" id="Layer_1" xmlns="http://www.w3.org/2000/svg" xmlns:xlink="http://www.w3.org/1999/xlink" x="0px" y="0px"
	 viewBox="0 0 40 40" style="enable-background:new 0 0 40 40;" xml:space="preserve">
<style type="text/css">
	.st0{fill:#FFFFFF;}
</style>
<path d="M85.51,5.07H58.49c-3.02,0-5.49,2.46-5.49,5.49v18.88c0,3.02,2.46,5.49,5.49,5.49h27.03c3.03,0,5.49-2.46,5.49-5.49V10.56
	C91,7.54,88.54,5.07,85.51,5.07z M85.51,7.7c0.22,0,0.44,0.03,0.65,0.08l-11.4,12.94c-0.7,0.79-1.71,1.25-2.76,1.25
	c-1.06,0-2.06-0.45-2.76-1.25L57.83,7.77c0.21-0.05,0.43-0.08,0.65-0.08H85.51z M88.38,29.44c0,1.58-1.28,2.86-2.86,2.86H58.49
	c-1.58,0-2.86-1.28-2.86-2.86V10.56c0-0.38,0.08-0.75,0.21-1.09l11.43,12.97c1.2,1.36,2.92,2.14,4.73,2.14
	c1.81,0,3.53-0.78,4.73-2.14L88.16,9.48c0.14,0.33,0.21,0.7,0.21,1.08V29.44z"/>
<g>
	<g>
		<path class="st0" d="M20,38L20,38c-0.35,0-0.68-0.14-0.92-0.4C18.55,37.03,6.01,23.44,6.01,15.99C6.01,8.28,12.28,2,20,2
			s13.99,6.28,13.99,13.99c0,7.44-12.54,21.03-13.08,21.61C20.68,37.86,20.35,38,20,38z M20,4.5c-6.34,0-11.49,5.15-11.49,11.49
			c0,4.94,7.59,14.51,11.49,18.89c3.9-4.39,11.49-13.95,11.49-18.89C31.49,9.66,26.34,4.5,20,4.5z"/>
	</g>
	<g>
		<path class="st0" d="M20,21.68c-3.47,0-6.3-2.83-6.3-6.3c0-3.47,2.83-6.3,6.3-6.3c3.47,0,6.3,2.83,6.3,6.3
			C26.3,18.86,23.47,21.68,20,21.68z M20,11.59c-2.09,0-3.8,1.7-3.8,3.8c0,2.09,1.7,3.8,3.8,3.8c2.09,0,3.8-1.7,3.8-3.8
			C23.8,13.29,22.09,11.59,20,11.59z"/>
	</g>
</g>
</svg>
