<?xml version="1.0" encoding="utf-8"?>
<!-- Generator: Adobe Illustrator 26.0.0, SVG Export Plug-In . SVG Version: 6.00 Build 0)  -->
<svg version="1.1" id="Capa_1" xmlns="http://www.w3.org/2000/svg" xmlns:xlink="http://www.w3.org/1999/xlink" x="0px" y="0px"
	 viewBox="0 0 330 330" style="enable-background:new 0 0 330 330;" xml:space="preserve">
<style type="text/css">
	.st0{fill:#0B3A5E;}
</style>
<image style="overflow:visible;" width="2560" height="1080" xlink:href="ACA2CE2C.jpg"  transform="matrix(1 0 0 1 -7232 -7652)">
</image>
<g>
	<g>
		<path class="st0" d="M165,0C74,0,0,74,0,165s74,165,165,165s165-74,165-165S256,0,165,0z M165,300c-74.4,0-135-60.6-135-135
			S90.6,30,165,30s135,60.6,135,135S239.4,300,165,300z"/>
		<g>
			<path class="st0" d="M114.6,216.1l-0.7-0.7c-5.7-5.7-5.7-15,0-20.7l80.8-80.8c5.7-5.7,15-5.7,20.7,0l0.7,0.7
				c5.7,5.7,5.7,15,0,20.7l-80.8,80.8C129.6,221.8,120.3,221.8,114.6,216.1z"/>
			<path class="st0" d="M216.1,215.4l-0.7,0.7c-5.7,5.7-15,5.7-20.7,0l-80.8-80.8c-5.7-5.7-5.7-15,0-20.7l0.7-0.7
				c5.7-5.7,15-5.7,20.7,0l80.8,80.8C221.8,200.4,221.8,209.7,216.1,215.4z"/>
		</g>
	</g>
</g>
</svg>
