<?xml version="1.0" encoding="utf-8"?>
<!-- Generator: Adobe Illustrator 26.0.0, SVG Export Plug-In . SVG Version: 6.00 Build 0)  -->
<svg version="1.1" id="Camada_1" xmlns="http://www.w3.org/2000/svg" xmlns:xlink="http://www.w3.org/1999/xlink" x="0px" y="0px"
	 viewBox="0 0 200 136.8" style="enable-background:new 0 0 200 136.8;" xml:space="preserve">
<style type="text/css">
	.st0{fill:none;}
	.st1{fill:none;stroke:#CCCCCC;stroke-width:0.2;stroke-miterlimit:10;}
	.st2{opacity:0.5;fill:url(#SVGID_00000177482748068239380650000013984229985103532458_);enable-background:new    ;}
</style>
<pattern  x="-64.4" y="142.8" width="40.4" height="22.9" patternUnits="userSpaceOnUse" id="SVGID_1_" viewBox="10.1 -34.3 40.4 22.9" style="overflow:visible;">
	<g>
		<rect x="10.1" y="-34.3" class="st0" width="40.4" height="22.9"/>
		<g>
			<rect x="10.1" y="-34.3" class="st0" width="40.4" height="22.9"/>
			<g>
				<rect x="10.1" y="-34.3" class="st0" width="40.4" height="22.9"/>
				<g>
					<path class="st1" d="M49.3-17.6c2.8-1.7,6.4-0.8,8.1,1.9l2.5-1.5c0.7-0.4,0.8-1.3,0.3-1.9C57-22.9,51.4-24,47-21.3
						c-4.8,3-6.3,9.3-3.4,14.1l2.7-1.6c0.5-0.3,0.8-1,0.5-1.6C45.8-13,46.8-16.1,49.3-17.6z"/>
					<path class="st1" d="M51.7-5.3c-2.8,1.7-6.4,0.8-8.1-1.9l-2.5,1.5c-0.7,0.4-0.8,1.3-0.3,1.9C44,0.1,49.6,1.1,54-1.6
						c4.8-3,6.3-9.3,3.4-14.1L54.7-14c-0.5,0.3-0.8,1-0.5,1.6C55.2-9.9,54.2-6.8,51.7-5.3z"/>
				</g>
				<g>
					<path class="st1" d="M8.9-17.6c2.8-1.7,6.4-0.8,8.1,1.9l2.5-1.5c0.7-0.4,0.8-1.3,0.3-1.9C16.6-22.9,11-24,6.6-21.3
						c-4.8,3-6.3,9.3-3.4,14.1l2.7-1.6c0.5-0.3,0.8-1,0.5-1.6C5.4-13,6.4-16.1,8.9-17.6z"/>
					<path class="st1" d="M11.3-5.3C8.6-3.6,4.9-4.4,3.2-7.2L0.7-5.7C0.1-5.3-0.1-4.4,0.4-3.8C3.6,0,9.2,1.1,13.6-1.6
						c4.8-3,6.3-9.3,3.4-14.1L14.3-14c-0.5,0.3-0.8,1-0.5,1.6C14.8-9.9,13.8-6.8,11.3-5.3z"/>
				</g>
				<g>
					<path class="st1" d="M49.3-40.5c2.8-1.7,6.4-0.8,8.1,1.9l2.5-1.5c0.7-0.4,0.8-1.3,0.3-1.9c-3.2-3.8-8.8-4.9-13.2-2.2
						c-4.8,3-6.3,9.3-3.4,14.1l2.7-1.6c0.5-0.3,0.8-1,0.5-1.6C45.8-35.9,46.8-38.9,49.3-40.5z"/>
					<path class="st1" d="M51.7-28.2c-2.8,1.7-6.4,0.8-8.1-1.9l-2.5,1.5c-0.7,0.4-0.8,1.3-0.3,1.9c3.2,3.8,8.8,4.9,13.2,2.2
						c4.8-3,6.3-9.3,3.4-14.1L54.7-37c-0.5,0.3-0.8,1-0.5,1.6C55.2-32.7,54.2-29.7,51.7-28.2z"/>
				</g>
				<g>
					<path class="st1" d="M29.1-29c2.8-1.7,6.4-0.8,8.1,1.9l2.5-1.5c0.7-0.4,0.8-1.3,0.3-1.9c-3.2-3.8-8.8-4.9-13.2-2.2
						c-4.8,3-6.3,9.3-3.4,14.1l2.7-1.6c0.5-0.3,0.8-1,0.5-1.6C25.6-24.5,26.6-27.5,29.1-29z"/>
					<path class="st1" d="M31.5-16.7c-2.8,1.7-6.4,0.8-8.1-1.9l-2.5,1.5c-0.7,0.4-0.8,1.3-0.3,1.9c3.2,3.8,8.8,4.9,13.2,2.2
						c4.8-3,6.3-9.3,3.4-14.1l-2.7,1.6c-0.5,0.3-0.8,1-0.5,1.6C35-21.3,34-18.2,31.5-16.7z"/>
				</g>
				<g>
					<path class="st1" d="M8.9-40.5c2.8-1.7,6.4-0.8,8.1,1.9l2.5-1.5c0.7-0.4,0.8-1.3,0.3-1.9c-3.2-3.8-8.8-4.9-13.2-2.2
						c-4.8,3-6.3,9.3-3.4,14.1l2.7-1.6c0.5-0.3,0.8-1,0.5-1.6C5.4-35.9,6.4-38.9,8.9-40.5z"/>
					<path class="st1" d="M11.3-28.2c-2.8,1.7-6.4,0.8-8.1-1.9l-2.5,1.5c-0.7,0.4-0.8,1.3-0.3,1.9c3.2,3.8,8.8,4.9,13.2,2.2
						c4.8-3,6.3-9.3,3.4-14.1L14.3-37c-0.5,0.3-0.8,1-0.5,1.6C14.8-32.7,13.8-29.7,11.3-28.2z"/>
				</g>
			</g>
		</g>
	</g>
</pattern>
<pattern  id="SVGID_00000174590948079001507370000000950692705450059932_" xlink:href="#SVGID_1_" patternTransform="matrix(1 0 0 1 -402 16366.2852)">
</pattern>
<rect style="opacity:0.5;fill:url(#SVGID_00000174590948079001507370000000950692705450059932_);enable-background:new    ;" width="200" height="136.8"/>
</svg>
