<?xml version="1.0" encoding="utf-8"?>
<!-- Generator: Adobe Illustrator 26.0.0, SVG Export Plug-In . SVG Version: 6.00 Build 0)  -->
<svg version="1.1" id="Layer_1" xmlns="http://www.w3.org/2000/svg" xmlns:xlink="http://www.w3.org/1999/xlink" x="0px" y="0px"
	 viewBox="0 0 512 512" style="enable-background:new 0 0 512 512;" xml:space="preserve">
<style type="text/css">
	.st0{fill:#0B3A5E;}
</style>
<g>
	<g>
		<g>
			<path class="st0" d="M344.3,0H8.5v512h235.4l100.5-108.8V0z M248.2,484.4v-76.5h70.6L248.2,484.4z M232.7,392.4v104.1H24v-481
				h304.8v376.9L232.7,392.4L232.7,392.4z"/>
			<polygon class="st0" points="352.6,15.5 368.9,15.5 368.9,496.5 272.2,496.5 272.2,512 384.4,512 384.4,0 352.6,0 			"/>
			<polygon class="st0" points="393.2,15.5 409.5,15.5 409.5,496.5 392,496.5 392,512 425,512 425,0 393.2,0 			"/>
			<polygon class="st0" points="432.1,15.5 448.4,15.5 448.4,496.5 430.9,496.5 430.9,512 463.9,512 463.9,0 432.1,0 			"/>
			<polygon class="st0" points="471.7,0 471.7,15.5 488,15.5 488,496.5 470.6,496.5 470.6,512 503.5,512 503.5,0 			"/>
			<rect x="56.3" y="48" class="st0" width="48" height="15.5"/>
			<rect x="56.3" y="112.1" class="st0" width="88.1" height="15.5"/>
			<rect x="56.3" y="176.2" class="st0" width="88.1" height="15.5"/>
			<rect x="56.3" y="144.1" class="st0" width="184.2" height="15.5"/>
			<rect x="56.3" y="448.5" class="st0" width="16" height="15.5"/>
			<rect x="88.3" y="448.5" class="st0" width="16" height="15.5"/>
			<rect x="120.4" y="448.5" class="st0" width="16" height="15.5"/>
		</g>
	</g>
</g>
</svg>
