<?xml version="1.0" encoding="utf-8"?>
<!-- Generator: Adobe Illustrator 26.0.0, SVG Export Plug-In . SVG Version: 6.00 Build 0)  -->
<svg version="1.1" id="Layer_1" xmlns="http://www.w3.org/2000/svg" xmlns:xlink="http://www.w3.org/1999/xlink" x="0px" y="0px"
	 viewBox="0 0 100 100" fill="#FFF" style="enable-background:new 0 0 100 100;" xml:space="preserve">
<g>
	<g>
		<path d="M76.47,17.86c-3.24,0-5.86,2.62-5.86,5.86c0,3.24,2.62,5.86,5.86,5.86c3.24,0,5.86-2.62,5.86-5.86
			C82.34,20.48,79.71,17.86,76.47,17.86z"/>
		<path d="M50.41,25.37c-13.58,0-24.63,11.05-24.63,24.63c0,13.58,11.05,24.63,24.63,24.63c13.58,0,24.63-11.05,24.63-24.63
			C75.04,36.42,63.99,25.37,50.41,25.37z M50.41,65.78c-8.7,0-15.78-7.08-15.78-15.78s7.08-15.77,15.78-15.77
			c8.7,0,15.77,7.08,15.77,15.77S59.11,65.78,50.41,65.78z"/>
		<path d="M69.96,100H30.04C13.47,100,0,86.53,0,69.96V30.04C0,13.47,13.47,0,30.04,0h39.92C86.52,0,100,13.47,100,30.04v39.93
			C100,86.53,86.52,100,69.96,100z M30.04,9.41c-11.38,0-20.63,9.25-20.63,20.63v39.93c0,11.38,9.25,20.63,20.63,20.63h39.92
			c11.38,0,20.63-9.25,20.63-20.63V30.04c0-11.38-9.25-20.63-20.63-20.63H30.04z"/>
	</g>
</g>
</svg>
