<?xml version="1.0" encoding="utf-8"?>
<!-- Generator: Adobe Illustrator 25.2.0, SVG Export Plug-In . SVG Version: 6.00 Build 0)  -->
<svg version="1.1" id="Layer_1" xmlns="http://www.w3.org/2000/svg" xmlns:xlink="http://www.w3.org/1999/xlink" x="0px" y="0px"
	 viewBox="0 0 61 74" style="enable-background:new 0 0 61 74;" xml:space="preserve">
<style type="text/css">
	.st0{fill:#0B3A5E;}
	.st1{fill:#F9AE42;}
	.st2{fill:#FFFFFF;}
	.st3{opacity:0.5;fill:url(#SVGID_1_);}
</style>
<g>
	<polygon class="st0" points="26.8,73.9 19.2,63.4 7.1,68.1 16.2,37.4 35.9,43.3 	"/>
	<polygon class="st0" points="33,73.9 40.6,63.4 52.7,68.1 43.6,37.4 23.9,43.3 	"/>
	<g>
		<path class="st1" d="M60.5,28.8c0,3.1-3.4,5.6-4.3,8.3c-0.9,2.9,0.3,6.9-1.4,9.3c-1.8,2.4-6,2.5-8.4,4.2c-2.4,1.7-3.7,5.8-6.6,6.7
			c-2.8,0.9-6.2-1.5-9.3-1.5c-3.1,0-6.5,2.4-9.3,1.5c-2.9-0.9-4.2-5-6.6-6.7c-2.4-1.8-6.6-1.8-8.4-4.2c-1.7-2.4-0.5-6.4-1.4-9.3
			c-0.9-2.8-4.3-5.3-4.3-8.3c0-3.1,3.4-5.6,4.3-8.3c0.9-2.9-0.3-6.9,1.4-9.3c1.8-2.4,6-2.4,8.4-4.2c2.4-1.7,3.7-5.8,6.6-6.7
			c2.8-0.9,6.2,1.5,9.3,1.5c3.1,0,6.5-2.4,9.3-1.5c2.9,0.9,4.2,5,6.6,6.7c2.4,1.8,6.6,1.8,8.4,4.2c1.7,2.4,0.5,6.4,1.4,9.3
			C57.1,23.2,60.5,25.7,60.5,28.8z"/>
		<path class="st2" d="M51,28.8c0,11.3-9.1,20.4-20.4,20.4c-11.3,0-20.4-9.1-20.4-20.4c0-11.3,9.1-20.4,20.4-20.4
			C41.8,8.4,51,17.5,51,28.8z"/>
		
			<radialGradient id="SVGID_1_" cx="38.3518" cy="21.7463" r="29.1251" gradientTransform="matrix(0.9973 0 0 0.9973 -4.584931e-02 -0.1251)" gradientUnits="userSpaceOnUse">
			<stop  offset="0" style="stop-color:#FFFFFF;stop-opacity:0"/>
			<stop  offset="1" style="stop-color:#FFFFFF"/>
		</radialGradient>
		<path class="st3" d="M54.5,10.8L14.6,50.6c-2.3-1.6-6.1-1.8-8-3.8L46.4,7C48.7,8.6,52.6,8.8,54.5,10.8z M39.8,0.3
			c-2.8-0.9-6.2,1.5-9.3,1.5c-1.5,0-3.1-0.6-4.6-1.1L2.9,23.8c-1.1,1.6-2.3,3.2-2.3,5c0,3.1,3.4,5.6,4.3,8.3c0.3,1,0.4,2.2,0.4,3.3
			L42.9,2.8C42,1.7,41.1,0.7,39.8,0.3z M56.2,20.5c0-0.1,0-0.1-0.1-0.2L19.9,56.6c0.4,0.3,0.9,0.6,1.4,0.8c2.1,0.7,4.7-0.6,7.2-1.2
			l30.8-30.8C58.2,23.7,56.8,22.1,56.2,20.5z"/>
	</g>
</g>
<g>
	<g>
		<g>
			<path class="st0" d="M20.4,32.8v-2.4h12.2v2.4H20.4z M21,27.8v-2.4h12.1v2.4H21z M22.4,35.6L24,22.7h2.5l-1.6,12.8H22.4z
				 M27.1,35.6l1.6-12.8h2.5l-1.6,12.8H27.1z"/>
			<path class="st0" d="M36,35.6V24l1.6,1.5h-4v-2.8h6v12.8H36z"/>
		</g>
	</g>
</g>
</svg>
