<?xml version="1.0" encoding="utf-8"?>
<!-- Generator: Adobe Illustrator 25.2.0, SVG Export Plug-In . SVG Version: 6.00 Build 0)  -->
<svg version="1.1" id="Layer_1" xmlns="http://www.w3.org/2000/svg" xmlns:xlink="http://www.w3.org/1999/xlink" x="0px" y="0px"
	 viewBox="0 0 300 122" style="enable-background:new 0 0 300 122;" xml:space="preserve">
<style type="text/css">
	.st0{fill:#083A5F;}
	.st1{fill:#CCD600;}
</style>
<g>
	<g>
		<path class="st0" d="M105.07,87.74l5.44-44.95h2.87l-5.47,44.95H105.07z"/>
		<path class="st0" d="M125.61,57l-3.74,30.74H119L122.74,57H125.61z M127.86,46.41c0,0.37-0.07,0.72-0.22,1.03
			c-0.14,0.32-0.34,0.6-0.59,0.85s-0.53,0.44-0.85,0.59c-0.32,0.14-0.64,0.22-0.97,0.22c-0.35,0-0.68-0.07-0.99-0.22
			c-0.31-0.14-0.58-0.34-0.82-0.59c-0.24-0.25-0.43-0.53-0.57-0.85c-0.14-0.32-0.22-0.66-0.22-1.03c0-0.37,0.07-0.72,0.22-1.05
			c0.14-0.33,0.33-0.62,0.57-0.88c0.24-0.26,0.51-0.46,0.82-0.6c0.31-0.14,0.64-0.22,0.99-0.22c0.33,0,0.65,0.07,0.97,0.22
			c0.32,0.14,0.6,0.34,0.85,0.59s0.44,0.54,0.59,0.88C127.79,45.68,127.86,46.04,127.86,46.41z"/>
		<path class="st0" d="M152.89,65c-0.02,1.13-0.17,2.16-0.45,3.09c-0.28,0.93-0.62,1.78-1.04,2.55c-0.41,0.77-0.86,1.49-1.34,2.16
			c-0.48,0.67-0.93,1.32-1.34,1.96c-0.41,0.64-0.75,1.29-1.02,1.95c-0.27,0.66-0.4,1.36-0.4,2.1c0,0.62,0.12,1.19,0.37,1.71
			c0.25,0.52,0.55,1.03,0.91,1.53c0.36,0.49,0.76,0.99,1.19,1.5c0.43,0.51,0.83,1.04,1.19,1.59c0.36,0.56,0.66,1.16,0.91,1.82
			c0.25,0.66,0.37,1.39,0.37,2.19c0,1.3-0.33,2.55-0.99,3.75c-0.66,1.2-1.59,2.27-2.78,3.2c-1.19,0.93-2.63,1.67-4.31,2.22
			c-1.68,0.56-3.55,0.83-5.61,0.83c-1.63,0-3.12-0.17-4.46-0.49c-1.35-0.33-2.51-0.81-3.49-1.43c-0.98-0.63-1.73-1.39-2.27-2.3
			c-0.54-0.91-0.8-1.93-0.8-3.08c0-1.48,0.39-2.79,1.16-3.93c0.77-1.14,1.82-2.1,3.15-2.88s2.87-1.38,4.63-1.79
			c1.76-0.41,3.65-0.62,5.67-0.62c0.7,0,1.4,0.03,2.1,0.08c0.7,0.05,1.41,0.13,2.13,0.23c-0.35-0.48-0.64-0.98-0.88-1.52
			c-0.24-0.54-0.36-1.14-0.36-1.8c0-0.72,0.12-1.46,0.37-2.2c0.25-0.74,0.72-1.64,1.42-2.69c-0.85,0.58-1.74,1.02-2.67,1.33
			c-0.94,0.31-1.96,0.46-3.07,0.46c-1.17,0-2.27-0.19-3.27-0.56c-1.01-0.37-1.88-0.92-2.61-1.65c-0.73-0.73-1.3-1.63-1.71-2.69
			c-0.41-1.06-0.62-2.29-0.62-3.69c0-1.42,0.25-2.82,0.76-4.19c0.5-1.37,1.24-2.59,2.19-3.66c0.96-1.07,2.14-1.93,3.54-2.58
			c1.4-0.65,3-0.97,4.79-0.97c1.05,0,2.04,0.13,2.97,0.39s1.75,0.64,2.47,1.16h8.03l-0.12,0.99c-0.02,0.21-0.1,0.39-0.23,0.54
			c-0.13,0.15-0.35,0.25-0.63,0.29l-5.01,0.4c0.37,0.64,0.66,1.35,0.87,2.13C152.79,63.22,152.89,64.08,152.89,65z M149.55,89.35
			c0-1.01-0.17-1.87-0.49-2.59c-0.33-0.72-0.73-1.38-1.2-1.98l0.03,0.09c-1.01-0.16-1.97-0.28-2.87-0.34
			c-0.91-0.06-1.78-0.09-2.63-0.09c-2.04,0-3.81,0.19-5.31,0.57c-1.5,0.38-2.75,0.9-3.75,1.54s-1.75,1.41-2.26,2.27
			c-0.5,0.87-0.76,1.77-0.76,2.72c0,0.89,0.2,1.67,0.6,2.36c0.4,0.69,0.97,1.27,1.71,1.73c0.74,0.46,1.64,0.82,2.69,1.07
			s2.21,0.37,3.49,0.37c1.61,0,3.07-0.22,4.39-0.65c1.32-0.43,2.45-1.01,3.38-1.73c0.94-0.72,1.66-1.54,2.18-2.47
			C149.26,91.29,149.53,90.34,149.55,89.35z M141.86,74.61c1.32,0,2.5-0.28,3.54-0.83c1.04-0.56,1.92-1.28,2.64-2.18
			c0.72-0.9,1.27-1.91,1.64-3.06c0.37-1.14,0.56-2.29,0.56-3.44c0-2.14-0.57-3.75-1.7-4.83c-1.13-1.08-2.66-1.62-4.57-1.62
			c-1.32,0-2.49,0.26-3.52,0.79c-1.03,0.52-1.9,1.22-2.61,2.08c-0.71,0.87-1.25,1.86-1.62,2.98c-0.37,1.12-0.56,2.27-0.56,3.45
			c0,2.18,0.56,3.84,1.67,4.97C138.43,74.05,139.94,74.61,141.86,74.61z"/>
		<path class="st0" d="M159.71,87.74l5.44-44.95h2.9l-2.84,23.48c0.82-1.54,1.73-2.92,2.73-4.12c1-1.2,2.05-2.22,3.15-3.06
			c1.1-0.83,2.23-1.47,3.38-1.9c1.15-0.43,2.32-0.65,3.49-0.65c2.31,0,4.03,0.74,5.17,2.22c1.14,1.48,1.71,3.61,1.71,6.39
			c0,0.17-0.01,0.36-0.02,0.57c-0.01,0.22-0.04,0.58-0.09,1.1c-0.05,0.51-0.13,1.25-0.23,2.21c-0.1,0.96-0.25,2.24-0.43,3.86
			c-0.19,1.62-0.42,3.63-0.69,6.06c-0.28,2.42-0.62,5.35-1.04,8.79h-2.9l2.32-19.65c0.12-0.95,0.19-1.84,0.19-2.69
			c0-2.1-0.4-3.7-1.19-4.79c-0.79-1.09-2.04-1.64-3.75-1.64c-1.11,0-2.24,0.28-3.4,0.85c-1.15,0.57-2.27,1.38-3.35,2.44
			s-2.11,2.34-3.07,3.85c-0.97,1.5-1.82,3.18-2.56,5.04l-2.01,16.59H159.71z"/>
		<path class="st0" d="M193.79,82.58c0-0.12,0.01-0.28,0.02-0.46s0.03-0.46,0.06-0.83c0.03-0.37,0.08-0.85,0.15-1.44
			c0.07-0.59,0.16-1.33,0.26-2.24l2.1-17.45h-4.05c-0.41,0-0.62-0.2-0.62-0.59l0.15-1.27l4.85-0.37l2.04-11
			c0.04-0.19,0.13-0.35,0.28-0.49c0.14-0.14,0.32-0.22,0.53-0.22h1.42l-1.45,11.74h8.9l-0.25,2.19h-8.9l-2.13,17.34
			c-0.1,0.84-0.19,1.53-0.25,2.07s-0.11,0.97-0.15,1.31c-0.04,0.34-0.07,0.59-0.08,0.76c-0.01,0.17-0.02,0.29-0.02,0.37
			c0,1.34,0.31,2.3,0.94,2.9c0.63,0.6,1.44,0.89,2.43,0.89c0.68,0,1.28-0.11,1.81-0.32c0.52-0.22,0.98-0.45,1.37-0.71
			c0.39-0.26,0.71-0.49,0.96-0.71c0.25-0.22,0.43-0.32,0.56-0.32c0.12,0,0.22,0.03,0.28,0.08c0.06,0.05,0.12,0.13,0.19,0.23
			l0.56,1.3c-0.82,0.87-1.82,1.57-3,2.11s-2.35,0.8-3.52,0.8c-1.69,0-3.01-0.46-3.97-1.39C194.3,85.92,193.81,84.5,193.79,82.58z"/>
		<path class="st1" d="M231.6,62.22c-0.21,0.33-0.42,0.56-0.65,0.69c-0.23,0.13-0.51,0.2-0.87,0.2c-0.37,0-0.77-0.1-1.19-0.31
			s-0.91-0.44-1.47-0.69c-0.56-0.26-1.19-0.49-1.9-0.69c-0.71-0.21-1.55-0.31-2.52-0.31c-1.5,0-2.69,0.32-3.55,0.96
			c-0.87,0.64-1.3,1.47-1.3,2.5c0,0.68,0.22,1.25,0.66,1.71s1.03,0.87,1.76,1.22c0.73,0.35,1.56,0.66,2.49,0.94s1.87,0.58,2.84,0.91
			c0.97,0.33,1.91,0.71,2.84,1.13c0.93,0.42,1.76,0.96,2.49,1.61c0.73,0.65,1.32,1.43,1.76,2.33c0.44,0.91,0.66,2,0.66,3.27
			c0,1.52-0.28,2.93-0.83,4.22c-0.56,1.29-1.37,2.4-2.44,3.34c-1.07,0.94-2.39,1.67-3.97,2.19c-1.58,0.52-3.38,0.79-5.42,0.79
			c-1.09,0-2.16-0.1-3.2-0.29c-1.04-0.2-2.04-0.47-3-0.82c-0.96-0.35-1.84-0.76-2.66-1.24s-1.53-0.99-2.15-1.54l1.76-2.9
			c0.23-0.35,0.49-0.62,0.8-0.8c0.31-0.18,0.7-0.28,1.17-0.28s0.92,0.13,1.34,0.4c0.42,0.27,0.91,0.56,1.47,0.87
			c0.56,0.31,1.21,0.6,1.96,0.87c0.75,0.27,1.7,0.4,2.86,0.4c0.91,0,1.68-0.11,2.33-0.32c0.65-0.22,1.18-0.5,1.61-0.85
			c0.42-0.35,0.73-0.76,0.93-1.22s0.29-0.94,0.29-1.44c0-0.74-0.22-1.35-0.66-1.82c-0.44-0.47-1.03-0.88-1.76-1.24
			c-0.73-0.35-1.57-0.66-2.5-0.94c-0.94-0.28-1.89-0.58-2.87-0.91c-0.98-0.33-1.94-0.71-2.87-1.16c-0.94-0.44-1.77-1-2.5-1.68
			c-0.73-0.68-1.32-1.51-1.76-2.5c-0.44-0.99-0.66-2.18-0.66-3.58c0-1.3,0.26-2.53,0.77-3.71c0.51-1.17,1.27-2.2,2.27-3.07
			c1-0.87,2.24-1.58,3.74-2.1c1.49-0.52,3.22-0.79,5.17-0.79c2.18,0,4.17,0.36,5.96,1.08c1.79,0.72,3.28,1.67,4.48,2.84L231.6,62.22
			z"/>
		<path class="st1" d="M252.89,55.55c2,0,3.83,0.32,5.51,0.96c1.68,0.64,3.13,1.57,4.34,2.8c1.22,1.23,2.16,2.73,2.84,4.51
			c0.68,1.78,1.02,3.82,1.02,6.1c0,0.58-0.03,1.05-0.08,1.44c-0.05,0.38-0.14,0.68-0.28,0.9c-0.13,0.22-0.31,0.37-0.54,0.46
			c-0.23,0.09-0.52,0.14-0.87,0.14h-19.59c0.23,3.25,1.1,5.64,2.63,7.17c1.52,1.52,3.54,2.29,6.06,2.29c1.24,0,2.3-0.14,3.2-0.43
			c0.9-0.29,1.68-0.61,2.35-0.96c0.67-0.35,1.26-0.67,1.76-0.96c0.5-0.29,0.99-0.43,1.47-0.43c0.31,0,0.58,0.06,0.8,0.19
			c0.23,0.12,0.42,0.3,0.59,0.53l2.22,2.78c-0.84,0.99-1.79,1.82-2.84,2.49c-1.05,0.67-2.15,1.2-3.29,1.61
			c-1.14,0.4-2.31,0.68-3.49,0.85c-1.18,0.17-2.33,0.25-3.45,0.25c-2.2,0-4.25-0.37-6.15-1.1c-1.9-0.73-3.54-1.81-4.94-3.24
			c-1.4-1.43-2.5-3.2-3.31-5.31c-0.8-2.11-1.2-4.56-1.2-7.34c0-2.16,0.35-4.2,1.05-6.1c0.7-1.9,1.7-3.56,3.01-4.97
			c1.31-1.41,2.9-2.53,4.79-3.35C248.39,55.96,250.52,55.55,252.89,55.55z M253.04,61.02c-2.22,0-3.96,0.63-5.22,1.88
			c-1.26,1.26-2.06,3.04-2.41,5.34h14.33c0-0.99-0.13-1.92-0.4-2.8s-0.68-1.64-1.24-2.3c-0.56-0.66-1.26-1.18-2.1-1.56
			C255.16,61.21,254.18,61.02,253.04,61.02z"/>
		<path class="st1" d="M283.78,55.49c1.36,0,2.64,0.14,3.83,0.42s2.29,0.68,3.28,1.22H300v2.84c0,0.47-0.12,0.84-0.37,1.11
			c-0.25,0.27-0.67,0.45-1.27,0.56l-2.84,0.52c0.21,0.54,0.37,1.1,0.48,1.7c0.11,0.6,0.17,1.22,0.17,1.88
			c0,1.57-0.31,2.98-0.94,4.25s-1.49,2.34-2.6,3.23c-1.1,0.89-2.41,1.57-3.92,2.05c-1.51,0.48-3.16,0.73-4.93,0.73
			c-1.19,0-2.36-0.11-3.49-0.34c-0.99,0.6-1.48,1.28-1.48,2.02c0,0.64,0.29,1.12,0.88,1.42c0.59,0.3,1.36,0.51,2.32,0.64
			c0.96,0.12,2.04,0.19,3.26,0.19c1.21,0,2.46,0.05,3.74,0.15c1.28,0.1,2.52,0.28,3.74,0.54c1.21,0.26,2.3,0.67,3.26,1.22
			c0.96,0.56,1.73,1.32,2.32,2.28c0.59,0.96,0.88,2.2,0.88,3.7c0,1.41-0.35,2.77-1.04,4.09c-0.69,1.32-1.69,2.5-3,3.53
			c-1.31,1.03-2.91,1.86-4.8,2.5c-1.89,0.63-4.06,0.95-6.49,0.95c-2.41,0-4.5-0.23-6.27-0.69s-3.24-1.08-4.4-1.85
			c-1.16-0.77-2.03-1.66-2.61-2.67c-0.58-1.01-0.87-2.06-0.87-3.15c0-1.48,0.45-2.73,1.36-3.74c0.91-1.01,2.16-1.81,3.77-2.41
			c-0.78-0.43-1.41-1.01-1.88-1.73c-0.47-0.72-0.71-1.66-0.71-2.81c0-0.47,0.08-0.96,0.25-1.47c0.16-0.5,0.42-1,0.76-1.5
			c0.34-0.5,0.77-0.96,1.28-1.41c0.51-0.44,1.12-0.84,1.82-1.19c-1.61-0.87-2.87-2.02-3.78-3.46c-0.92-1.44-1.37-3.13-1.37-5.07
			c0-1.57,0.31-2.98,0.94-4.25c0.63-1.27,1.5-2.35,2.63-3.24c1.12-0.9,2.45-1.58,3.99-2.06C280.3,55.73,281.97,55.49,283.78,55.49z
			 M292.15,89.07c0-0.63-0.19-1.15-0.56-1.54c-0.37-0.4-0.88-0.71-1.51-0.93c-0.64-0.22-1.38-0.38-2.24-0.49
			c-0.85-0.11-1.76-0.16-2.72-0.16c-0.96,0-1.95,0-2.97,0c-1.02,0-2-0.11-2.95-0.34c-0.87,0.47-1.56,1.03-2.09,1.68
			c-0.52,0.65-0.79,1.4-0.79,2.24c0,0.56,0.14,1.08,0.42,1.56c0.28,0.48,0.72,0.9,1.33,1.25c0.61,0.35,1.4,0.62,2.36,0.82
			c0.97,0.2,2.15,0.29,3.55,0.29c1.42,0,2.65-0.11,3.68-0.33c1.03-0.22,1.88-0.52,2.55-0.91c0.67-0.39,1.16-0.85,1.47-1.39
			C292,90.29,292.15,89.7,292.15,89.07z M283.78,71.12c0.95,0,1.77-0.13,2.47-0.39c0.7-0.26,1.28-0.61,1.75-1.07
			c0.46-0.45,0.81-1,1.05-1.64c0.24-0.64,0.36-1.34,0.36-2.1c0-1.57-0.47-2.81-1.41-3.72c-0.94-0.92-2.34-1.37-4.22-1.37
			s-3.28,0.46-4.22,1.37c-0.94,0.92-1.41,2.16-1.41,3.72c0,0.74,0.12,1.43,0.36,2.07c0.24,0.64,0.59,1.19,1.05,1.65
			c0.46,0.46,1.05,0.82,1.76,1.08C282.04,70.99,282.85,71.12,283.78,71.12z"/>
	</g>
	<path class="st1" d="M27.82,34.33c9.82-13.56,28.78-16.59,42.33-6.76l8.75-12.07c2.36-3.25,1.34-7.89-2.22-9.76
		C54.01-6.19,25.43,0.04,9.96,21.4C-7,44.81-1.77,77.55,21.64,94.52l9.38-12.95c1.88-2.59,1.66-6.17-0.56-8.48
		C20.51,62.71,19.08,46.39,27.82,34.33z"/>
	<path class="st0" d="M63.72,87.67c-9.82,13.56-28.78,16.59-42.33,6.76l-8.75,12.07c-2.36,3.25-1.34,7.89,2.22,9.76
		c22.67,11.92,51.25,5.69,66.72-15.66C98.54,77.19,93.31,44.45,69.9,27.48l-9.38,12.95c-1.88,2.59-1.66,6.17,0.56,8.48
		C71.03,59.29,72.46,75.61,63.72,87.67z"/>
</g>
</svg>
