<svg width="180" height="68" viewBox="0 0 180 68" fill="none" xmlns="http://www.w3.org/2000/svg">
<g clip-path="url(#clip0_265_56)">
<path d="M62.9711 50.8092L66.2189 23.8054H67.915L64.6672 50.8092H62.9711Z" fill="white"/>
<path d="M75.2406 32.3463L73.0032 50.8091H71.3071L73.5445 32.3463H75.2406ZM76.5758 25.986C76.5758 26.2041 76.5397 26.4222 76.4314 26.6039C76.3593 26.7856 76.2149 26.9673 76.0706 27.1127C75.9262 27.2581 75.7458 27.3671 75.5654 27.4762C75.3849 27.5488 75.1684 27.6215 74.988 27.6215C74.7715 27.6215 74.591 27.5852 74.4106 27.4762C74.2302 27.4035 74.0497 27.2581 73.9054 27.1127C73.761 26.9673 73.6528 26.7856 73.5806 26.6039C73.5084 26.4222 73.4363 26.2041 73.4363 25.986C73.4363 25.768 73.4723 25.5499 73.5806 25.3682C73.6528 25.1865 73.7971 25.0047 73.9054 24.823C74.0497 24.6777 74.1941 24.5323 74.4106 24.4596C74.591 24.3869 74.8075 24.3142 74.988 24.3142C75.1684 24.3142 75.3849 24.3506 75.5654 24.4596C75.7458 24.5323 75.9262 24.6777 76.0706 24.823C76.2149 24.9684 76.3232 25.1501 76.4314 25.3682C76.5397 25.5499 76.5758 25.768 76.5758 25.986Z" fill="white"/>
<path d="M91.5156 37.18C91.5156 37.8705 91.4074 38.4884 91.263 39.0335C91.0826 39.5787 90.9022 40.0875 90.6496 40.56C90.3969 41.0325 90.1443 41.4686 89.8557 41.8684C89.567 42.2682 89.3144 42.668 89.0617 43.0314C88.8091 43.4312 88.6287 43.7946 88.4483 44.1944C88.3039 44.5942 88.1957 44.994 88.1957 45.4665C88.1957 45.8299 88.2678 46.1933 88.4122 46.4841C88.5565 46.8112 88.737 47.1019 88.9535 47.3927C89.17 47.6835 89.4226 47.9742 89.6752 48.3013C89.9278 48.6284 90.1804 48.9192 90.397 49.2463C90.6135 49.5734 90.7939 49.9368 90.9383 50.3366C91.0826 50.7364 91.1548 51.1725 91.1548 51.645C91.1548 52.4082 90.9743 53.1714 90.5774 53.8983C90.1804 54.6252 89.6391 55.2794 88.9174 55.8246C88.1957 56.3697 87.3657 56.8422 86.3553 57.1693C85.3448 57.4964 84.2261 57.6781 82.9992 57.6781C82.0249 57.6781 81.1588 57.5691 80.3288 57.3874C79.5349 57.2056 78.8132 56.9149 78.2358 56.5151C77.6584 56.1517 77.1893 55.6792 76.8645 55.134C76.5397 54.5889 76.3953 53.971 76.3953 53.2805C76.3953 52.4082 76.6119 51.6086 77.081 50.9181C77.5501 50.2276 78.1636 49.646 78.9575 49.1736C79.7514 48.7011 80.6536 48.3377 81.7362 48.0832C82.7827 47.8288 83.9014 47.7198 85.1283 47.7198C85.5613 47.7198 85.9583 47.7198 86.3913 47.7561C86.8244 47.7925 87.2213 47.8288 87.6544 47.9015C87.4378 47.6108 87.2574 47.32 87.1131 46.9929C86.9687 46.6658 86.8966 46.3024 86.8966 45.9026C86.8966 45.4665 86.9687 45.0303 87.1131 44.5942C87.2574 44.1581 87.5461 43.6129 87.9431 42.9587C87.4378 43.3222 86.8966 43.5766 86.3553 43.7583C85.814 43.94 85.2005 44.049 84.5148 44.049C83.8292 44.049 83.1796 43.94 82.5662 43.7219C81.9527 43.5039 81.4475 43.1768 81.0144 42.7406C80.5814 42.3045 80.2205 41.7594 80.004 41.1415C79.7514 40.4873 79.6431 39.7604 79.6431 38.9245C79.6431 38.0886 79.7875 37.2163 80.1123 36.4168C80.401 35.5808 80.834 34.854 81.4114 34.2361C81.9888 33.6183 82.6744 33.0731 83.5044 32.6733C84.3344 32.2735 85.3087 32.0918 86.3553 32.0918C86.9687 32.0918 87.5822 32.1645 88.1235 32.3099C88.6648 32.4552 89.17 32.7096 89.603 33.0004H94.4026L94.3304 33.5819C94.3304 33.6909 94.2582 33.8 94.186 33.909C94.1139 34.018 93.9695 34.0544 93.8252 34.0907L90.83 34.3451C91.0465 34.7449 91.2269 35.1447 91.3352 35.6172C91.4435 36.0897 91.5156 36.5985 91.5156 37.18ZM89.5309 51.7904C89.5309 51.1725 89.4226 50.6637 89.2422 50.2276C89.0617 49.7914 88.8091 49.3916 88.5204 49.0282L88.5565 49.1009C87.9431 48.9919 87.3657 48.9192 86.8605 48.8828C86.3192 48.8465 85.814 48.8101 85.3087 48.8101C84.0818 48.8101 83.0353 48.9192 82.1331 49.1372C81.231 49.3553 80.4731 49.6824 79.8957 50.0822C79.2823 50.482 78.8492 50.9181 78.5605 51.4633C78.2719 51.9721 78.0914 52.5172 78.0914 53.0987C78.0914 53.6439 78.1997 54.1164 78.4523 54.5162C78.7049 54.916 79.0297 55.2794 79.4627 55.5701C79.8957 55.8609 80.4371 56.079 81.0505 56.2243C81.664 56.3697 82.3857 56.4424 83.1435 56.4424C84.1179 56.4424 84.984 56.297 85.7418 56.0426C86.5357 55.7882 87.1852 55.4248 87.7626 54.9886C88.3039 54.5525 88.737 54.0437 89.0617 53.4985C89.3504 52.9534 89.4948 52.3719 89.5309 51.7904ZM84.9118 42.9224C85.7057 42.9224 86.3913 42.7406 87.0048 42.4135C87.6183 42.0864 88.1596 41.6503 88.5926 41.1052C89.0257 40.56 89.3504 39.9421 89.567 39.2516C89.7835 38.5611 89.8917 37.8705 89.8917 37.18C89.8917 35.9079 89.567 34.9266 88.8813 34.2724C88.1957 33.6183 87.2935 33.2912 86.1387 33.2912C85.3448 33.2912 84.6592 33.4365 84.0457 33.7636C83.4322 34.0907 82.927 34.4905 82.494 34.9993C82.0609 35.5082 81.7362 36.126 81.5196 36.7802C81.3031 37.4707 81.1949 38.1613 81.1949 38.8518C81.1949 40.1602 81.5196 41.1415 82.2053 41.832C82.8909 42.5953 83.7931 42.9224 84.9118 42.9224Z" fill="white"/>
<path d="M95.5573 50.8092L98.8051 23.8054H100.537L98.8412 37.907C99.3464 36.962 99.8877 36.1624 100.465 35.4356C101.043 34.7087 101.692 34.0908 102.342 33.582C102.991 33.0732 103.677 32.7097 104.362 32.4553C105.048 32.2009 105.734 32.0556 106.455 32.0556C107.827 32.0556 108.873 32.4917 109.559 33.4003C110.245 34.3089 110.569 35.5809 110.569 37.2528C110.569 37.3618 110.569 37.4708 110.569 37.5799C110.569 37.7252 110.533 37.9433 110.497 38.2341C110.461 38.5612 110.425 38.9973 110.353 39.5788C110.281 40.1603 110.209 40.9235 110.1 41.9048C109.992 42.8861 109.848 44.0855 109.703 45.5393C109.523 46.993 109.342 48.7375 109.09 50.8092H107.358L108.729 38.9973C108.801 38.4158 108.837 37.907 108.837 37.3982C108.837 36.1261 108.585 35.1812 108.115 34.527C107.646 33.8728 106.889 33.5457 105.878 33.5457C105.229 33.5457 104.543 33.7274 103.857 34.0545C103.172 34.3816 102.486 34.8904 101.872 35.5083C101.223 36.1624 100.609 36.9257 100.032 37.8343C99.4547 38.7429 98.9495 39.7605 98.5164 40.8508L97.3256 50.8092H95.5573Z" fill="white"/>
<path d="M115.91 47.7198C115.91 47.6471 115.91 47.5381 115.91 47.429C115.91 47.32 115.946 47.1383 115.946 46.9202C115.982 46.7022 115.982 46.4114 116.055 46.048C116.091 45.6845 116.163 45.2484 116.199 44.7032L117.462 34.2361H115.044C114.791 34.2361 114.683 34.1271 114.683 33.8726L114.792 33.1094L117.678 32.8914L118.905 26.2767C118.941 26.1677 118.978 26.0586 119.086 25.986C119.158 25.9133 119.266 25.8406 119.411 25.8406H120.241L119.374 32.8914H124.679L124.535 34.1997H119.23L117.967 44.6305C117.895 45.1393 117.859 45.5391 117.823 45.8662C117.787 46.1933 117.751 46.4477 117.715 46.6658C117.678 46.8839 117.678 47.0292 117.678 47.1019C117.678 47.211 117.678 47.2837 117.678 47.32C117.678 48.1196 117.859 48.7011 118.256 49.0645C118.617 49.428 119.122 49.6097 119.699 49.6097C120.096 49.6097 120.457 49.537 120.782 49.428C121.107 49.2826 121.359 49.1736 121.612 48.9918C121.828 48.8465 122.045 48.7011 122.189 48.5557C122.334 48.4103 122.442 48.374 122.514 48.374C122.586 48.374 122.658 48.374 122.694 48.4103C122.731 48.4467 122.767 48.483 122.803 48.5557L123.128 49.3189C122.622 49.8277 122.045 50.2639 121.323 50.591C120.601 50.9181 119.916 51.0635 119.23 51.0635C118.22 51.0635 117.426 50.7727 116.848 50.2275C116.271 49.6824 115.91 48.8828 115.91 47.7198Z" fill="white"/>
<path d="M139.222 35.5084C139.114 35.6901 138.97 35.8355 138.825 35.9082C138.681 35.9809 138.5 36.0172 138.32 36.0172C138.103 36.0172 137.851 35.9445 137.598 35.8355C137.346 35.7265 137.057 35.5811 136.732 35.4357C136.407 35.2903 136.01 35.145 135.613 35.0359C135.18 34.9269 134.675 34.8542 134.098 34.8542C133.196 34.8542 132.51 35.0359 131.969 35.4357C131.427 35.8355 131.211 36.308 131.211 36.9258C131.211 37.3256 131.355 37.689 131.608 37.9435C131.86 38.2342 132.221 38.4523 132.654 38.6703C133.087 38.8884 133.593 39.0701 134.134 39.2518C134.675 39.4336 135.253 39.6153 135.83 39.797C136.407 39.9787 136.985 40.2331 137.526 40.4875C138.067 40.742 138.573 41.0691 139.006 41.4688C139.439 41.8686 139.8 42.3411 140.052 42.8863C140.305 43.4314 140.449 44.0856 140.449 44.8489C140.449 45.7575 140.269 46.5934 139.944 47.3929C139.619 48.1925 139.114 48.8467 138.5 49.3919C137.851 49.937 137.057 50.4095 136.119 50.7003C135.18 51.0274 134.098 51.1727 132.871 51.1727C132.221 51.1727 131.572 51.1001 130.958 50.991C130.345 50.882 129.731 50.7003 129.154 50.4822C128.577 50.2641 128.071 50.0097 127.566 49.7553C127.097 49.4646 126.664 49.1738 126.303 48.8104L127.35 47.0658C127.494 46.8478 127.638 46.7024 127.819 46.5934C127.999 46.4843 128.252 46.4117 128.504 46.4117C128.757 46.4117 129.046 46.4843 129.298 46.6661C129.551 46.8478 129.84 46.9932 130.164 47.1749C130.489 47.3566 130.886 47.5383 131.319 47.6837C131.752 47.8291 132.33 47.9381 133.015 47.9381C133.557 47.9381 134.026 47.8654 134.423 47.7564C134.82 47.6474 135.144 47.4656 135.397 47.2476C135.65 47.0295 135.83 46.7751 135.938 46.5207C136.047 46.2299 136.119 45.9392 136.119 45.6484C136.119 45.2123 135.974 44.8489 135.722 44.5581C135.469 44.2673 135.108 44.0129 134.675 43.8312C134.242 43.6131 133.737 43.4314 133.196 43.2497C132.654 43.068 132.077 42.8863 131.5 42.7045C130.922 42.5228 130.345 42.2684 129.804 42.014C129.262 41.7596 128.757 41.3962 128.324 40.9964C127.891 40.5966 127.53 40.0878 127.277 39.5063C127.025 38.9247 126.881 38.1979 126.881 37.3619C126.881 36.5987 127.025 35.8355 127.35 35.1449C127.674 34.4544 128.107 33.8366 128.721 33.2914C129.334 32.7826 130.056 32.3464 130.958 32.0193C131.86 31.6923 132.871 31.5469 134.062 31.5469C135.361 31.5469 136.552 31.7649 137.634 32.2011C138.717 32.6372 139.583 33.2187 140.305 33.9092L139.222 35.5084Z" fill="#CDD400"/>
<path d="M151.925 31.4741C153.115 31.4741 154.198 31.6558 155.209 32.0556C156.219 32.4554 157.085 33.0006 157.807 33.7275C158.528 34.4543 159.106 35.363 159.503 36.4533C159.9 37.5073 160.116 38.743 160.116 40.124C160.116 40.4875 160.116 40.7419 160.08 40.9963C160.044 41.2144 160.008 41.3961 159.9 41.5415C159.828 41.6868 159.719 41.7595 159.575 41.8322C159.431 41.9049 159.25 41.9049 159.07 41.9049H147.378C147.522 43.8675 148.027 45.2849 148.929 46.1935C149.832 47.1021 151.059 47.5746 152.538 47.5746C153.26 47.5746 153.909 47.5019 154.451 47.3202C154.992 47.1385 155.461 46.9568 155.858 46.7387C156.255 46.5206 156.616 46.3389 156.905 46.1572C157.193 45.9755 157.482 45.9028 157.771 45.9028C157.951 45.9028 158.132 45.9391 158.24 46.0118C158.384 46.0845 158.492 46.1935 158.601 46.3389L159.936 48.0107C159.431 48.5922 158.853 49.1011 158.24 49.5008C157.626 49.9006 156.977 50.2277 156.291 50.4821C155.605 50.7365 154.92 50.8819 154.198 50.991C153.476 51.1 152.791 51.1363 152.141 51.1363C150.842 51.1363 149.615 50.9183 148.46 50.4821C147.342 50.046 146.331 49.3918 145.501 48.5196C144.671 47.6473 144.022 46.5933 143.516 45.3213C143.047 44.0492 142.795 42.5954 142.795 40.9236C142.795 39.6152 143.011 38.4159 143.408 37.2529C143.841 36.1262 144.419 35.1085 145.213 34.2726C146.006 33.4367 146.945 32.7462 148.063 32.2737C149.218 31.7285 150.517 31.4741 151.925 31.4741ZM151.997 34.7814C150.662 34.7814 149.615 35.1449 148.893 35.9081C148.136 36.6713 147.666 37.7253 147.45 39.1064H156.002C156.002 38.5249 155.93 37.9434 155.75 37.4346C155.605 36.9258 155.353 36.4533 155.028 36.0535C154.703 35.6537 154.27 35.363 153.765 35.1085C153.26 34.8905 152.682 34.7814 151.997 34.7814Z" fill="#CDD400"/>
<path d="M170.329 31.4377C171.123 31.4377 171.917 31.5104 172.602 31.6922C173.324 31.8739 173.974 32.0919 174.551 32.419H180V34.1272C180 34.418 179.928 34.636 179.783 34.7814C179.639 34.9268 179.387 35.0358 179.026 35.1085L177.33 35.4356C177.438 35.7627 177.546 36.0898 177.618 36.4532C177.69 36.8167 177.727 37.1801 177.727 37.5799C177.727 38.5249 177.546 39.3608 177.149 40.124C176.788 40.8872 176.247 41.5414 175.597 42.0503C174.948 42.5954 174.154 42.9952 173.252 43.286C172.35 43.5767 171.375 43.7221 170.329 43.7221C169.607 43.7221 168.921 43.6494 168.236 43.504C167.658 43.8675 167.334 44.2672 167.334 44.7034C167.334 45.1032 167.514 45.3576 167.875 45.5393C168.236 45.721 168.669 45.83 169.246 45.9391C169.824 46.0118 170.473 46.0481 171.195 46.0481C171.917 46.0481 172.674 46.0845 173.432 46.1571C174.19 46.2298 174.948 46.3389 175.67 46.4842C176.391 46.6296 177.041 46.884 177.618 47.2111C178.196 47.5382 178.665 48.0107 178.99 48.5922C179.35 49.1737 179.531 49.9006 179.531 50.8092C179.531 51.6451 179.314 52.481 178.917 53.2806C178.52 54.0802 177.907 54.7707 177.113 55.3886C176.319 56.0064 175.381 56.5152 174.262 56.8787C173.144 57.2421 171.844 57.4602 170.401 57.4602C168.958 57.4602 167.731 57.3148 166.648 57.0604C165.601 56.7697 164.699 56.4062 164.014 55.9337C163.328 55.4613 162.787 54.9524 162.462 54.3346C162.101 53.7167 161.957 53.0989 161.957 52.4447C161.957 51.5361 162.209 50.8092 162.751 50.1914C163.292 49.5735 164.05 49.101 164.988 48.7376C164.519 48.4832 164.158 48.1197 163.869 47.6836C163.581 47.2475 163.436 46.7023 163.436 46.0118C163.436 45.721 163.472 45.4303 163.581 45.1395C163.689 44.8488 163.833 44.5217 164.014 44.2309C164.23 43.9401 164.483 43.6494 164.771 43.395C165.06 43.1406 165.457 42.8862 165.854 42.6681C164.88 42.1593 164.158 41.4687 163.581 40.5965C163.039 39.7242 162.751 38.7066 162.751 37.5436C162.751 36.5986 162.931 35.7627 163.328 34.9995C163.689 34.2362 164.23 33.5821 164.88 33.0369C165.565 32.4917 166.323 32.0919 167.261 31.8012C168.272 31.5831 169.246 31.4377 170.329 31.4377ZM175.345 51.6088C175.345 51.2453 175.237 50.9182 175.02 50.6638C174.804 50.4094 174.515 50.2277 174.118 50.1187C173.721 49.9733 173.288 49.9006 172.783 49.8279C172.277 49.7552 171.736 49.7189 171.159 49.7189C170.581 49.7189 170.004 49.7189 169.391 49.7189C168.777 49.7189 168.2 49.6462 167.622 49.5008C167.117 49.7916 166.684 50.1187 166.395 50.5185C166.107 50.9182 165.926 51.3544 165.926 51.8632C165.926 52.1903 165.998 52.5174 166.179 52.8081C166.359 53.0989 166.612 53.3533 166.973 53.5714C167.334 53.7894 167.803 53.9348 168.38 54.0802C168.958 54.2256 169.679 54.2619 170.509 54.2619C171.339 54.2619 172.097 54.1892 172.711 54.0802C173.324 53.9348 173.829 53.7531 174.226 53.535C174.623 53.317 174.912 53.0262 175.092 52.6991C175.237 52.3357 175.345 52.0086 175.345 51.6088ZM170.329 40.8509C170.906 40.8509 171.375 40.7782 171.808 40.6328C172.241 40.4875 172.566 40.2694 172.855 39.9786C173.144 39.7242 173.324 39.3608 173.468 38.9973C173.613 38.5976 173.685 38.1978 173.685 37.7253C173.685 36.7803 173.396 36.0535 172.855 35.472C172.314 34.8904 171.447 34.636 170.329 34.636C169.21 34.636 168.38 34.9268 167.803 35.472C167.261 36.0171 166.973 36.7803 166.973 37.7253C166.973 38.1614 167.045 38.5976 167.189 38.961C167.334 39.3608 167.55 39.6879 167.803 39.9423C168.091 40.233 168.416 40.4511 168.849 40.5965C169.282 40.7782 169.787 40.8509 170.329 40.8509Z" fill="#CDD400"/>
<path d="M11.5116 53.8984C12.0168 53.3169 12.8107 53.1352 13.5325 53.4623C30.7819 61.7488 42.1492 46.5205 41.3192 37.5072C40.7057 30.6745 37.5301 26.7493 36.1588 25.3682C35.7618 24.9684 35.5453 24.4233 35.5453 23.8781V23.5147C35.5453 22.8241 35.7979 22.1336 36.231 21.5884L41.68 15.0101C41.9326 14.683 42.3657 14.6467 42.7265 14.8647C44.4587 16.0641 49.6191 19.9893 52.6504 26.6766C56.656 35.4719 55.2847 51.0636 44.2422 60.5857C39.6231 64.2565 32.9832 67.9636 22.1211 68C17.8268 68.0363 11.4395 67.1277 7.5421 64.6563C6.78428 64.1838 6.35124 63.3116 6.35124 62.4393V61.3126C6.35124 60.6221 6.60385 59.9315 7.03689 59.4227L11.5116 53.8984Z" fill="white"/>
<path d="M43.1595 14.0653C42.6543 14.6468 41.8604 14.8285 41.1387 14.5014C23.8893 6.21493 12.522 21.4431 13.352 30.4565C13.9655 37.2892 17.1411 41.2144 18.5124 42.5955C18.9093 42.9953 19.1259 43.5404 19.1259 44.0856V44.449C19.1259 45.1396 18.8733 45.8301 18.4402 46.3753L12.9911 52.9536C12.7385 53.2807 12.3055 53.317 11.9446 53.0989C10.2125 51.8996 5.05208 47.9744 2.02081 41.2871C-1.94872 32.5645 -0.577426 16.9728 10.4651 7.41428C15.0842 3.74352 21.7241 0.0364117 32.5862 6.74749e-05C36.8805 -0.0362767 43.2678 0.872328 47.1652 3.34373C47.923 3.81621 48.356 4.68847 48.356 5.56073V6.6874C48.356 7.37794 48.1034 8.06848 47.6704 8.5773L43.1595 14.0653Z" fill="#CDD400"/>
</g>
<defs>
<clipPath id="clip0_265_56">
<rect width="180" height="68" fill="white"/>
</clipPath>
</defs>
</svg>
