<?xml version="1.0" encoding="utf-8"?>
<!-- Generator: Adobe Illustrator 26.0.0, SVG Export Plug-In . SVG Version: 6.00 Build 0)  -->
<svg version="1.1" id="Layer_1" xmlns="http://www.w3.org/2000/svg" xmlns:xlink="http://www.w3.org/1999/xlink" x="0px" y="0px"
	 viewBox="0 0 30 26" style="enable-background:new 0 0 30 26;" xml:space="preserve">
<style type="text/css">
	.st0{fill:#083A5F;}
</style>
<path class="st0" d="M27.5,5.5h-25C1.1,5.5,0,4.4,0,3v0c0-1.4,1.1-2.5,2.5-2.5h25C28.9,0.5,30,1.6,30,3v0C30,4.4,28.9,5.5,27.5,5.5z
	"/>
<path class="st0" d="M27.5,15.5h-25C1.1,15.5,0,14.4,0,13l0,0c0-1.4,1.1-2.5,2.5-2.5h25c1.4,0,2.5,1.1,2.5,2.5l0,0
	C30,14.4,28.9,15.5,27.5,15.5z"/>
<path class="st0" d="M27.5,25.5h-25C1.1,25.5,0,24.4,0,23l0,0c0-1.4,1.1-2.5,2.5-2.5h25c1.4,0,2.5,1.1,2.5,2.5l0,0
	C30,24.4,28.9,25.5,27.5,25.5z"/>
</svg>
