<?xml version="1.0" encoding="utf-8"?>
<!-- Generator: Adobe Illustrator 26.0.0, SVG Export Plug-In . SVG Version: 6.00 Build 0)  -->
<svg version="1.1" id="Layer_1" xmlns="http://www.w3.org/2000/svg" xmlns:xlink="http://www.w3.org/1999/xlink" x="0px" y="0px"
	 viewBox="0 0 30 26" style="enable-background:new 0 0 30 26;" xml:space="preserve">
<style type="text/css">
	.st0{fill:#083A5F;}
</style>
<path class="st0" d="M28,5.5H2c-1.1,0-2-0.9-2-2l0-1c0-1.1,0.9-2,2-2l26,0c1.1,0,2,0.9,2,2v1C30,4.6,29.1,5.5,28,5.5z"/>
<path class="st0" d="M27.5,15.5h-25C1.12,15.5,0,14.38,0,13v0c0-1.38,1.12-2.5,2.5-2.5h25c1.38,0,2.5,1.12,2.5,2.5v0
	C30,14.38,28.88,15.5,27.5,15.5z"/>
<path class="st0" d="M27.5,25.5h-25C1.12,25.5,0,24.38,0,23v0c0-1.38,1.12-2.5,2.5-2.5h25c1.38,0,2.5,1.12,2.5,2.5v0
	C30,24.38,28.88,25.5,27.5,25.5z"/>
</svg>
