<svg width="48" height="60" viewBox="0 0 48 60" fill="none" xmlns="http://www.w3.org/2000/svg">
<g clip-path="url(#clip0_82_66)">
<path d="M30.7322 51.9524C31.3971 51.8556 32.3865 51.781 33.4852 51.781C34.8419 51.781 35.7901 51.9651 36.4423 52.4254C36.9837 52.8159 37.2829 53.6349 37.2829 54.3889C37.2829 55.4333 36.6101 56.1778 35.8249 56.4333V56.4698C36.216 57.0159 38.551 60.0238 38.551 60.0238H36.2682L33.8144 56.8095H32.7807V60.0238H30.7322V51.9524ZM32.7807 55.473H33.5928C34.625 55.473 35.2345 55.0127 35.2345 54.2937C35.2345 53.5413 34.6645 53.1651 33.7163 53.154C33.2145 53.154 32.9295 53.1905 32.7807 53.2127V55.473ZM0.419518 58.1254C0.97676 58.381 1.83162 58.6333 2.71339 58.6333C3.66323 58.6333 4.16507 58.281 4.16507 57.7492C4.16507 57.2381 3.73289 56.9445 2.62949 56.5937C1.10974 56.1206 0.120317 55.3683 0.120317 54.1762C0.120317 52.7778 1.4216 51.7079 3.57933 51.7079C4.61149 51.7079 5.37137 51.9048 5.91595 52.1238L5.45369 53.6175C5.088 53.4603 4.43577 53.2286 3.53817 53.2286C2.64374 53.2286 2.20839 53.5937 2.20839 54.0175C2.20839 54.5429 2.72606 54.7714 3.90703 55.1714C5.52493 55.7079 6.28322 56.4587 6.28322 57.6143C6.28322 58.9857 5.10225 60.1667 2.59149 60.1667C1.54508 60.1667 0.514502 59.9127 -0.00157928 59.6556L0.419518 58.1254ZM12.4493 56.5683H9.08051V58.5143H12.8419V60.0318H7.00352V51.8413H12.6519V53.3603H9.08209V55.0619H12.4493V56.5683ZM21.2195 59.6556C20.5815 59.8508 19.3736 60.1175 18.1642 60.1175C16.4956 60.1175 15.2877 59.7397 14.444 59.0111C13.6018 58.3064 13.1395 57.2365 13.1538 56.0365C13.168 53.3127 15.3796 51.7556 18.3811 51.7556C19.562 51.7556 20.4707 51.9619 20.9203 52.1587L20.4865 53.6397C19.9847 53.446 19.3594 53.2857 18.3541 53.2857C16.6318 53.2857 15.3273 54.1619 15.3273 55.9365C15.3273 57.6254 16.5083 58.6222 18.2038 58.6222C18.6787 58.6222 19.0586 58.573 19.2217 58.5016V56.7873L19.228 55.3429H21.2179L21.2195 59.6556ZM24.2194 51.8413V56.5556C24.2194 57.9635 24.8162 58.681 25.8753 58.681C26.9613 58.681 27.5597 58.0032 27.5597 56.5556V51.8413H29.6225V56.4349C29.6225 58.9635 28.1961 60.1651 25.8073 60.1651C23.4991 60.1651 22.1409 59.0222 22.1409 56.4095V51.8413H24.2194ZM46.6278 55.854C46.6278 58.5365 44.8089 60.1667 42.1335 60.1667C39.4169 60.1667 37.8307 58.3318 37.8307 55.9984C37.8307 53.5445 39.5816 51.7079 42.2839 51.7079C45.0938 51.7064 46.6278 53.5921 46.6278 55.854ZM40.0169 55.9603C40.0169 57.5667 40.8591 58.6968 42.2427 58.6968C43.6406 58.6968 44.4432 57.5064 44.4432 55.9143C44.4432 54.4413 43.6564 53.1762 42.2301 53.1762C40.8306 53.1778 40.0169 54.3698 40.0169 55.9603ZM7.2299 40.4746C6.49693 39.9476 5.39986 39.6905 3.88012 39.6905C2.563 39.6905 1.4501 39.7556 0.561995 39.8873V49.554H2.8812V45.9762L2.98093 45.9905C3.20414 46.0191 3.49701 46.0349 3.82629 46.0349C5.35871 46.0349 6.59192 45.6794 7.3882 45.0048C8.02777 44.4619 8.38079 43.6444 8.38079 42.7079C8.38396 41.8064 7.96444 40.9921 7.2299 40.4746ZM3.81363 44.4841C3.41627 44.4841 3.15982 44.4635 2.95243 44.4222L2.8812 44.4064V41.3238L2.9461 41.3048C3.06167 41.2794 3.38778 41.2143 4.01151 41.2143C5.29855 41.2143 6.06476 41.7952 6.06476 42.7683C6.06634 43.8254 5.20356 44.4841 3.81363 44.4841ZM14.1558 39.6032C11.0182 39.6032 8.82405 41.7127 8.82405 44.7349C8.82405 47.7143 10.8963 49.7191 13.9738 49.7191C17.2428 49.7191 19.3547 47.6937 19.3547 44.5571C19.3547 42.0905 17.7478 39.6032 14.1558 39.6032ZM14.1068 48.1064C12.4065 48.1064 11.3079 46.7651 11.3079 44.6905C11.3079 42.6127 12.424 41.2159 14.0909 41.2159C15.7278 41.2159 16.8724 42.6206 16.8724 44.6318C16.8724 46.7429 15.788 48.1064 14.1068 48.1064ZM26.4025 45.3635L26.3851 45.3413V45.2032L26.4468 45.1825C27.2384 44.9286 28.1629 44.1429 28.1629 42.7778C28.1629 41.8127 27.7655 40.8825 27.1766 40.4587C26.4278 39.927 25.3323 39.6921 23.6258 39.6921C22.4337 39.6921 21.2496 39.7651 20.3599 39.8889V49.5556H22.6791V45.6349H24.0722C24.0722 45.6349 27.0072 49.4825 27.061 49.554H29.6161C29.0874 48.873 26.822 45.9476 26.4025 45.3635ZM23.7572 44.1857H22.6775V41.273L22.7503 41.2603C23.059 41.2095 23.4469 41.1857 23.9091 41.1857C25.1582 41.2016 25.8452 41.727 25.8452 42.6651C25.8452 43.6048 25.0474 44.1857 23.7572 44.1857ZM36.8713 39.7651V41.481H33.8303V49.5556H31.4778V41.481H28.4874V39.7651H36.8713ZM41.9008 39.6032C38.7631 39.6032 36.569 41.7127 36.569 44.7349C36.569 47.7143 38.6381 49.7191 41.7203 49.7191C44.9878 49.7191 47.0996 47.6937 47.0996 44.5571C47.0996 42.0905 45.4928 39.6032 41.9008 39.6032ZM41.8517 48.1048C40.1515 48.1048 39.0544 46.7635 39.0544 44.6889C39.0544 42.6111 40.1705 41.2143 41.8359 41.2143C43.4743 41.2143 44.6189 42.6191 44.6189 44.6302C44.6173 46.7429 43.5329 48.1048 41.8517 48.1048Z" fill="#C7C7C7"/>
<path d="M39.2095 0H7.8932C6.95602 0 6.18981 0.765079 6.18981 1.70635V33.1079C6.18981 34.046 6.95602 34.8111 7.8932 34.8111H39.2095C40.1451 34.8111 40.9113 34.046 40.9113 33.1079V1.70635C40.9129 0.765079 40.1451 0 39.2095 0ZM38.5874 20.7508C37.332 19.154 34.2577 18.819 32.5955 18.819C25.6632 18.819 19.0285 20.1111 12.9274 22.4746C12.9796 20.6619 12.9289 18.846 12.7247 17.054C17.3695 15.6952 25.5666 14.6032 30.9617 15.0762C36.0006 15.5191 37.8987 18.3349 38.5874 20.7508ZM36.3315 16.1397C34.9257 14.8159 33.854 13.8619 29.5924 13.2444C25.3323 12.6302 16.3183 13.5603 12.3274 14.5667C12.0424 12.9873 11.6577 11.427 11.1749 9.89524C13.9548 9.40635 16.7711 9.16032 19.5937 9.16032C22.3831 9.16032 25.1234 9.4 27.7845 9.85397C33.4218 10.8222 35.2154 13.9873 36.3315 16.1397ZM8.12116 2.96984C22.6316 2.59206 30.7844 8.96191 32.4071 10.7159C30.9934 9.53492 28.2673 8.52857 25.9196 8.0746C23.0337 7.51905 20.0559 7.23016 16.9959 7.23016C14.7906 7.22857 12.5886 7.38254 10.4055 7.69048C9.85779 6.25556 8.84146 4.32857 8.12116 2.96984ZM36.3315 29.9714C38.665 25.1349 38.1188 24.2905 33.5342 24.8492C26.4104 25.7222 17.4296 28.7794 10.6446 32.454C11.8825 30.0524 12.4857 27.6349 12.7232 25.4556C19.2739 22.5714 26.48 20.9111 34.0566 20.7619C41.9894 20.6032 39.0132 26.6873 36.3315 29.9714Z" fill="#C7C7C7"/>
</g>
<defs>
<clipPath id="clip0_82_66">
<rect width="47.1756" height="60" fill="white"/>
</clipPath>
</defs>
</svg>
