<svg width="100" height="26" viewBox="0 0 100 26" fill="none" xmlns="http://www.w3.org/2000/svg">
<path fill-rule="evenodd" clip-rule="evenodd" d="M9.04912 13.9649H5.38362L7.33099 7.63053L9.04912 13.9649ZM3.66549 20.3681L4.81097 16.5079H9.50724L10.6527 20.3681H14.5474L10.4237 5.71763C10.1946 4.75544 9.73647 4.44614 8.70553 4.44614H2.97814V5.76341H3.43643C4.12362 5.76341 4.46721 5.98098 4.46721 6.50803C4.46721 6.84013 4.46721 7.05788 4.12362 7.84811L0 20.3681" fill="#C7C7C7"/>
<path d="M19.4729 20.3681V5.61459C19.4729 4.84699 19.0146 4.44614 18.2129 4.44614H14.662V5.76341H14.891C15.5782 5.76341 15.922 6.04974 15.922 6.66834V20.3681" fill="#C7C7C7"/>
<path d="M25.8875 20.3681V5.61459C25.8875 4.84699 25.4292 4.44614 24.6275 4.44614H21.0765V5.76341H21.3056C21.993 5.76341 22.3365 6.04974 22.3365 6.66834V20.3681" fill="#C7C7C7"/>
<path fill-rule="evenodd" clip-rule="evenodd" d="M32.4166 5.85514C32.4166 4.80122 31.6147 4.18262 30.3547 4.18262C28.9802 4.18262 28.293 4.80122 28.293 5.85514C28.293 6.93186 28.9802 7.56178 30.3547 7.56178C31.6147 7.56178 32.4166 6.93186 32.4166 5.85514ZM32.3021 20.3681V9.62367C32.3021 8.87906 31.844 8.44374 31.1566 8.44374H27.6056V9.73821H27.8347C28.5221 9.73821 28.7511 10.0245 28.7511 10.6774V20.3681" fill="#C7C7C7"/>
<path fill-rule="evenodd" clip-rule="evenodd" d="M40.7786 14.5835V16.9661C40.0912 17.6533 39.2895 18.0429 38.6021 18.0429C37.9148 18.0429 37.5712 17.7106 37.5712 16.8171C37.5712 15.832 37.8002 15.4541 38.6021 15.1448C39.1748 14.9042 39.7476 14.7553 40.7786 14.5835ZM35.7385 11.7313L36.0821 11.5938C36.9985 11.2273 37.5712 11.0898 38.2585 10.9637C38.6021 10.918 39.0602 10.8722 39.2895 10.8722C40.4348 10.8722 40.7786 11.2502 40.7786 12.304V12.6018C39.1748 12.8653 38.7167 12.9569 37.8002 13.1517C37.3421 13.2662 36.884 13.4152 36.4257 13.6098C34.9366 14.2054 34.2493 15.3509 34.2493 17.1492C34.2493 19.4059 35.1657 20.4826 37.2276 20.4826C38.0295 20.4826 38.8312 20.2994 39.404 19.9328C39.9767 19.6694 40.2057 19.5319 40.8931 18.9018V19.2684C40.8931 20.013 41.2367 20.3681 41.924 20.3681H45.3603V19.1424H45.2458C44.5586 19.1424 44.215 18.8331 44.215 18.2147V12.3613C44.215 9.31436 43.184 8.28342 40.2057 8.28342C39.1748 8.28342 38.2585 8.39795 37.3421 8.61569C36.4257 8.83327 35.9676 8.99357 34.9366 9.53194" fill="#C7C7C7"/>
<path fill-rule="evenodd" clip-rule="evenodd" d="M50.7441 20.3681V12.2812C51.5458 11.5366 52.1186 11.2502 52.9205 11.2502C53.7222 11.2502 53.9513 11.5938 53.9513 12.8081V20.3681H57.5022V12.2352C57.5022 10.5629 57.2732 9.84124 56.8151 9.21132C56.2422 8.59272 55.5551 8.3064 54.5241 8.3064C53.1496 8.3064 52.1186 8.8103 50.515 10.1963V9.55492C50.515 8.8103 50.1713 8.44373 49.4841 8.44373H46.0476V9.7382H46.1622C46.8495 9.7382 47.1931 10.0245 47.1931 10.6774V20.3681" fill="#C7C7C7"/>
<path d="M68.4997 18.0869H63.2306L68.2706 10.8934V8.44206H60.7105C59.7941 8.44206 59.4505 8.80864 59.4505 9.69065V11.8556H60.7105V11.615C60.7105 10.9621 61.0542 10.6987 61.7415 10.6987H64.4906L59.336 17.8921V20.3664H68.4997" fill="#C7C7C7"/>
<path fill-rule="evenodd" clip-rule="evenodd" d="M88.7744 19.7135V6.21985C88.7744 5.13166 88.3163 4.77656 87.2854 4.77656H84.1925V6.26572H84.5362C85.1089 6.26572 85.338 6.48331 85.338 7.14768V19.7135H88.7744ZM90.6071 19.7135H93.929V9.53027C93.929 8.49935 93.4709 8.08697 92.44 8.08697H90.6071V19.7135ZM83.5053 19.7135V8.08697H81.6726C80.6416 8.08697 80.1834 8.49935 80.1834 9.53027V19.7135H83.5053ZM97.8236 12.9323C97.8236 19.2438 93.2417 23.8486 87.0562 23.8486C80.8707 23.8486 76.2888 19.2438 76.2888 12.9323C76.2888 6.62082 80.8707 2.01602 87.0562 2.01602C93.2417 2.01602 97.8236 6.62082 97.8236 12.9323ZM100 12.9323C100 5.54408 94.5017 -1.33514e-05 87.0562 -1.33514e-05C79.7252 -1.33514e-05 74.1125 5.54408 74.1125 12.9323C74.1125 20.3435 79.7252 25.8875 87.0562 25.8875C94.5017 25.8875 100 20.3435 100 12.9323Z" fill="#C7C7C7"/>
</svg>
