<svg width="100" height="13" viewBox="0 0 100 13" fill="none" xmlns="http://www.w3.org/2000/svg">
<g clip-path="url(#clip0_97_79)">
<path d="M22.412 6.18812L19.452 0.00408457H14.98V12.3762H19.452V6.18812L22.412 12.3722L25.372 6.18812V12.3722H29.844V0.00408457H25.368L22.412 6.18812ZM34.76 0.00408457L31.28 12.3762H35.752L36.324 10.3462H41.1L41.672 12.3762H46.144L42.664 0.00408457H34.76ZM36.896 8.31209L38.712 1.85439L40.528 8.31209H36.896ZM55.94 0.00816913H47.568V12.3722H52.04V7.22151H55.94C57.892 7.22151 59.472 5.60811 59.472 3.61484C59.472 1.62157 57.892 0.00816913 55.94 0.00816913ZM53.088 5.12613H52.116V1.42551H53.088C54.096 1.42551 55.076 1.97693 55.076 3.10019C55.076 4.22344 54.212 5.12613 53.088 5.12613ZM61.024 12.3722H65.496V7.20926H72.916V5.17923H65.496V2.03411H72.916V0.00408457H61.024V12.3722ZM99.956 2.03411V0.00408457H88.06V12.3762H99.956V10.3462H92.536V7.21335H99.956V5.18332H92.536V2.0382L99.956 2.03411ZM86.384 3.0961C86.384 1.38875 85.028 0.00408457 83.356 0.00408457H74.48V12.3722H79.028V7.25419H79.996C81.092 7.25419 81.984 8.16505 81.984 9.28422C81.984 9.3169 81.984 9.34957 81.98 9.38225V12.3722H86.38V9.28014C86.38 9.24746 86.38 9.2107 86.38 9.17802C86.328 7.51969 84.992 6.18812 83.352 6.18812C85.028 6.18812 86.384 4.80754 86.384 3.0961ZM80 5.12613H79.032V1.42551H80C80.984 1.42551 81.988 1.97693 81.988 3.0961C81.988 4.21527 81.096 5.12613 80 5.12613ZM6.10401 0C2.75601 0 0.0440063 2.76934 0.0440063 6.18812C0.0440063 6.44953 0.0600063 6.71094 0.0920063 6.96419C0.464006 10.0154 3.01201 12.3762 6.10401 12.3762C9.19201 12.3762 11.744 10.0154 12.116 6.96419H11.532C11.16 9.68859 8.87201 11.7881 6.10401 11.7881C3.33601 11.7881 1.04401 9.68859 0.672006 6.96419C0.636006 6.70686 0.620006 6.44953 0.620006 6.18812C0.620006 3.0961 3.07601 0.588178 6.10401 0.588178C9.13201 0.588178 11.588 3.0961 11.588 6.18812C11.588 6.45362 11.568 6.71094 11.536 6.96419H12.12C12.152 6.71094 12.168 6.45362 12.168 6.18812C12.164 2.76934 9.44801 0 6.10401 0ZM10.108 6.43319C10.108 6.38418 10.104 6.34333 10.096 6.30657C10.024 5.89403 9.88401 5.50191 9.67601 5.13838C9.46401 4.76669 9.15201 4.40725 8.84401 4.14583C8.64001 3.98654 8.37201 3.92527 8.12001 3.98654C8.02401 3.70062 7.79201 3.45963 7.53601 3.34526C7.07601 3.17371 6.58801 3.08793 6.10001 3.08793C5.60001 3.08793 5.11601 3.17779 4.67201 3.34526C4.64001 3.35751 4.59601 3.37385 4.55201 3.39836C4.32001 3.5209 4.14801 3.73738 4.07201 3.99471C3.80401 3.94569 3.51601 4.0233 3.31201 4.17851C3.00001 4.45218 2.73201 4.77894 2.52801 5.14247C2.32401 5.506 2.18001 5.89811 2.10801 6.31066C2.10001 6.34333 2.09601 6.38826 2.09601 6.43728C2.08801 6.62517 2.13601 6.80897 2.23601 6.96419C2.31201 7.09081 2.42001 7.19292 2.54401 7.26644C2.69201 7.3563 2.86401 7.39715 3.03601 7.38898L5.00801 7.3849C5.14801 7.38898 5.52001 7.39307 5.80401 7.39307V9.2883H6.40001V7.39307C6.68401 7.39307 7.05601 7.39307 7.19601 7.3849L9.16801 7.38898C9.34001 7.39715 9.51201 7.3563 9.66001 7.26644C9.78401 7.19292 9.89201 7.09081 9.96801 6.96419H6.10401H9.96801C10.064 6.80489 10.112 6.62108 10.108 6.43319ZM5.16801 6.69869C5.14001 6.75179 5.08401 6.78038 5.02401 6.7763L3.02001 6.78038C2.96001 6.78447 2.89601 6.77221 2.84401 6.73953C2.74401 6.67827 2.68401 6.56798 2.69601 6.44545C2.75601 6.08192 2.87201 5.75515 3.04401 5.44473C3.21601 5.14247 3.43601 4.87289 3.69601 4.64824L3.70401 4.64007C3.80001 4.56655 3.93201 4.55838 4.04001 4.61964C4.09601 4.65232 4.14001 4.70134 4.16401 4.75852L5.16401 6.53531C5.19201 6.58432 5.19601 6.64559 5.16801 6.69869ZM6.10401 6.78038C6.03201 6.78038 5.96801 6.73953 5.93601 6.6701L4.69601 4.49302C4.65201 4.42767 4.63201 4.35415 4.62801 4.27654C4.62801 4.12541 4.71601 3.99471 4.84001 3.93344C5.25601 3.77414 5.66801 3.69653 6.10001 3.69653C6.53201 3.69653 6.94801 3.77414 7.33201 3.9171L7.34801 3.92527C7.48401 3.98654 7.57601 4.12133 7.57601 4.27654C7.57601 4.35415 7.55201 4.43175 7.50801 4.49711L6.26801 6.67418C6.23601 6.73953 6.17201 6.78038 6.10401 6.78038ZM9.36001 6.73953C9.30801 6.77221 9.24401 6.78447 9.18401 6.78038L7.18001 6.7763C7.12401 6.78038 7.06801 6.75179 7.03601 6.70277C7.00801 6.65376 7.00801 6.58841 7.04001 6.53939L8.04001 4.7626C8.06401 4.70542 8.10801 4.65641 8.16401 4.62373C8.26801 4.56246 8.40001 4.57063 8.50001 4.64415L8.50801 4.65232C8.76801 4.87697 8.99201 5.14655 9.16001 5.44881C9.33601 5.75924 9.44801 6.086 9.50801 6.44953C9.52001 6.5639 9.46401 6.67827 9.36001 6.73953Z" fill="#C7C7C7"/>
</g>
<defs>
<clipPath id="clip0_97_79">
<rect width="100" height="12.3762" fill="white"/>
</clipPath>
</defs>
</svg>
