<?xml version="1.0" encoding="utf-8"?>
<!-- Generator: Adobe Illustrator 26.0.0, SVG Export Plug-In . SVG Version: 6.00 Build 0)  -->
<svg version="1.1" id="Layer_1" xmlns="http://www.w3.org/2000/svg" xmlns:xlink="http://www.w3.org/1999/xlink" x="0px" y="0px"
	 viewBox="0 0 40 40" style="enable-background:new 0 0 40 40;" xml:space="preserve">
<style type="text/css">
	.st0{fill:#FFFFFF;}
</style>
<path d="M85.51,5.07H58.49c-3.02,0-5.49,2.46-5.49,5.49v18.88c0,3.02,2.46,5.49,5.49,5.49h27.03c3.03,0,5.49-2.46,5.49-5.49V10.56
	C91,7.54,88.54,5.07,85.51,5.07z M85.51,7.7c0.22,0,0.44,0.03,0.65,0.08l-11.4,12.94c-0.7,0.79-1.71,1.25-2.76,1.25
	c-1.06,0-2.06-0.45-2.76-1.25L57.83,7.77c0.21-0.05,0.43-0.08,0.65-0.08H85.51z M88.38,29.44c0,1.58-1.28,2.86-2.86,2.86H58.49
	c-1.58,0-2.86-1.28-2.86-2.86V10.56c0-0.38,0.08-0.75,0.21-1.09l11.43,12.97c1.2,1.36,2.92,2.14,4.73,2.14
	c1.81,0,3.53-0.78,4.73-2.14L88.16,9.48c0.14,0.33,0.21,0.7,0.21,1.08V29.44z"/>
<g>
	<path class="st0" d="M27.27,2H12.73C9.79,2,7.4,4.39,7.4,7.33v25.34c0,2.94,2.39,5.33,5.33,5.33h14.53c2.94,0,5.33-2.39,5.33-5.33
		V7.33C32.6,4.39,30.21,2,27.27,2z M12.73,4.46h14.53c1.58,0,2.87,1.29,2.87,2.87v20.3H9.86V7.33C9.86,5.75,11.15,4.46,12.73,4.46z
		 M27.27,35.54H12.73c-1.58,0-2.87-1.29-2.87-2.87v-2.58h20.27v2.58C30.14,34.25,28.85,35.54,27.27,35.54z"/>
	<path class="st0" d="M19.66,8c0.54,0,0.98-0.44,0.98-0.98c0-0.54-0.44-0.98-0.98-0.98c-0.54,0-0.98,0.44-0.98,0.98
		C18.68,7.56,19.12,8,19.66,8z"/>
	<path class="st0" d="M19.66,31.62c-0.54,0-0.98,0.44-0.98,0.98c0,0.54,0.44,0.98,0.98,0.98c0.54,0,0.98-0.44,0.98-0.98
		C20.65,32.06,20.21,31.62,19.66,31.62z"/>
</g>
</svg>
