<?xml version="1.0" encoding="utf-8"?>
<!-- Generator: Adobe Illustrator 26.0.0, SVG Export Plug-In . SVG Version: 6.00 Build 0)  -->
<svg version="1.1" id="Layer_1" xmlns="http://www.w3.org/2000/svg" xmlns:xlink="http://www.w3.org/1999/xlink" x="0px" y="0px"
	 viewBox="0 0 19 18" style="enable-background:new 0 0 19 18;" xml:space="preserve">
<style type="text/css">
	.st0{fill:#DADE30;}
</style>
<g>
	<g>
		<g>
			<path class="st0" d="M10.2,7.7L4,1.5c-0.7-0.7-1.9-0.7-2.6,0c-0.7,0.7-0.7,1.9,0,2.6L6.3,9l-4.9,4.9c-0.7,0.7-0.7,1.9,0,2.6
				c0.4,0.4,0.8,0.5,1.3,0.5c0.5,0,0.9-0.2,1.3-0.5l6.2-6.2C10.9,9.6,10.9,8.4,10.2,7.7z"/>
		</g>
		<g>
			<path class="st0" d="M17.7,7.7l-6.2-6.2c-0.7-0.7-1.9-0.7-2.6,0c-0.7,0.7-0.7,1.9,0,2.6L13.7,9l-4.9,4.9c-0.7,0.7-0.7,1.9,0,2.6
				c0.4,0.4,0.8,0.5,1.3,0.5c0.5,0,0.9-0.2,1.3-0.5l6.2-6.2C18.4,9.6,18.4,8.4,17.7,7.7z"/>
		</g>
	</g>
</g>
</svg>
