<?xml version="1.0" encoding="utf-8"?>
<!-- Generator: Adobe Illustrator 25.2.1, SVG Export Plug-In . SVG Version: 6.00 Build 0)  -->
<svg version="1.1" id="Layer_1" xmlns="http://www.w3.org/2000/svg" xmlns:xlink="http://www.w3.org/1999/xlink" x="0px" y="0px"
	 viewBox="0 0 512.9 512.9" style="enable-background:new 0 0 512.9 512.9;" xml:space="preserve">
<style type="text/css">
	.st0{fill:#0B3A5E;}
</style>
<path class="st0" d="M433.4,219.4c0-43.6-33.8-79.5-76.7-82.7c-14.9-42.1-54.9-70.8-100.3-70.8s-85.4,28.6-100.3,70.8
	c-42.8,3.2-76.7,39.1-76.7,82.7c0,22.3,8.8,43.3,24.5,58.8c-0.6,3.9-0.9,7.8-0.9,11.7c0,40.2,32.7,72.9,72.9,72.9h39.6v71.7
	c0,6.9,5.6,12.5,12.5,12.5h61c6.9,0,12.5-5.6,12.5-12.5v-71.7H337c40.2,0,72.9-32.7,72.9-72.9c0-3.9-0.3-7.8-0.9-11.7
	C424.6,262.7,433.4,241.7,433.4,219.4z M280.1,331.3c-2.3,2.3-3.7,5.5-3.7,8.8v82h-36.1v-97c0-3.3-1.3-6.5-3.7-8.8L215,294.6
	l3.9-3.9l15.4,15.4c3.6,3.6,8.9,4.6,13.6,2.7c4.7-1.9,7.7-6.5,7.7-11.5v-23.3h5.6v38.3c0,5,3,9.6,7.7,11.5c4.7,1.9,10,0.9,13.6-2.7
	l11.4-11.5l3.9,3.9L280.1,331.3z M387.4,264.2c-3.8,3.1-5.4,8.2-4.1,12.9c1.1,4.2,1.7,8.5,1.7,12.8c0,26.5-21.5,48-48,48h-28.3
	l15.6-15.6c2.3-2.3,3.7-5.5,3.7-8.8c0-3.3-1.3-6.5-3.7-8.8l-21.6-21.6c-4.5-4.5-11.7-4.8-16.6-0.9v-20.8c0-6.9-5.6-12.5-12.5-12.5
	h-30.5c-6.9,0-12.5,5.6-12.5,12.5v5.6l-2.9-2.9c-2.3-2.3-5.5-3.7-8.8-3.7s-6.5,1.3-8.8,3.7l-21.6,21.6c-4.9,4.9-4.9,12.8,0,17.6
	l26.9,26.9v7.7h-39.6c-26.5,0-48-21.5-48-48c0-4.3,0.6-8.6,1.7-12.8c1.3-4.7-0.3-9.8-4.1-12.9c-13.4-11.1-21.1-27.4-21.1-44.8
	c0-32,26-58,58-58c0.8,0,1.6,0,2.4,0.1c5.9,0.2,11.1-3.7,12.6-9.4c9.2-36,41.7-61.2,79-61.2s69.8,25.2,79,61.2
	c1.5,5.7,6.7,9.6,12.6,9.4c0.8,0,1.6-0.1,2.4-0.1c32,0,58,26,58,58C408.5,236.8,400.8,253.1,387.4,264.2z"/>
</svg>
