<?xml version="1.0" encoding="utf-8"?>
<!-- Generator: Adobe Illustrator 26.0.0, SVG Export Plug-In . SVG Version: 6.00 Build 0)  -->
<svg version="1.1" id="Layer_1" xmlns="http://www.w3.org/2000/svg" xmlns:xlink="http://www.w3.org/1999/xlink" x="0px" y="0px"
	 viewBox="0 0 512 512" style="enable-background:new 0 0 512 512;" xml:space="preserve">
<style type="text/css">
	.st0{fill:#0B3A5E;stroke:#0B3A5E;stroke-width:13;stroke-miterlimit:10;}
</style>
<g>
	<path class="st0" d="M400.8,124.7h-90.6V57H39.3c-15.6,0-28.1,12.5-28.1,28.1v261.5c0,15.6,12.5,28.1,28.1,28.1h32.4
		c-0.8,4.1-1.2,8.2-1.2,12.5c0,37.5,30.2,67.7,67.7,67.7s68.8-30.2,67.7-67.7c0-4.3-0.4-8.4-1.2-12.5h85.5H310h19
		c-0.8,4.1-1.2,8.2-1.2,12.5c0,37.5,30.2,67.7,67.7,67.7s67.7-30.2,67.7-67.7c0-4.3-0.4-8.4-1.2-12.5h10.5
		c15.6,0,28.1-12.5,28.1-29.2v-96.9L400.8,124.7L400.8,124.7z M138.3,435.2c-26,0-47.9-21.9-47.9-47.9s21.9-47.9,47.9-47.9
		c27.1,0,47.9,21.9,47.9,47.9S164.3,435.2,138.3,435.2z M197.3,353.9c-11.6-20.5-33.6-34.4-59-34.4s-47.4,13.8-59,34.4h-40
		c-4.2,0-7.3-3.1-7.3-7.3V85.2c0-4.2,3.1-7.3,7.3-7.3h251.1V354h-93.1L197.3,353.9L197.3,353.9z M395.6,435.1
		c-26,0-47.9-21.9-47.9-47.9s21.9-47.9,47.9-47.9s47.9,21.9,47.9,47.9S421.6,435.1,395.6,435.1z M481,345.5c0,4.2-4.2,8.3-8.3,8.3
		h-18.1c-11.6-20.5-33.6-34.4-59-34.4s-47.4,13.8-59,34.4h-25.4V144.4h80.2L481,255.9V345.5z"/>
</g>
</svg>
