<?xml version="1.0" encoding="utf-8"?>
<!-- Generator: Adobe Illustrator 26.0.0, SVG Export Plug-In . SVG Version: 6.00 Build 0)  -->
<svg version="1.1" id="Layer_1" xmlns="http://www.w3.org/2000/svg" xmlns:xlink="http://www.w3.org/1999/xlink" x="0px" y="0px"
	 viewBox="0 0 215 158" style="enable-background:new 0 0 215 158;" xml:space="preserve">
<style type="text/css">
	.st0{fill:#171925;}
	.st1{fill:#242635;}
	.st2{fill:#6A686A;}
	.st3{fill:#434243;}
	.st4{fill:#7E7D80;}
	.st5{fill:#A4A2A3;}
	.st6{fill:#59595B;}
	.st7{fill:#9E9E9D;}
	.st8{fill:#797A7E;}
	.st9{fill:#D2D2D2;}
	.st10{fill:#0C3B5E;}
	.st11{fill:#002F4C;}
	.st12{fill:url(#SVGID_1_);}
	.st13{fill:#6E6F71;}
	.st14{fill:#818183;}
	.st15{fill:url(#SVGID_00000145753797628790573260000003309049973935763637_);}
	.st16{fill:#FFFFFF;}
	.st17{fill:#DFDFDF;}
	.st18{fill:#035B91;}
	.st19{fill:#03476D;}
	.st20{fill:#1167B1;}
	.st21{fill:#005694;}
	.st22{fill:#3280C3;}
</style>
<g>
	<polygon class="st0" points="154.9,128.6 156,129.3 154.9,133.7 147.6,135.3 121.7,148.3 106.1,148.9 108.1,109.3 120.9,102.6 
		150,114.8 	"/>
	<polygon class="st0" points="208.2,90.7 208.2,92.9 206.7,93.9 187.7,96.1 186,99 158.4,103.3 148,102.9 148.2,98 	"/>
	<polygon class="st0" points="213.1,91.1 213.1,93 212.2,93.7 213.1,94.4 214.4,103 213.5,104.1 204,104.1 202.5,92.2 	"/>
	<g>
		<g>
			<ellipse class="st0" cx="199.6" cy="104.5" rx="2.8" ry="9.7"/>
			<path class="st1" d="M208.7,114.2"/>
			<rect x="199.6" y="94.8" class="st0" width="9.1" height="19.4"/>
			<ellipse class="st1" cx="208.7" cy="104.5" rx="2.8" ry="9.7"/>
			<path class="st2" d="M206.5,104.5c0,4,1,7.2,2.2,7.2c1.2,0,2.2-3.2,2.2-7.2c0-4-1-7.2-2.2-7.2
				C207.4,97.4,206.5,100.6,206.5,104.5z"/>
			<path class="st3" d="M207.4,104.5c0,3.2,0.7,5.8,1.6,5.8c0.9,0,1.6-2.6,1.6-5.8c0-3.2-0.7-5.8-1.6-5.8
				C208.1,98.7,207.4,101.3,207.4,104.5z"/>
			<path class="st2" d="M207.7,104.5c0,2.7,0.4,4.9,0.9,4.9c0,0,0.1,0,0.1-0.1l0,0c0.4-0.4,0.8-2.4,0.8-4.9c0-0.4,0-0.7,0-1
				c0-0.4,0-0.7-0.1-1c-0.1-1.4-0.4-2.5-0.7-2.8l0,0l0,0c0,0-0.1,0-0.1,0c-0.3,0-0.6,0.7-0.7,1.9v0c0,0,0,0,0,0
				c-0.1,0.5-0.1,1.1-0.2,1.8C207.7,103.7,207.7,104.1,207.7,104.5z"/>
			<path class="st2" d="M208.8,99.7l0,2.6l0,1.1l0,6.1l0,0l1.5-1.2v-7.3L208.8,99.7L208.8,99.7L208.8,99.7z"/>
			<path class="st4" d="M207.8,103.3c0.3,0,0.7-0.1,1,0c0.3,0.1,0.6,0.3,0.7,0.6l0.1-0.4c0-0.4,0-0.7-0.1-1c-0.2,0-0.5-0.1-0.7-0.3
				c-0.3-0.2-0.7-0.4-0.9-0.7c0,0,0,0,0,0C207.9,102,207.8,102.6,207.8,103.3z"/>
			<path class="st5" d="M209.4,104.5c0,2,0.4,3.7,0.9,3.7s0.9-1.6,0.9-3.7c0-2-0.4-3.7-0.9-3.7S209.4,102.5,209.4,104.5z"/>
			<path class="st2" d="M209.7,104.5c0,1.1,0.2,2,0.4,2.4c0.1,0.1,0.2,0.2,0.3,0.2c0.4,0,0.7-1.2,0.7-2.6c0-1.5-0.3-2.6-0.7-2.6
				c-0.1,0-0.2,0.1-0.3,0.2C209.9,102.5,209.7,103.5,209.7,104.5z"/>
			<path class="st3" d="M209.7,104.5c0,1.1,0.2,2,0.4,2.4c0.3-0.1,0.6-1.2,0.6-2.4s-0.3-2.3-0.6-2.4
				C209.9,102.5,209.7,103.5,209.7,104.5z"/>
			<path class="st3" d="M208.6,98c0,0.2,0.1,0.4,0.2,0.4s0.2-0.2,0.2-0.4c0-0.2-0.1-0.4-0.2-0.4S208.6,97.8,208.6,98z"/>
			<path class="st3" d="M207.8,98.6c0,0.2,0.1,0.4,0.2,0.4c0.1,0,0.2-0.2,0.2-0.4c0-0.2-0.1-0.4-0.2-0.4
				C207.9,98.2,207.8,98.4,207.8,98.6z"/>
			<path class="st3" d="M207.3,99.6c0,0.2,0.1,0.4,0.2,0.4s0.2-0.2,0.2-0.4c0-0.2-0.1-0.4-0.2-0.4S207.3,99.4,207.3,99.6z"/>
			<path class="st3" d="M207,100.8c0,0.2,0.1,0.4,0.2,0.4c0.1,0,0.2-0.2,0.2-0.4c0-0.2-0.1-0.4-0.2-0.4
				C207.1,100.4,207,100.6,207,100.8z"/>
			<path class="st3" d="M206.8,102.3c0,0.2,0.1,0.4,0.2,0.4c0.1,0,0.2-0.2,0.2-0.4c0-0.2-0.1-0.4-0.2-0.4
				C206.9,101.9,206.8,102,206.8,102.3z"/>
			<path class="st3" d="M206.7,103.7c0,0.2,0.1,0.4,0.2,0.4s0.2-0.2,0.2-0.4c0-0.2-0.1-0.4-0.2-0.4S206.7,103.5,206.7,103.7z"/>
			<path class="st3" d="M208.6,111c0-0.2,0.1-0.4,0.2-0.4c0.1,0,0.2,0.2,0.2,0.4c0,0.2-0.1,0.4-0.2,0.4
				C208.7,111.4,208.6,111.2,208.6,111z"/>
			<path class="st3" d="M209.4,110.5c0-0.2,0.1-0.3,0.2-0.3c0.1,0,0.2,0.1,0.2,0.3s-0.1,0.3-0.2,0.3
				C209.5,110.8,209.4,110.7,209.4,110.5z"/>
			<path class="st3" d="M209.8,109.6c0-0.1,0.1-0.3,0.1-0.3c0.1,0,0.1,0.1,0.1,0.3c0,0.1-0.1,0.3-0.1,0.3
				C209.9,109.9,209.8,109.8,209.8,109.6z"/>
			<path class="st3" d="M210.1,108.9c0-0.1,0-0.2,0.1-0.2s0.1,0.1,0.1,0.2c0,0.1,0,0.2-0.1,0.2S210.1,109,210.1,108.9z"/>
			<path class="st3" d="M209.4,98.7c0,0.2,0.1,0.3,0.2,0.3c0.1,0,0.2-0.1,0.2-0.3c0-0.2-0.1-0.3-0.2-0.3
				C209.5,98.4,209.4,98.5,209.4,98.7z"/>
			<path class="st3" d="M209.9,99.5c0,0.1,0.1,0.3,0.1,0.3c0.1,0,0.1-0.1,0.1-0.3c0-0.1-0.1-0.3-0.1-0.3
				C209.9,99.3,209.9,99.4,209.9,99.5z"/>
			<path class="st3" d="M210.2,100.3c0,0.1,0,0.2,0.1,0.2c0.1,0,0.1-0.1,0.1-0.2s0-0.2-0.1-0.2C210.2,100.1,210.2,100.2,210.2,100.3
				z"/>
			<path class="st3" d="M207.8,110.4c0-0.2,0.1-0.4,0.2-0.4c0.1,0,0.2,0.2,0.2,0.4c0,0.2-0.1,0.4-0.2,0.4
				C207.9,110.8,207.8,110.6,207.8,110.4z"/>
			<path class="st3" d="M207.3,109.5c0-0.2,0.1-0.4,0.2-0.4c0.1,0,0.2,0.2,0.2,0.4c0,0.2-0.1,0.4-0.2,0.4
				C207.4,109.8,207.3,109.7,207.3,109.5z"/>
			<path class="st3" d="M206.9,108.2c0-0.2,0.1-0.4,0.2-0.4s0.2,0.2,0.2,0.4c0,0.2-0.1,0.4-0.2,0.4S206.9,108.4,206.9,108.2z"/>
			<path class="st3" d="M206.7,106.8c0-0.2,0.1-0.4,0.2-0.4c0.1,0,0.2,0.2,0.2,0.4c0,0.2-0.1,0.4-0.2,0.4
				C206.8,107.2,206.7,107,206.7,106.8z"/>
			<path class="st3" d="M206.7,105.4c0-0.2,0.1-0.4,0.2-0.4c0.1,0,0.2,0.2,0.2,0.4c0,0.2-0.1,0.4-0.2,0.4
				C206.8,105.8,206.7,105.6,206.7,105.4z"/>
		</g>
		<g>
			<path class="st0" d="M190.8,106.2c0,5.7,1.3,10.4,3,10.4c1.6,0,3-4.6,3-10.4c0-5.7-1.3-10.4-3-10.4
				C192.1,95.8,190.8,100.4,190.8,106.2z"/>
			<path class="st1" d="M203.4,116.5"/>
			<rect x="193.7" y="95.8" class="st0" width="9.7" height="20.7"/>
			<ellipse class="st1" cx="203.4" cy="106.2" rx="3" ry="10.4"/>
			<ellipse class="st2" cx="203.3" cy="106.2" rx="2.3" ry="7.7"/>
			<path class="st3" d="M202,106.2c0,3.4,0.8,6.2,1.7,6.2c0.9,0,1.7-2.8,1.7-6.2c0-3.4-0.8-6.2-1.7-6.2
				C202.7,99.9,202,102.7,202,106.2z"/>
			<path class="st2" d="M202.4,106.2c0,2.9,0.4,5.2,1,5.2c0.1,0,0.1,0,0.2-0.1l0,0c0.5-0.4,0.8-2.6,0.8-5.2c0-0.4,0-0.8,0-1.1
				c0-0.4,0-0.7-0.1-1.1c-0.1-1.5-0.4-2.7-0.7-3l0,0l0,0c0,0-0.1-0.1-0.1-0.1c-0.3,0-0.6,0.8-0.8,2v0c0,0,0,0,0,0
				c-0.1,0.6-0.1,1.2-0.2,1.9C202.4,105.3,202.4,105.7,202.4,106.2z"/>
			<path class="st2" d="M203.5,101l0,2.7l0,1.2l0,6.5l0,0l1.6-1.3v-7.8L203.5,101L203.5,101L203.5,101z"/>
			<path class="st4" d="M202.4,104.8c0.3,0,0.7-0.1,1.1,0c0.3,0.1,0.6,0.3,0.8,0.6l0.1-0.5c0-0.4,0-0.7-0.1-1.1
				c-0.2-0.1-0.5-0.1-0.8-0.3c-0.4-0.2-0.7-0.4-0.9-0.8c0,0,0,0,0,0C202.5,103.5,202.4,104.1,202.4,104.8z"/>
			<path class="st5" d="M204.1,106.2c0,2.2,0.5,3.9,1,3.9c0.6,0,1-1.7,1-3.9c0-2.2-0.5-3.9-1-3.9C204.5,102.2,204.1,104,204.1,106.2
				z"/>
			<path class="st2" d="M204.5,106.1c0,1.1,0.2,2.1,0.4,2.6c0.1,0.2,0.2,0.2,0.3,0.2c0.4,0,0.7-1.3,0.7-2.8c0-1.6-0.3-2.8-0.7-2.8
				c-0.1,0-0.2,0.1-0.3,0.2C204.7,104,204.5,105,204.5,106.1z"/>
			<path class="st3" d="M204.5,106.1c0,1.1,0.2,2.1,0.4,2.6c0.4-0.1,0.6-1.2,0.6-2.6c0-1.3-0.3-2.4-0.6-2.6
				C204.7,104,204.5,105,204.5,106.1z"/>
			<ellipse class="st3" cx="203.5" cy="99.2" rx="0.2" ry="0.4"/>
			<path class="st3" d="M202.5,99.8c0,0.2,0.1,0.4,0.2,0.4c0.1,0,0.2-0.2,0.2-0.4c0-0.2-0.1-0.4-0.2-0.4
				C202.6,99.4,202.5,99.6,202.5,99.8z"/>
			<path class="st3" d="M201.9,100.9c0,0.2,0.1,0.4,0.2,0.4c0.1,0,0.2-0.2,0.2-0.4s-0.1-0.4-0.2-0.4
				C202,100.4,201.9,100.6,201.9,100.9z"/>
			<path class="st3" d="M201.5,102.2c0,0.2,0.1,0.4,0.2,0.4c0.1,0,0.2-0.2,0.2-0.4c0-0.2-0.1-0.4-0.2-0.4
				C201.6,101.8,201.5,102,201.5,102.2z"/>
			<ellipse class="st3" cx="201.5" cy="103.7" rx="0.2" ry="0.4"/>
			<ellipse class="st3" cx="201.5" cy="105.3" rx="0.2" ry="0.4"/>
			<ellipse class="st3" cx="203.5" cy="113" rx="0.2" ry="0.4"/>
			<ellipse class="st3" cx="204.3" cy="112.5" rx="0.2" ry="0.3"/>
			<path class="st3" d="M204.6,111.6c0-0.1,0.1-0.3,0.1-0.3c0.1,0,0.1,0.1,0.1,0.3c0,0.1-0.1,0.3-0.1,0.3
				C204.6,111.9,204.6,111.7,204.6,111.6z"/>
			<path class="st3" d="M204.9,110.8c0-0.1,0.1-0.2,0.1-0.2c0.1,0,0.1,0.1,0.1,0.2c0,0.1-0.1,0.2-0.1,0.2
				C204.9,111,204.9,110.9,204.9,110.8z"/>
			<ellipse class="st3" cx="204.3" cy="99.9" rx="0.2" ry="0.3"/>
			<path class="st3" d="M204.6,100.8c0,0.1,0.1,0.3,0.1,0.3c0.1,0,0.1-0.1,0.1-0.3c0-0.1-0.1-0.3-0.1-0.3
				C204.7,100.5,204.6,100.7,204.6,100.8z"/>
			<path class="st3" d="M204.9,101.6c0,0.1,0.1,0.2,0.1,0.2c0.1,0,0.1-0.1,0.1-0.2c0-0.1-0.1-0.2-0.1-0.2
				C205,101.4,204.9,101.5,204.9,101.6z"/>
			<ellipse class="st3" cx="202.6" cy="112.4" rx="0.2" ry="0.4"/>
			<path class="st3" d="M201.9,111.4c0-0.2,0.1-0.4,0.2-0.4c0.1,0,0.2,0.2,0.2,0.4s-0.1,0.4-0.2,0.4
				C202,111.8,201.9,111.6,201.9,111.4z"/>
			<path class="st3" d="M201.5,110.1c0-0.2,0.1-0.4,0.2-0.4c0.1,0,0.2,0.2,0.2,0.4c0,0.2-0.1,0.4-0.2,0.4
				C201.6,110.5,201.5,110.3,201.5,110.1z"/>
			<ellipse class="st3" cx="201.5" cy="108.5" rx="0.2" ry="0.4"/>
			<path class="st3" d="M201.2,107.1c0-0.2,0.1-0.4,0.2-0.4c0.1,0,0.2,0.2,0.2,0.4c0,0.2-0.1,0.4-0.2,0.4
				C201.3,107.5,201.2,107.3,201.2,107.1z"/>
		</g>
	</g>
	<g>
		<polygon class="st2" points="185.4,98.4 185.4,111 168.4,116.5 168.4,100.9 		"/>
		<polygon class="st2" points="196.9,98.4 196.9,111 179.8,116.5 179.8,100.9 		"/>
		<rect x="168.4" y="100.9" class="st6" width="11.5" height="15.7"/>
		<polygon class="st3" points="196.9,98.4 185.4,98.4 168.4,100.9 179.8,100.9 		"/>
	</g>
	<g>
		<g>
			<path class="st0" d="M153.2,114.8c0,8.7,2,15.8,4.5,15.8c2.5,0,4.5-7.1,4.5-15.8c0-8.7-2-15.8-4.5-15.8
				C155.2,99,153.2,106.1,153.2,114.8z"/>
			<path class="st1" d="M172.4,130.6"/>
			<rect x="157.6" y="99" class="st0" width="14.7" height="31.6"/>
			<path class="st1" d="M167.9,114.8c0,8.7,2,15.8,4.5,15.8c2.5,0,4.5-7.1,4.5-15.8c0-8.7-2-15.8-4.5-15.8
				C169.9,99,167.9,106.1,167.9,114.8z"/>
			<path class="st2" d="M168.7,114.8c0,6.4,1.6,11.7,3.5,11.7s3.5-5.2,3.5-11.7s-1.6-11.7-3.5-11.7S168.7,108.4,168.7,114.8z"/>
			<path class="st3" d="M170.2,114.8c0,5.2,1.2,9.5,2.6,9.5c1.4,0,2.6-4.3,2.6-9.5s-1.2-9.5-2.6-9.5
				C171.4,105.3,170.2,109.6,170.2,114.8z"/>
			<path class="st2" d="M170.8,114.8c0,4.4,0.7,8,1.5,8c0.1,0,0.2,0,0.2-0.1l0,0c0.7-0.6,1.3-3.9,1.3-7.9c0-0.6,0-1.1,0-1.7
				c0-0.6-0.1-1.1-0.1-1.6c-0.2-2.3-0.6-4.1-1.1-4.5l0,0l0,0c-0.1-0.1-0.1-0.1-0.2-0.1c-0.5,0-0.9,1.2-1.2,3.1v0c0,0,0,0,0,0
				c-0.1,0.9-0.2,1.8-0.3,2.9C170.8,113.5,170.8,114.1,170.8,114.8z"/>
			<path class="st2" d="M172.6,106.9l0,4.2l0,1.8l0,9.8l0,0l2.4-1.9v-11.9L172.6,106.9L172.6,106.9L172.6,106.9z"/>
			<path class="st4" d="M170.9,112.8c0.4-0.1,1.1-0.1,1.7,0.1c0.5,0.1,0.9,0.4,1.2,0.9l0.1-0.7c0-0.6-0.1-1.1-0.1-1.6
				c-0.3-0.1-0.7-0.2-1.2-0.4c-0.6-0.3-1.1-0.6-1.4-1.2c0,0,0,0,0,0C171,110.7,170.9,111.7,170.9,112.8z"/>
			<path class="st5" d="M173.5,114.8c0,3.3,0.7,6,1.5,6s1.5-2.7,1.5-6s-0.7-6-1.5-6S173.5,111.5,173.5,114.8z"/>
			<path class="st2" d="M174.1,114.8c0,1.7,0.3,3.3,0.7,3.9c0.1,0.2,0.3,0.4,0.4,0.4c0.6,0,1.1-1.9,1.1-4.3c0-2.4-0.5-4.3-1.1-4.3
				c-0.2,0-0.3,0.1-0.4,0.4C174.4,111.6,174.1,113.1,174.1,114.8z"/>
			<path class="st3" d="M174.1,114.8c0,1.7,0.3,3.3,0.7,3.9c0.6-0.2,1-1.9,1-3.9c0-2-0.4-3.7-1-3.9
				C174.4,111.6,174.1,113.1,174.1,114.8z"/>
			<ellipse class="st3" cx="172.6" cy="104.2" rx="0.3" ry="0.6"/>
			<path class="st3" d="M171,105.2c0,0.3,0.1,0.6,0.3,0.6s0.3-0.3,0.3-0.6c0-0.3-0.1-0.6-0.3-0.6S171,104.8,171,105.2z"/>
			<path class="st3" d="M170.2,106.7c0,0.3,0.1,0.6,0.3,0.6s0.3-0.3,0.3-0.6c0-0.3-0.1-0.6-0.3-0.6S170.2,106.4,170.2,106.7z"/>
			<path class="st3" d="M169.6,108.8c0,0.3,0.1,0.6,0.3,0.6s0.3-0.3,0.3-0.6c0-0.3-0.1-0.6-0.3-0.6S169.6,108.4,169.6,108.8z"/>
			<path class="st3" d="M169.2,111.1c0,0.3,0.1,0.6,0.3,0.6c0.2,0,0.3-0.3,0.3-0.6c0-0.3-0.1-0.6-0.3-0.6
				C169.4,110.5,169.2,110.8,169.2,111.1z"/>
			<ellipse class="st3" cx="169.5" cy="113.5" rx="0.3" ry="0.6"/>
			<path class="st3" d="M172.2,125.3c0-0.3,0.1-0.6,0.3-0.6c0.2,0,0.3,0.3,0.3,0.6c0,0.3-0.1,0.6-0.3,0.6
				C172.3,126,172.2,125.7,172.2,125.3z"/>
			<ellipse class="st3" cx="173.8" cy="124.5" rx="0.3" ry="0.5"/>
			<path class="st3" d="M174.2,123.1c0-0.2,0.1-0.4,0.2-0.4s0.2,0.2,0.2,0.4c0,0.2-0.1,0.4-0.2,0.4S174.2,123.3,174.2,123.1z"/>
			<path class="st3" d="M174.6,121.9c0-0.2,0.1-0.3,0.2-0.3c0.1,0,0.2,0.2,0.2,0.3c0,0.2-0.1,0.3-0.2,0.3
				C174.7,122.3,174.6,122.1,174.6,121.9z"/>
			<path class="st3" d="M173.6,105.3c0,0.3,0.1,0.5,0.3,0.5s0.3-0.2,0.3-0.5c0-0.3-0.1-0.5-0.3-0.5S173.6,105,173.6,105.3z"/>
			<path class="st3" d="M174.3,106.7c0,0.2,0.1,0.4,0.2,0.4s0.2-0.2,0.2-0.4c0-0.2-0.1-0.4-0.2-0.4S174.3,106.5,174.3,106.7z"/>
			<path class="st3" d="M174.7,107.9c0,0.2,0.1,0.3,0.2,0.3c0.1,0,0.2-0.2,0.2-0.3c0-0.2-0.1-0.3-0.2-0.3
				C174.8,107.5,174.7,107.7,174.7,107.9z"/>
			<path class="st3" d="M170.9,124.4c0-0.3,0.1-0.6,0.3-0.6c0.2,0,0.3,0.3,0.3,0.6c0,0.3-0.1,0.6-0.3,0.6
				C171.1,125,170.9,124.7,170.9,124.4z"/>
			<ellipse class="st3" cx="170.4" cy="122.8" rx="0.3" ry="0.6"/>
			<path class="st3" d="M169.5,120.8c0-0.3,0.1-0.6,0.3-0.6c0.2,0,0.3,0.3,0.3,0.6c0,0.3-0.1,0.6-0.3,0.6
				C169.7,121.4,169.5,121.1,169.5,120.8z"/>
			<path class="st3" d="M169.2,118.5c0-0.3,0.1-0.6,0.3-0.6c0.2,0,0.3,0.3,0.3,0.6s-0.1,0.6-0.3,0.6
				C169.3,119.1,169.2,118.8,169.2,118.5z"/>
			<ellipse class="st3" cx="169.4" cy="116.2" rx="0.3" ry="0.6"/>
		</g>
		<g>
			<path class="st0" d="M143.2,117.5c0,9.3,2.1,16.8,4.8,16.8s4.8-7.5,4.8-16.8s-2.1-16.8-4.8-16.8S143.2,108.2,143.2,117.5z"/>
			<path class="st1" d="M163.7,134.3"/>
			<rect x="148" y="100.6" class="st0" width="15.7" height="33.7"/>
			<ellipse class="st1" cx="163.7" cy="117.5" rx="4.8" ry="16.8"/>
			<path class="st2" d="M159.8,117.5c0,6.9,1.7,12.5,3.8,12.5s3.8-5.6,3.8-12.5c0-6.9-1.7-12.5-3.8-12.5S159.8,110.6,159.8,117.5z"
				/>
			<path class="st3" d="M161.4,117.5c0,5.6,1.2,10.1,2.8,10.1s2.8-4.5,2.8-10.1c0-5.6-1.2-10.1-2.8-10.1S161.4,111.9,161.4,117.5z"
				/>
			<path class="st2" d="M162.1,117.5c0,4.7,0.7,8.5,1.6,8.5c0.1,0,0.2,0,0.2-0.1l0,0c0.8-0.7,1.4-4.2,1.4-8.4c0-0.6,0-1.2,0-1.8
				c0-0.6-0.1-1.2-0.1-1.7c-0.2-2.5-0.7-4.3-1.2-4.8l0,0l0,0c-0.1-0.1-0.2-0.1-0.2-0.1c-0.5,0-1,1.3-1.3,3.3v0c0,0,0,0,0,0
				c-0.1,0.9-0.2,2-0.3,3.1C162.1,116,162.1,116.7,162.1,117.5z"/>
			<path class="st2" d="M163.9,109l0,4.4l0,1.9l0,10.5l0,0l2.6-2.1v-12.7L163.9,109L163.9,109L163.9,109z"/>
			<path class="st4" d="M162.1,115.3c0.4-0.1,1.2-0.1,1.8,0.1c0.5,0.2,1,0.5,1.3,1l0.1-0.7c0-0.6-0.1-1.2-0.1-1.7
				c-0.3-0.1-0.8-0.2-1.3-0.4c-0.6-0.3-1.2-0.7-1.5-1.3c0,0,0,0,0,0C162.3,113.1,162.2,114.1,162.1,115.3z"/>
			<path class="st5" d="M164.9,117.5c0,3.5,0.7,6.4,1.6,6.4c0.9,0,1.6-2.8,1.6-6.4c0-3.5-0.7-6.4-1.6-6.4
				C165.6,111.1,164.9,113.9,164.9,117.5z"/>
			<path class="st2" d="M165.5,117.4c0,1.9,0.3,3.5,0.7,4.2c0.1,0.3,0.3,0.4,0.5,0.4c0.7,0,1.2-2,1.2-4.6c0-2.5-0.5-4.6-1.2-4.6
				c-0.2,0-0.3,0.1-0.5,0.4C165.8,114,165.5,115.6,165.5,117.4z"/>
			<path class="st3" d="M165.5,117.4c0,1.9,0.3,3.5,0.7,4.2c0.6-0.2,1.1-2,1.1-4.2c0-2.2-0.5-4-1.1-4.2
				C165.8,114,165.5,115.6,165.5,117.4z"/>
			<path class="st3" d="M163.6,106.2c0,0.4,0.2,0.7,0.3,0.7c0.2,0,0.3-0.3,0.3-0.7c0-0.4-0.2-0.7-0.3-0.7
				C163.7,105.5,163.6,105.8,163.6,106.2z"/>
			<path class="st3" d="M162.2,107.2c0,0.4,0.2,0.7,0.3,0.7s0.3-0.3,0.3-0.7s-0.2-0.7-0.3-0.7S162.2,106.8,162.2,107.2z"/>
			<path class="st3" d="M161.4,108.8c0,0.4,0.2,0.7,0.3,0.7c0.2,0,0.3-0.3,0.3-0.7c0-0.4-0.2-0.7-0.3-0.7
				C161.5,108.2,161.4,108.5,161.4,108.8z"/>
			<ellipse class="st3" cx="161.1" cy="111" rx="0.3" ry="0.7"/>
			<path class="st3" d="M160.4,113.5c0,0.4,0.2,0.7,0.3,0.7s0.3-0.3,0.3-0.7c0-0.4-0.2-0.7-0.3-0.7S160.4,113.1,160.4,113.5z"/>
			<ellipse class="st3" cx="160.6" cy="116.1" rx="0.3" ry="0.7"/>
			<path class="st3" d="M163.5,128.7c0-0.4,0.2-0.7,0.3-0.7c0.2,0,0.3,0.3,0.3,0.7c0,0.4-0.2,0.7-0.3,0.7
				C163.7,129.3,163.5,129,163.5,128.7z"/>
			<ellipse class="st3" cx="165.2" cy="127.8" rx="0.3" ry="0.5"/>
			<path class="st3" d="M165.6,126.3c0-0.2,0.1-0.4,0.2-0.4s0.2,0.2,0.2,0.4s-0.1,0.4-0.2,0.4S165.6,126.5,165.6,126.3z"/>
			<ellipse class="st3" cx="166.3" cy="125" rx="0.2" ry="0.4"/>
			<ellipse class="st3" cx="165.3" cy="107.3" rx="0.3" ry="0.5"/>
			<path class="st3" d="M165.8,108.8c0,0.2,0.1,0.4,0.2,0.4s0.2-0.2,0.2-0.4c0-0.2-0.1-0.4-0.2-0.4S165.8,108.5,165.8,108.8z"/>
			<path class="st3" d="M166.3,110c0,0.2,0.1,0.4,0.2,0.4c0.1,0,0.2-0.2,0.2-0.4c0-0.2-0.1-0.4-0.2-0.4
				C166.3,109.7,166.3,109.8,166.3,110z"/>
			<path class="st3" d="M162.2,127.7c0-0.4,0.2-0.7,0.3-0.7s0.3,0.3,0.3,0.7c0,0.4-0.2,0.7-0.3,0.7S162.2,128,162.2,127.7z"/>
			<path class="st3" d="M161.3,126c0-0.4,0.2-0.7,0.3-0.7s0.3,0.3,0.3,0.7c0,0.4-0.2,0.7-0.3,0.7S161.3,126.4,161.3,126z"/>
			<ellipse class="st3" cx="161" cy="123.8" rx="0.3" ry="0.7"/>
			<ellipse class="st3" cx="160.7" cy="121.3" rx="0.3" ry="0.7"/>
			<ellipse class="st3" cx="160.6" cy="119" rx="0.3" ry="0.7"/>
		</g>
	</g>
	<g>
		<ellipse class="st0" cx="97.1" cy="135" rx="6.4" ry="22.5"/>
		<path class="st1" d="M118.1,157.5"/>
		<rect x="97.1" y="112.5" class="st0" width="21" height="45"/>
		<path class="st1" d="M111.7,135c0,12.4,2.9,22.5,6.4,22.5c3.5,0,6.4-10.1,6.4-22.5c0-12.4-2.9-22.5-6.4-22.5
			C114.6,112.5,111.7,122.6,111.7,135z"/>
		<ellipse class="st2" cx="117.9" cy="135" rx="5" ry="16.6"/>
		<path class="st3" d="M115,135c0,7.5,1.6,13.5,3.7,13.5c2,0,3.7-6.1,3.7-13.5s-1.6-13.5-3.7-13.5C116.6,121.5,115,127.5,115,135z"
			/>
		<path class="st2" d="M115.8,135c0,6.3,1,11.4,2.2,11.4c0.1,0,0.2,0,0.3-0.1l0,0c1-0.9,1.8-5.6,1.8-11.2c0-0.8,0-1.6-0.1-2.4
			c0-0.8-0.1-1.6-0.1-2.3c-0.3-3.3-0.9-5.8-1.6-6.5l0,0l-0.1,0c-0.1-0.1-0.2-0.1-0.3-0.1c-0.7,0-1.3,1.7-1.7,4.3v0c0,0,0,0,0,0
			c-0.2,1.2-0.3,2.6-0.4,4.2C115.9,133.1,115.8,134,115.8,135z"/>
		<path class="st2" d="M118.3,123.7l0,5.9l0,2.6l0,14l0,0l3.4-2.8v-17L118.3,123.7L118.3,123.7L118.3,123.7z"/>
		<path class="st4" d="M115.9,132.1c0.6-0.1,1.5-0.2,2.4,0.1c0.7,0.2,1.3,0.6,1.7,1.3l0.1-1c0-0.8-0.1-1.6-0.1-2.3
			c-0.4-0.1-1.1-0.3-1.7-0.6c-0.8-0.4-1.6-0.9-2-1.7c0,0,0,0,0,0C116.1,129.2,116,130.6,115.9,132.1z"/>
		<path class="st5" d="M119.6,135c0,4.7,1,8.5,2.2,8.5c1.2,0,2.2-3.8,2.2-8.5c0-4.7-1-8.5-2.2-8.5
			C120.6,126.5,119.6,130.3,119.6,135z"/>
		<path class="st2" d="M120.5,135c0,2.5,0.4,4.6,0.9,5.6c0.2,0.3,0.4,0.5,0.6,0.5c0.9,0,1.6-2.7,1.6-6.1s-0.7-6.1-1.6-6.1
			c-0.2,0-0.4,0.2-0.6,0.5C120.9,130.4,120.5,132.5,120.5,135z"/>
		<path class="st3" d="M120.5,135c0,2.5,0.4,4.6,0.9,5.6c0.8-0.3,1.4-2.7,1.4-5.6s-0.6-5.3-1.4-5.6
			C120.9,130.4,120.5,132.5,120.5,135z"/>
		<ellipse class="st3" cx="118.3" cy="120" rx="0.5" ry="0.9"/>
		<ellipse class="st3" cx="116.5" cy="121.3" rx="0.5" ry="0.9"/>
		<path class="st3" d="M114.9,123.5c0,0.5,0.2,0.9,0.5,0.9c0.3,0,0.5-0.4,0.5-0.9s-0.2-0.9-0.5-0.9
			C115.1,122.6,114.9,123,114.9,123.5z"/>
		<ellipse class="st3" cx="114.5" cy="126.4" rx="0.5" ry="0.9"/>
		<ellipse class="st3" cx="114.1" cy="129.7" rx="0.5" ry="0.9"/>
		<path class="st3" d="M113.5,133.2c0,0.5,0.2,0.9,0.5,0.9c0.3,0,0.5-0.4,0.5-0.9c0-0.5-0.2-0.9-0.5-0.9
			C113.7,132.3,113.5,132.7,113.5,133.2z"/>
		<ellipse class="st3" cx="118.3" cy="150" rx="0.5" ry="0.9"/>
		<path class="st3" d="M119.7,148.8c0-0.4,0.2-0.7,0.4-0.7c0.2,0,0.4,0.3,0.4,0.7c0,0.4-0.2,0.7-0.4,0.7
			C119.8,149.6,119.7,149.2,119.7,148.8z"/>
		<path class="st3" d="M120.6,146.8c0-0.3,0.1-0.6,0.3-0.6c0.2,0,0.3,0.3,0.3,0.6c0,0.3-0.1,0.6-0.3,0.6
			C120.8,147.4,120.6,147.2,120.6,146.8z"/>
		<ellipse class="st3" cx="121.6" cy="145.1" rx="0.2" ry="0.5"/>
		<path class="st3" d="M119.8,121.4c0,0.4,0.2,0.7,0.4,0.7c0.2,0,0.4-0.3,0.4-0.7c0-0.4-0.2-0.7-0.4-0.7
			C120,120.7,119.8,121,119.8,121.4z"/>
		<path class="st3" d="M120.8,123.4c0,0.3,0.1,0.6,0.3,0.6c0.2,0,0.3-0.3,0.3-0.6c0-0.3-0.1-0.6-0.3-0.6
			C120.9,122.8,120.8,123.1,120.8,123.4z"/>
		<ellipse class="st3" cx="121.7" cy="125.1" rx="0.2" ry="0.5"/>
		<path class="st3" d="M116,148.7c0-0.5,0.2-0.9,0.5-0.9c0.3,0,0.5,0.4,0.5,0.9s-0.2,0.9-0.5,0.9C116.2,149.6,116,149.2,116,148.7z"
			/>
		<path class="st3" d="M114.9,146.4c0-0.5,0.2-0.9,0.5-0.9c0.3,0,0.5,0.4,0.5,0.9c0,0.5-0.2,0.9-0.5,0.9
			C115.1,147.3,114.9,146.9,114.9,146.4z"/>
		<path class="st3" d="M114,143.5c0-0.5,0.2-0.9,0.5-0.9c0.3,0,0.5,0.4,0.5,0.9c0,0.5-0.2,0.9-0.5,0.9
			C114.2,144.4,114,144,114,143.5z"/>
		<ellipse class="st3" cx="114" cy="140.2" rx="0.5" ry="0.9"/>
		<ellipse class="st3" cx="113.9" cy="137" rx="0.5" ry="0.9"/>
	</g>
	<g>
		<g>
			<path class="st7" d="M159.2,96.7c1.6,0,3.6-0.2,3.7-0.2c0.3,0,31.8-3.5,49.3-5.8l1.3-44.7L162.1,6.9L159.2,96.7z"/>
			<g>
				<path class="st8" d="M163.4,9.6l48.8,37l-1.3,42.8c-17.7,2.3-47.8,5.6-48.1,5.6l0,0l0,0c0,0-1,0.1-2.1,0.2L163.4,9.6 M160.8,4.2
					l-3,93.8c0.4,0.1,0.9,0.1,1.4,0.1c1.7,0,3.8-0.3,3.8-0.3s33-3.6,50.5-5.9l1.4-46.6L160.8,4.2L160.8,4.2z"/>
			</g>
		</g>
		<g>
			<polygon class="st9" points="156.5,96.6 159.4,5.6 73.1,7.1 61.3,96.7 			"/>
			<g>
				<path class="st7" d="M158,7l-2.8,88.2l-92.3,0.1L74.3,8.4L158,7 M160.8,4.2L71.9,5.7L59.7,98l98.1-0.1L160.8,4.2L160.8,4.2z"/>
			</g>
		</g>
	</g>
	<path class="st1" d="M108.5,147.6c0,0-5.1,9.6-23.8,9.8c-18.7,0.2-71.9-3.8-71.9-3.8S2.6,151,1.3,136.4
		c-0.4-4.5,104.9,4.5,104.9,4.5L108.5,147.6z"/>
	<path class="st1" d="M32.4,70.9H33c2,0,3.7-1.6,3.7-3.7V51.6c0-2-1.6-3.7-3.7-3.7h-0.6c-2,0-3.7,1.6-3.7,3.7v15.6
		C28.8,69.2,30.4,70.9,32.4,70.9z"/>
	<path class="st10" d="M1.7,137.3c2.3,2.5,12.1,4.8,12.1,4.8l3.7-2l48.1,2.3l3.1,2.5c0,0,18.6,0.2,22.3-2.7c0,0,0,0,0.1,0
		c5.1,4.5,12.6,7.4,17.4,5.6l4.6-27.7l0-0.1v0c0,0,0-0.1,0-0.1c0-0.1,0-0.1,0-0.2c0,0,0-0.1,0-0.1c0,0,0-0.1,0-0.1c0,0,0-0.1,0-0.1
		c0,0,0-0.1,0-0.1c0,0,0-0.1-0.1-0.1c0,0,0,0,0,0c0,0,0-0.1-0.1-0.1c0,0,0-0.1-0.1-0.1c-0.1-0.1-0.1-0.2-0.2-0.2
		c-0.1-0.1-0.1-0.1-0.2-0.2c0,0-0.1-0.1-0.1-0.1c0,0-0.1,0-0.1-0.1c0,0,0,0-0.1,0c0,0,0,0,0,0c0,0-0.1,0-0.1-0.1c0,0-0.1,0-0.1-0.1
		c0,0,0,0,0,0c-0.1,0-0.2,0-0.2-0.1c0,0-0.1,0-0.1,0c0,0,0,0-0.1,0c0,0-0.1,0-0.1,0c0,0,0,0,0-0.1c0.3-1.1,2.7-11.4,6.8-12
		c10.1-1.5,7.5,33.9,7.5,33.9l23-10.3l6.3-1.1l1.7-24.5c0-0.3-0.1-0.6-0.2-0.8c-0.2-0.3-0.5-0.5-0.9-0.6l-6.3-0.8c0,0,0,0,0-0.1
		c0.3-3.3,6.3-80.5-2-95.3c0,0-4.1-5.3-10-6.3C135.9,0,132.1,0,126.9,0c-0.8,0-1.6,0-2.5,0c-9.8,0.2-23.3,0.7-33.7,1.1
		c-1.4,0.1-2.7,0.1-3.9,0.2c-7.1,0.3-12,0.5-12,0.5S65,3.2,61.1,7.1c-2,2-6.2,10.2-11.2,20.3c-0.2,0.4-1.8,1.4-2,1.9
		c-0.4,0.7-0.4,0.7-0.7,1.5c-1.6,3.4-3.1,6.9-4.5,10.7c-2.5,6.5-4.7,13.8-6.8,22.6c0,0,0,0,0,0C35,64.5,21.3,72.5,19.2,78
		c-2.2,5.7-2.5,12.3-2.5,12.3s-8.2,3.2-11.3,7.5c-0.3,0.5-0.6,1-0.8,1.5c-1.1,2.9-1.7,8.1-1.9,11.8c-0.2,2.8-0.2,4.8-0.2,4.8
		c-0.1,0-0.2,0-0.3,0.1c-0.8,0.2-1.7,0.9-2,1.8C0.1,117.7-0.7,134.7,1.7,137.3z"/>
	<path class="st10" d="M0.1,117.7c0.3-0.9,1.1-1.5,2-1.8c0.1,0,0.2,0,0.3-0.1c0,0,0-2,0.2-4.8c0.3-3.8,0.8-8.9,1.9-11.8
		c0.2-0.5,0.5-1,0.8-1.5c3.1-4.3,11.3-7.5,11.3-7.5s0.4-6.7,2.5-12.3c2.1-5.5,15.8-13.4,16.6-13.9c0,0,0,0,0,0
		c2-8.8,4.3-16.1,6.8-22.6c1.4-3.8,2.9-7.3,4.5-10.7c0.4-0.8,0.4-0.8,0.7-1.5c0.2-0.5,1.8-1.4,2-1.9c5-10,9.2-18.3,11.2-20.3
		C65,3.2,74.8,1.8,74.8,1.8s-8.3,1.4-12.2,5.3c-1.8,1.8-11.5,20.5-11.5,20.5l59.1,1.3c0,0-56.4,1.1-60.4,0.7
		C49,29.6,37.1,63.9,38.2,64c0.8,0.1-11.5,6.5-15.9,11.7c-0.6,0.7-1.1,1.5-1.4,2.2c-2.2,5.7-2.3,13.7-2.3,13.7s-6.4,1.9-9.5,6.2
		c-0.3,0.5-0.6,1-0.8,1.5c-1.1,2.9-1.7,8.1-1.9,11.8c-0.2,2.8-0.2,4.8-0.2,4.8c-0.1,0-0.2,0-0.3,0.1c-0.8,0.2-1.7,0.9-2,1.8
		c0,0-0.8,17,1.6,19.5c1.6,1.7,6.5,3.3,9.5,4.1l-1.2,0.6c0,0-9.7-2.2-12.1-4.8C-0.7,134.7,0.1,117.7,0.1,117.7z"/>
	<path class="st10" d="M96.8,122.6c0,0-2.6,11.6-5.7,19.5c5.1,4.5,12.6,7.4,17.4,5.6L113,120l0-0.1
		C109.9,121.1,97.4,123.2,96.8,122.6z"/>
	<path class="st11" d="M69.9,122.6c0.6,1.9,9.2-20,11.7-22.7c3.7-4,40.6-16.7,40.6-15l-17.4,15.6l-2.2,10.3
		c-7.2,8.3-29.5,11.7-29.5,11.7s34.6-3.2,38.1-4.4c0.3-1.1,2.7-11.5,6.8-12.1c10.1-1.5,7.5,33.9,7.5,33.9l23-10.3l6.3-1.1l1.7-24.5
		c0-0.3-0.1-0.6-0.2-0.8c-0.2-0.3-0.5-0.5-0.9-0.6l-6.3-0.8c0,0,0,0,0-0.1c0.3-3.3,6.3-80.5-2-95.3c0,0-18.4-4.3-21.7,4.9
		c-3.3,9.2-5.9,31.6-5.9,31.6l-6.1,23.6c0,0,4.3,2.9,3,2.7c-1.9-0.3-30.2,12.2-33.5,14C77.7,86.3,69.1,120.1,69.9,122.6z"/>
	
		<linearGradient id="SVGID_1_" gradientUnits="userSpaceOnUse" x1="1013.2141" y1="88.2035" x2="1013.2141" y2="88.2035" gradientTransform="matrix(-1 0 0 1 1088.14 0)">
		<stop  offset="0" style="stop-color:#FFFFFF"/>
		<stop  offset="1" style="stop-color:#000000"/>
	</linearGradient>
	<path class="st12" d="M74.9,88.2"/>
	<g>
		<path class="st9" d="M62.5,84.7c0,0,10.7,1.5,12.4,4l-10.7,42.2c0,0-1.1,3.1-5.5,2.9c-4.4-0.2-36.9-1.8-36.9-1.8s-2.1-0.2-2.7-3.1
			c-0.6-2.9-4.1-37.8-1.5-42.2c0,0,4.7-2.3,7.7-2.6C28.5,83.8,49.6,82.2,62.5,84.7z"/>
		<path class="st3" d="M17.8,98c0,1,0,2,0.1,3c0,0.8,0.1,1.6,0.1,2.4c0,1,0.1,2,0.2,3c0,0.8,0.1,1.6,0.1,2.4c0.1,1,0.1,2,0.2,3
			c0.1,0.8,0.1,1.6,0.2,2.4c0.1,1.6,0.3,3.1,0.4,4.5l45.7,2.6l1.3-5.1l0.6-2.3l0.8-3l0.6-2.3l0.8-3l0.6-2.3l0.8-3l0.6-2.3l0.8-3
			l0.6-2.3l0.5-1.9c-1.6-2.3-13.8-3.5-13.8-3.5c-11.5-2.3-30.5-0.8-33.2-0.5c-2.8,0.3-6.9,2.4-6.9,2.4c-0.2,0.3-0.3,0.7-0.4,1.2
			c-0.1,0.6-0.2,1.4-0.3,2.3c-0.1,0.9-0.1,1.9-0.1,3C17.8,96.4,17.8,97.2,17.8,98z"/>
		<path class="st1" d="M64.1,124l-1.6,6.8c0,0-0.3,2.2-4.4,2.1c-4.1-0.2-35.2-1.7-35.2-1.7s-2.2-0.6-2.6-1.9
			c-0.4-1.3-0.8-7.8-0.8-7.8L64.1,124z"/>
		<g>
			<path class="st9" d="M17.9,92.6l53.5,2.3l0.6-2.3l-53.8-2.3C18.1,90.9,18,91.7,17.9,92.6z"/>
		</g>
		<g>
			<polygon class="st9" points="17.8,98 70.1,100.2 70.7,97.9 17.8,95.6 			"/>
		</g>
		<g>
			<path class="st9" d="M17.9,101c0,0.8,0.1,1.6,0.1,2.4l50.8,2.2l0.6-2.3L17.9,101z"/>
		</g>
		<path class="st9" d="M18.1,106.4c0,0.8,0.1,1.6,0.1,2.4l49.1,2.1l0.6-2.3L18.1,106.4z"/>
		<g>
			<path class="st9" d="M18.5,111.8c0.1,0.8,0.1,1.6,0.2,2.4l47.4,2l0.6-2.3L18.5,111.8z"/>
		</g>
	</g>
	<path class="st3" d="M35.8,64.1c1,0.7,2.1,1.4,3,1.4c1.7,0,50-0.7,74.8,1.2c0,0,3.7-0.8,4.2-3.1c0.5-2.3,2.5-18.3,2.5-18.3
		s-0.5-4.8-4.1-5.3c-9.7-1.5-47.6-2-69.9,0.2c0,0-2.2,0-3.6,1.2C40.1,48,37.9,55.3,35.8,64.1C35.8,64.1,35.8,64.1,35.8,64.1z"/>
	<path class="st13" d="M117.9,45.9c0,0-1.8,14.6-2.3,16.7c-0.5,2.2-3.8,2.9-3.8,2.9c-5.3-0.4-12-0.7-19.1-0.9h0
		c-2.1,0-4.2-0.1-6.4-0.1h0c-6-0.1-12.2-0.2-18-0.2c-2.3,0-4.4,0-6.6,0c-3.6,0-7,0-10,0c-7.2,0-12,0-12.5,0c-0.1,0-0.2,0-0.3,0
		c-0.7-0.1-1.4-0.5-2.1-1.1c0,0,4-15,6.3-21c1.3-1.2,2.9-1.1,2.9-1.1c5.5-0.5,12.4-0.9,19.6-1.1c4.3-0.1,8.7-0.2,13-0.2
		c3.4,0,6.8,0,10,0h0c2.2,0,4.4,0.1,6.4,0.1h0c7.4,0.2,13.6,0.5,17.3,0.8h0c0.7,0.1,1.3,0.1,1.8,0.2c1.2,0.2,2.1,0.9,2.6,1.8
		C117.7,44.1,117.9,45.9,117.9,45.9z"/>
	<path class="st14" d="M93.8,39.9L67,64.2c-2.3,0-3.2,0-5.3,0l26.9-24.4h0C90.8,39.8,91.7,39.8,93.8,39.9z"/>
	<path class="st14" d="M116.8,42.7L92.7,64.6h0c-2.1,0-4.2-0.1-6.4-0.1l26.1-23.7h0c0.7,0.1,1.3,0.1,1.8,0.2
		C115.4,41.2,116.2,41.9,116.8,42.7z"/>
	<path class="st14" d="M78.6,39.8L51.6,64.2c-7.2,0-12,0-12.5,0c-0.1,0-0.2,0-0.3,0L65.6,40C69.8,39.8,74.2,39.8,78.6,39.8z"/>
	
		<linearGradient id="SVGID_00000063615684059918429340000004989019957546314427_" gradientUnits="userSpaceOnUse" x1="983.3166" y1="109.0159" x2="1011.9094" y2="109.0159" gradientTransform="matrix(-1 0 0 1 1088.14 0)">
		<stop  offset="0" style="stop-color:#FFFFFF"/>
		<stop  offset="1" style="stop-color:#000000"/>
	</linearGradient>
	<path style="fill:url(#SVGID_00000063615684059918429340000004989019957546314427_);" d="M104.8,100.5c0,0,0.7,11.2-6.3,14
		c-6.9,2.7-22.3,3.1-22.3,3.1s2.3-8.7,9.3-11.9C92.4,102.6,104.8,100.5,104.8,100.5z"/>
	<path class="st16" d="M76.2,117.6c0,0,15.4-0.4,22.3-3.1c6.9-2.7,6.3-14,6.3-14s-12.4,2.1-19.3,5.2c-1.6,0.7-2.9,1.7-4,2.8
		C77.6,112.3,76.2,117.6,76.2,117.6z"/>
	<path class="st17" d="M99.5,102.8c1.4-0.3,2.7,0.9,2.6,2.4c-0.3,3-1.4,7.4-5.2,8.9c-3.9,1.6-11.1,2.2-15.3,2.5
		c-1.7,0.1-2.8-1.6-2.1-3.1c1.2-2.3,3.2-5.2,6.4-6.7C89.9,104.9,96,103.5,99.5,102.8z"/>
	<path class="st16" d="M2.6,111.1c5.6,1.5,11,2.6,11,2.6s-0.3-4.5-2.3-8.9c-1.2-2.8-3.1-5.5-5.9-7c-0.3,0.5-0.6,1-0.8,1.5
		c0,0,0,0.1,0,0.1c-0.2,0.5-0.4,1.1-0.5,1.7c-0.2,0.9-0.4,2-0.6,3c-0.2,1.5-0.4,3.1-0.6,4.7C2.7,109.6,2.6,110.4,2.6,111.1z"/>
	<path class="st1" d="M92.1,132.9c0,0-1.2,7-3.2,7.7c-1.9,0.7-19.1,1.9-19.1,1.9l-3.8-2.8v-4.2C66,135.4,78.2,134.1,92.1,132.9z"/>
	<path class="st1" d="M1.8,128.3c0,0-0.2,7,1.6,7.9c1.8,0.9,9.4,3.4,9.4,3.4l4.2-2.3l0.8-4.2C17.7,133.1,14.1,132,1.8,128.3z"/>
	<path class="st18" d="M125.5,109.5l23.1-5.3l7.8-1c-0.2-0.3-0.5-0.5-0.9-0.6l-6.3-0.8L125.5,109.5z"/>
	<path class="st18" d="M16.8,119c-5.3-1.4-14.7-5.9-14.2-6.9c-0.2,2.8-0.2,3.8-0.2,3.8C2.3,115.9,16.8,119,16.8,119z"/>
	<g>
		<path class="st19" d="M124.7,87.6c0.2,2.4-0.8,15-0.4,17c0,0.1,0,0.2,0.1,0.2c0.1,0.2,0.8,0.2,1.8,0c4.3-0.8,14.6-4.2,15.2-4.9
			c2.2-2.3,2.3-66.5,2.3-66.5s-14.8-3.2-16-2.7c-0.1,0-0.2,0.1-0.3,0.1c-0.4,0.2-0.7,0.4-1.1,0.7c-0.9,0.8-1.8,2.1-2.1,4.4
			c-0.5,3.6-2.5,48.5-2.5,48.5S124.5,85.1,124.7,87.6z"/>
		<path class="st19" d="M124.1,105.1c-0.1-0.1-0.1-0.2-0.1-0.3c-0.2-1.2,0-5.6,0.2-9.9c0.1-3.1,0.3-6.1,0.2-7.1
			c-0.2-2.2-2.7-2.8-2.8-2.8l-0.3-0.1l0-0.3c0.1-1.8,2-44.9,2.5-48.5c0.3-2.1,1-3.7,2.2-4.7c0.4-0.3,0.8-0.6,1.2-0.8
			c0.1-0.1,0.2-0.1,0.4-0.1c1.3-0.5,13.8,2.2,16.3,2.7l0.3,0.1l0,0.3c0,0.2,0,16.2-0.3,32.4c-0.2,9.5-0.4,17.1-0.7,22.8
			c-0.5,10.7-1.1,11.4-1.4,11.6c-0.7,0.8-11.4,4.3-15.4,5c-0.6,0.1-1.1,0.2-1.4,0.2C124.4,105.4,124.2,105.3,124.1,105.1z M127.8,31
			c-0.1,0-0.2,0.1-0.3,0.1c-0.4,0.2-0.7,0.4-1,0.7c-1,0.9-1.7,2.3-1.9,4.2c-0.5,3.4-2.3,44.1-2.5,48.2c1.1,0.3,2.9,1.4,3.1,3.4v0
			c0.1,1.1-0.1,4.1-0.2,7.2c-0.2,4.1-0.4,8.7-0.2,9.8c0,0,0,0,0,0c0.1,0,0.5,0,1.4-0.1c4.6-0.8,14.4-4.2,15-4.8
			c0.4-0.4,1.3-4.6,1.8-33.9c0.3-14.9,0.3-29.7,0.3-32C136.3,32.2,128.6,30.8,127.8,31z"/>
	</g>
	<path class="st10" d="M124.7,87.6c0.2,2.4-0.8,15-0.4,17c4.7-1,13.7-4.1,14.3-4.7c2.2-2.3,2.3-66.5,2.3-66.5s-9.1-2-13.6-2.6
		c-0.4,0.2-0.7,0.4-1.1,0.7c-0.5,0.4-1,1.1-1.4,1.9c-0.3,0.7-0.5,1.5-0.7,2.5c-0.3,2-1,17.2-1.6,30c-0.5,9.9-0.8,18.5-0.8,18.5
		S124.5,85.1,124.7,87.6z"/>
	<polygon class="st20" points="122.3,69.3 139.7,67.5 122.3,70.9 	"/>
	<path class="st3" d="M122.5,66c0.5,0.2,1.2,0.3,1.8,0.2l11.2-1.1c2-0.2,3.6-1.9,3.6-3.9V38.4c0-2-1.5-3.7-3.5-3.9l-9.3-1.2
		c-0.5-0.1-1,0-1.5,0.1c-0.1,0.3-0.2,0.5-0.3,0.8c-0.2,0.5-0.3,1-0.4,1.7c-0.3,2-1,16.4-1.6,29C122.5,65.3,122.5,65.6,122.5,66z"/>
	<path class="st13" d="M137.9,39.3v21.1c0,1.9-1.4,3.5-3.3,3.6l-3.8,0.4l-6.6,0.7c0,0-0.1,0-0.2,0c-0.3,0-0.9,0-1.5,0
		c0.1-2.2,0.2-4.5,0.3-6.8c0.1-2.7,0.3-5.4,0.4-8c0.4-7.2,0.7-13,0.9-14.2c0.1-0.6,0.2-1.2,0.4-1.7c0.9,0.1,1.5,0.2,1.6,0.2l5.9,0.7
		l2.8,0.3c0.4,0,0.8,0.2,1.1,0.3C137.1,36.5,137.9,37.8,137.9,39.3z"/>
	<path class="st14" d="M135.8,36l-13,22.2c0.1-2.7,0.3-5.4,0.4-8l8.7-14.9l2.8,0.3C135.1,35.7,135.5,35.8,135.8,36z"/>
	<polygon class="st14" points="137.9,41.2 137.9,54.7 132.7,63.7 130.9,64.4 124,65 	"/>
	<path class="st1" d="M138.1,73l-0.5,0.1l-0.2,7.5l0.8-0.1c0.4-0.1,0.8-0.4,0.8-0.8l0.2-5.8C139.1,73.3,138.6,72.9,138.1,73z"/>
	<g>
		<path class="st19" d="M128.2,121.4v16.3l12.7-5.8l1.6-0.8c-0.1-0.7-0.1-8.1-0.1-12.3c0-1.4-1.3-2.4-2.7-2.1l-10.2,2.8
			C128.8,119.7,128.2,120.5,128.2,121.4z"/>
		<path class="st19" d="M127.9,121.4c0-1,0.7-1.9,1.6-2.1l10.2-2.8c0.7-0.2,1.5,0,2.1,0.4c0.6,0.5,0.9,1.2,0.9,1.9
			c0,7.4,0.1,11.7,0.1,12.2l0,0.2l-15,6.9V121.4z M142.2,118.8c0-0.6-0.3-1.1-0.7-1.5c-0.5-0.4-1-0.5-1.6-0.3l-10.2,2.8
			c-0.7,0.2-1.2,0.8-1.2,1.6v15.8l13.7-6.3C142.2,129.6,142.2,123.7,142.2,118.8z"/>
	</g>
	<path class="st21" d="M128.2,129.9v7.7l12.7-5.8c0-1.1,0-2.2,0-3.1c0-0.1,0-0.2,0-0.3c-0.2-1.2-1.4-2.1-2.6-1.8L128.2,129.9z"/>
	<path class="st18" d="M128.2,129.9v3l12.7-4.5c-0.2-1.2-1.4-2.1-2.6-1.8L128.2,129.9z"/>
	<g>
		<path class="st22" d="M68,22.3L68,22.3l0.1,0c0.3,0,29.3-0.8,36.7-1.1c6-0.2,7.5-6.2,8.8-11c0.4-1.5,0.8-2.9,1.2-4
			c1.2-3,7.6-5,12.1-6.1c-0.8,0-1.6,0-2.5,0c-4.2,1.2-9.1,3.1-10.2,5.8c-0.5,1.2-0.8,2.6-1.2,4.1c-1.3,4.9-2.7,10.4-8.2,10.6
			c-7.3,0.3-35,1-36.6,1.1c-0.4-0.2-2.8-1.4-2.4-2.9c0.2-0.8,1.1-3.5,2.2-6.2c1.3-3.2,2.5-5.3,3.5-5.9c4-2.6,15.1-4.7,19.3-5.5
			c-1.4,0.1-2.7,0.1-3.9,0.2c-1,0.2-2,0.4-3.1,0.7c-6.2,1.4-10.4,2.8-12.5,4.2c-2.8,1.8-5.9,12.4-5.9,12.5
			C64.6,20.7,67.9,22.2,68,22.3z"/>
		<path class="st21" d="M65.2,18.6c0-0.1,3.1-10.7,5.9-12.5c2.1-1.4,6.3-2.8,12.5-4.2c1.1-0.2,2.2-0.5,3.1-0.7
			c1.2-0.1,2.6-0.1,3.9-0.2c-4.2,0.8-15.3,2.9-19.3,5.5c-1,0.6-2.2,2.7-3.5,5.9c-1.1,2.7-2,5.4-2.2,6.2c-0.6,2.5,2.5,3.5,2.4,3.5
			l-0.1,0l-0.1,0C67.9,22.2,64.6,20.7,65.2,18.6z"/>
	</g>
	<path class="st1" d="M128.8,72.1h0.8c2.7,0,5-2.2,5-5v-13c0-2.7-2.2-5-5-5h-0.8c-2.7,0-5,2.2-5,5v13
		C123.8,69.8,126,72.1,128.8,72.1z"/>
	<polygon class="st1" points="125.5,65.5 122.4,67.2 122.3,69.9 125.5,68.1 	"/>
	<path class="st16" d="M95.4,106.4c0,1.5,1.2,2.7,2.7,2.7s2.7-1.2,2.7-2.7c0-1.5-1.2-2.7-2.7-2.7S95.4,105,95.4,106.4z"/>
	<path class="st16" d="M81,113.2c0,1.3,1,2.3,2.3,2.3c1.3,0,2.3-1,2.3-2.3c0-1.3-1-2.3-2.3-2.3C82,110.9,81,111.9,81,113.2z"/>
	<path class="st16" d="M86.7,110.3c0,2.5,2,4.4,4.4,4.4c2.5,0,4.4-2,4.4-4.4c0-2.5-2-4.4-4.4-4.4C88.6,105.8,86.7,107.8,86.7,110.3z
		"/>
	<path class="st17" d="M2.8,108.8c0.2,0.2,0.3,0.4,0.5,0.6c1.9,1.8,5.4,2.8,7.5,3.2c0.8,0.2,1.4-1.5,1-3c-0.6-2.4-1.6-5.4-3.2-7
		c-1.2-1.2-2.7-2.3-4.2-3.2c-0.2,0.5-0.4,1.1-0.5,1.7c-0.2,0.9-0.4,2-0.6,3C3.1,105.6,2.9,107.3,2.8,108.8z"/>
	<path class="st16" d="M11.1,109.3c0,1.3-0.5,2.2-1.1,2.2c-0.6-0.1-1.1-1.1-1.1-2.4c0-1.3,0.5-2.2,1.1-2.2
		C10.6,107,11.1,108.1,11.1,109.3z"/>
	<path class="st16" d="M8.3,106.1c0,2.5-1,4.3-2.2,4.2c-1.2-0.1-2.2-2.2-2.2-4.7c0-2.5,1-4.3,2.2-4.2C7.3,101.6,8.3,103.7,8.3,106.1
		z"/>
	<path class="st17" d="M76.2,117.6c0,0,15.4-0.4,22.3-3.1c6.9-2.7,6.3-14,6.3-14s-0.6,1-4,3.1c-3.3,2.1-13.7,3.8-19.3,4.9
		C77.6,112.3,76.2,117.6,76.2,117.6z"/>
	<path class="st17" d="M2.6,111.1c5.6,1.5,11,2.6,11,2.6s-0.3-4.5-2.3-8.9c-5-1.2-6.8-5.4-6.8-5.4c-0.2,0.5-0.4,1.1-0.5,1.7
		c-0.2,0.9-0.4,2-0.6,3c-0.2,1.5-0.4,3.1-0.6,4.7C2.7,109.6,2.6,110.4,2.6,111.1z"/>
	<g>
		<path class="st1" d="M42,62.8c0,0-0.1-0.9,3.9-1.1c19-1,22.8,1.1,22.8,1.1L42,62.8z"/>
		<path class="st1" d="M48.1,62.4L43,64.5c-0.4,0.2-0.4,0.6,0.1,0.8l0,0c0.1,0.1,0.3,0,0.5,0l7-2.9L48.1,62.4z"/>
	</g>
	<g>
		<path class="st1" d="M79.3,62.8c0,0-0.1-0.9,3.9-1.1c19-1,22.8,1.1,22.8,1.1L79.3,62.8z"/>
		<path class="st1" d="M85.4,62.4l-5.1,2.1c-0.4,0.2-0.4,0.6,0.1,0.8l0,0c0.1,0.1,0.3,0,0.5,0l7-2.9L85.4,62.4z"/>
	</g>
</g>
</svg>
