<?xml version="1.0" encoding="utf-8"?>
<!-- Generator: Adobe Illustrator 26.0.0, SVG Export Plug-In . SVG Version: 6.00 Build 0)  -->
<svg version="1.1" id="Layer_1" xmlns="http://www.w3.org/2000/svg" xmlns:xlink="http://www.w3.org/1999/xlink" x="0px" y="0px"
	 viewBox="0 0 512.9 512.9" style="enable-background:new 0 0 512.9 512.9;" xml:space="preserve">
<style type="text/css">
	.st0{display:none;}
	.st1{display:inline;}
	.st2{fill:#0B3A5E;stroke:#0B3A5E;stroke-width:2;stroke-miterlimit:10;}
	.st3{fill:#0B3A5E;}
	.st4{display:inline;fill:#0B3A5E;}
</style>
<g transform="translate(1 1)" class="st0">
	<g class="st1">
		<g>
			<path class="st2" d="M1.8,239.4v59.1c0.8,22.8,19.4,41.4,43,41.4h17.6c4.1,23.9,24.9,42.2,49.9,42.2s45.9-18.3,49.9-42.2h170.3
				c4.1,23.9,24.9,42.2,49.9,42.2s45.9-18.3,49.9-42.2h34.5c23.6,0,42.2-18.6,42.2-42.2v-38c0-21.1-16-38.8-37.1-42.2l-51.5-6.8
				c-32.9-4.2-62.5-20.3-84.4-44.7l-11.8-11.8c-14.3-16-34.6-25.3-55.7-25.3H157.9c-26.2,0-50.6,13.5-64.2,36.3l-2.5,4.2
				c-10.1,16-27.9,26.2-49.8,27.9C19.5,198.9,1.8,217.4,1.8,239.4z M348.7,331.4c0-18.6,15.2-33.8,33.8-33.8s33.8,15.2,33.8,33.8
				s-15.2,33.8-33.8,33.8S348.7,350,348.7,331.4z M78.6,331.4c0-18.6,15.2-33.8,33.8-33.8s33.8,15.2,33.8,33.8s-15.2,33.8-33.8,33.8
				S78.6,350,78.6,331.4z M19.5,297.6v-59.1c0-13.5,10.1-24.5,23.6-25.3c27-1.7,50.6-15.2,63.3-36.3l2.5-4.2c10.1-16,28.7-27,49-27
				h110.6c16.9,0,32.1,6.8,43,19.4l11.8,13.5c24.5,27.9,58.2,45.6,95.4,49.8l51.5,6.8c12.7,0.8,21.9,11.8,21.9,24.5v38
				c0,14.3-11,25.3-25.3,25.3h-34.5c-2.8-16.8-14-30.8-29.1-37.7c-0.3-0.2-0.7-0.3-1-0.5c-0.2-0.1-0.4-0.2-0.6-0.3
				c-0.5-0.2-1.1-0.4-1.7-0.7c-0.2-0.1-0.3-0.1-0.5-0.2c-0.6-0.2-1.2-0.4-1.9-0.6c-0.1,0-0.3-0.1-0.4-0.1c-0.6-0.2-1.3-0.4-1.9-0.6
				c-0.1,0-0.3-0.1-0.4-0.1c-0.6-0.2-1.3-0.3-1.9-0.5c-0.2,0-0.3-0.1-0.5-0.1c-0.6-0.1-1.3-0.2-1.9-0.3c-0.2,0-0.4-0.1-0.6-0.1
				c-0.6-0.1-1.2-0.2-1.9-0.2c-0.2,0-0.4-0.1-0.6-0.1c-0.6-0.1-1.2-0.1-1.9-0.1c-0.2,0-0.4,0-0.6,0c-0.8,0-1.7-0.1-2.5-0.1
				s-1.7,0-2.5,0.1c-0.2,0-0.4,0-0.6,0c-0.6,0-1.3,0.1-1.9,0.1c-0.2,0-0.4,0-0.6,0.1c-0.6,0.1-1.2,0.1-1.9,0.2
				c-0.2,0-0.4,0.1-0.6,0.1c-0.6,0.1-1.3,0.2-1.9,0.3c-0.2,0-0.3,0.1-0.5,0.1c-0.7,0.1-1.3,0.3-1.9,0.5c-0.1,0-0.3,0.1-0.4,0.1
				c-0.7,0.2-1.3,0.4-1.9,0.6c-0.1,0-0.3,0.1-0.4,0.1c-0.6,0.2-1.3,0.4-1.9,0.6c-0.2,0.1-0.3,0.1-0.5,0.2c-0.6,0.2-1.1,0.4-1.7,0.7
				c-0.2,0.1-0.4,0.2-0.6,0.3c-0.3,0.1-0.7,0.3-1,0.5c-15.1,6.9-26.3,20.9-29.1,37.7H162.3c-2.8-16.8-14-30.8-29.1-37.7
				c-0.3-0.2-0.7-0.3-1-0.5c-0.2-0.1-0.4-0.2-0.6-0.3c-0.5-0.2-1.1-0.4-1.7-0.7c-0.2-0.1-0.3-0.1-0.5-0.2c-0.6-0.2-1.2-0.4-1.9-0.6
				c-0.1,0-0.3-0.1-0.4-0.1c-0.6-0.2-1.3-0.4-1.9-0.6c-0.1,0-0.3-0.1-0.4-0.1c-0.6-0.2-1.3-0.3-1.9-0.5c-0.2,0-0.3-0.1-0.5-0.1
				c-0.6-0.1-1.3-0.2-1.9-0.3c-0.2,0-0.4-0.1-0.6-0.1c-0.6-0.1-1.2-0.2-1.9-0.2c-0.2,0-0.4-0.1-0.6-0.1c-0.6-0.1-1.2-0.1-1.9-0.1
				c-0.2,0-0.4,0-0.6,0c-0.8,0-1.7-0.1-2.5-0.1s-1.7,0-2.5,0.1c-0.2,0-0.4,0-0.6,0c-0.6,0-1.3,0.1-1.9,0.1c-0.2,0-0.4,0-0.6,0.1
				c-0.6,0.1-1.2,0.1-1.9,0.2c-0.2,0-0.4,0.1-0.6,0.1c-0.6,0.1-1.3,0.2-1.9,0.3c-0.2,0-0.3,0.1-0.5,0.1c-0.7,0.1-1.3,0.3-1.9,0.5
				c-0.1,0-0.3,0.1-0.4,0.1c-0.7,0.2-1.3,0.4-1.9,0.6c-0.1,0-0.3,0.1-0.4,0.1c-0.6,0.2-1.3,0.4-1.9,0.6c-0.2,0.1-0.3,0.1-0.5,0.2
				c-0.6,0.2-1.1,0.4-1.7,0.7c-0.2,0.1-0.4,0.2-0.6,0.3c-0.3,0.1-0.7,0.3-1,0.5c-15.1,6.9-26.3,20.9-29.1,37.7H44.8
				C30.5,323,19.5,312,19.5,297.6L19.5,297.6z"/>
		</g>
	</g>
</g>
<g id="XMLID_225_">
	<path id="XMLID_226_" class="st3" d="M435.7,220.4c2.2-9.9,3.4-19.9,3.4-29.8c0-66.5-52.1-118.7-118.7-118.7
		c-29.9,0-59.5,11.3-82.2,30.8c-22.8-19.5-52.3-30.8-82.2-30.8C89.4,71.9,37.3,124,37.3,190.6c0,80.4,56,129.6,140.8,204
		c7.2,6.4,14.7,12.9,22.4,19.7c0.1,0,0.1,0.1,0.2,0.1l25.6,22.1c3.4,3,7.7,4.4,11.9,4.4c4.3,0,8.5-1.5,11.9-4.4l22.9-19.7
		c21,15.2,46.9,24.2,74.7,24.2c70.5,0,127.9-57.4,127.9-127.9C475.6,276.7,460.2,243.7,435.7,220.4z M238.2,398.6l-13.6-11.7
		c-7.7-6.8-15.2-13.4-22.4-19.7c-80-70.3-128.3-112.7-128.3-176.6c0-46.8,35.3-82.1,82.1-82.1c25.5,0,51.6,12.2,68.3,31.9
		c3.5,4.1,8.6,6.5,13.9,6.5c5.4,0,10.5-2.4,13.9-6.5c16.6-19.7,42.8-31.9,68.3-31.9c46.8,0,82.1,35.3,82.1,82.1c0,2.3-0.1,4.6-0.3,7
		c-16.6-7.8-35-12.2-54.5-12.2c-70.5,0-127.9,57.4-127.9,127.9c0,29.4,10,56.5,26.8,78.2L238.2,398.6z M347.7,404.5
		c-50.4,0-91.3-41-91.3-91.3s41-91.3,91.3-91.3s91.3,41,91.3,91.3S398.1,404.5,347.7,404.5z"/>
	<path id="XMLID_230_" class="st3" d="M373.8,273.4l-41.9,41.9l-11.4-11.4c-7.1-7.1-18.7-7.1-25.8,0s-7.1,18.7,0,25.8l24.4,24.4
		c3.6,3.6,8.2,5.4,12.9,5.4c4.7,0,9.3-1.8,12.9-5.4l54.8-54.8c7.1-7.1,7.1-18.7,0-25.8C392.5,266.3,380.9,266.3,373.8,273.4z"/>
</g>
<g class="st0">
	<path class="st4" d="M401.4,125.2h-90.6V57.5H39.9c-15.6,0-28.1,12.5-28.1,28.1v261.5c0,15.6,12.5,28.1,28.1,28.1h32.4
		c-0.8,4.1-1.2,8.2-1.2,12.5c0,37.5,30.2,67.7,67.7,67.7s68.8-30.2,67.7-67.7c0-4.3-0.4-8.4-1.2-12.5h85.5h19.8h19
		c-0.8,4.1-1.2,8.2-1.2,12.5c0,37.5,30.2,67.7,67.7,67.7s67.7-30.2,67.7-67.7c0-4.3-0.4-8.4-1.2-12.5h10.5
		c15.6,0,28.1-12.5,28.1-29.2v-96.9L401.4,125.2L401.4,125.2z M138.9,435.7c-26,0-47.9-21.9-47.9-47.9s21.9-47.9,47.9-47.9
		c27.1,0,47.9,21.9,47.9,47.9S164.9,435.7,138.9,435.7z M197.9,354.4c-11.6-20.5-33.6-34.4-59-34.4s-47.4,13.8-59,34.4h-40
		c-4.2,0-7.3-3.1-7.3-7.3V85.7c0-4.2,3.1-7.3,7.3-7.3H291v276.1h-93.1L197.9,354.4L197.9,354.4z M396.2,435.6
		c-26,0-47.9-21.9-47.9-47.9s21.9-47.9,47.9-47.9s47.9,21.9,47.9,47.9S422.2,435.6,396.2,435.6z M481.6,346c0,4.2-4.2,8.3-8.3,8.3
		h-18.1c-11.6-20.5-33.6-34.4-59-34.4s-47.4,13.8-59,34.4h-25.4V144.9H392l89.6,111.5V346z"/>
</g>
</svg>
