<?xml version="1.0" encoding="utf-8"?>
<!-- Generator: Adobe Illustrator 26.0.0, SVG Export Plug-In . SVG Version: 6.00 Build 0)  -->
<svg version="1.1" id="Layer_1" xmlns="http://www.w3.org/2000/svg" xmlns:xlink="http://www.w3.org/1999/xlink" x="0px" y="0px"
	 viewBox="0 0 76 90" style="enable-background:new 0 0 76 90;" xml:space="preserve">
<style type="text/css">
	.st0{fill:url(#SVGID_1_);}
</style>
<linearGradient id="SVGID_1_" gradientUnits="userSpaceOnUse" x1="38" y1="74" x2="38" y2="19" gradientTransform="matrix(1 0 0 -1 0 92)">
	<stop  offset="0" style="stop-color:#0C5369"/>
	<stop  offset="9.667943e-02" style="stop-color:#145C6D"/>
	<stop  offset="0.2547" style="stop-color:#297479"/>
	<stop  offset="0.4533" style="stop-color:#4C9C8C"/>
	<stop  offset="0.5025" style="stop-color:#56A791"/>
	<stop  offset="0.621" style="stop-color:#3D8B84"/>
	<stop  offset="0.7754" style="stop-color:#226C75"/>
	<stop  offset="0.9072" style="stop-color:#125A6C"/>
	<stop  offset="1" style="stop-color:#0C5369"/>
</linearGradient>
<path class="st0" d="M5.5,90V71.9l31.6-29.2c2-1.9,3.5-3.6,4.4-5c1-1.4,1.7-2.7,2-3.8c0.3-1.2,0.5-2.2,0.5-3.2c0-2.2-0.7-3.8-2.1-5
	c-1.4-1.2-3.5-1.9-6.4-1.9c-2.6,0-5,0.7-7.4,2.1c-2.3,1.3-4.2,3.3-5.5,6L0.4,20.8c3.2-6,7.9-10.9,14.2-14.6
	C21,2.4,28.8,0.5,38.2,0.5c6.9,0,13,1.1,18.4,3.4c5.3,2.2,9.5,5.4,12.5,9.5c3,4.1,4.5,8.9,4.5,14.5c0,2.8-0.4,5.7-1.1,8.5
	c-0.7,2.8-2.1,5.8-4.2,9c-2.2,3.1-5.4,6.5-9.6,10.4L34.9,77.4l-4.6-10.2h45.4V90H5.5z"/>
</svg>
